ISO-10303-21;
HEADER;
/* Generated by software containing ST-Developer
 * from STEP Tools, Inc. (www.steptools.com) 
 */
/* OPTION: using custom renumber hook */

FILE_DESCRIPTION(
/* description */ ('STEP AP242',
'CAx-IF Rec.Pracs.---Representation and Presentation of Product Manufa
cturing Information (PMI)---4.0---2014-10-13',
'CAx-IF Rec.Pracs.---3D Tessellated Geometry---0.4---2014-09-14','2;1'),

/* implementation_level */ '2;1');

FILE_NAME(
/* name */ '68418ca2c0c7f43cd23ffb13',
/* time_stamp */ '2025-06-05T12:25:07Z',
/* author */ (''),
/* organization */ (''),
/* preprocessor_version */ 'ST-DEVELOPER v20',
/* originating_system */ 'ONSHAPE BY PTC INC, 1.198',
/* authorisation */ '  ');

FILE_SCHEMA (('AP242_MANAGED_MODEL_BASED_3D_ENGINEERING_MIM_LF { 1 0 10303 442 1 1 4 }'));
ENDSEC;

DATA;
#10=SHAPE_REPRESENTATION_RELATIONSHIP('','',#712,#11);
#11=ADVANCED_BREP_SHAPE_REPRESENTATION('',(#710),#1226);
#12=SPHERICAL_SURFACE('',#753,0.003);
#13=SPHERICAL_SURFACE('',#756,0.003);
#14=B_SPLINE_SURFACE_WITH_KNOTS('',3,1,((#1113,#1114),(#1115,#1116),(#1117,
#1118),(#1119,#1120),(#1121,#1122)),.SURF_OF_LINEAR_EXTRUSION.,.F.,.F.,
 .F.,(4,1,4),(2,2),(-8.85397493655413,-8.05204717058848,-7.25011940462283),
(0.,1.),.UNSPECIFIED.);
#15=B_SPLINE_SURFACE_WITH_KNOTS('',3,1,((#1148,#1149),(#1150,#1151),(#1152,
#1153),(#1154,#1155),(#1156,#1157)),.SURF_OF_LINEAR_EXTRUSION.,.F.,.F.,
 .F.,(4,1,4),(2,2),(-0.614552097103649,0.192723951450096,1.00000000000384),
(0.,1.),.UNSPECIFIED.);
#16=B_SPLINE_CURVE_WITH_KNOTS('',3,(#1052,#1053,#1054,#1055),
 .UNSPECIFIED.,.F.,.F.,(4,4),(3.87895961444886E-18,0.00544069771944352),
 .UNSPECIFIED.);
#17=B_SPLINE_CURVE_WITH_KNOTS('',3,(#1064,#1065,#1066,#1067),
 .UNSPECIFIED.,.F.,.F.,(4,4),(1.01150891392796E-17,0.00544069771944346),
 .UNSPECIFIED.);
#18=B_SPLINE_CURVE_WITH_KNOTS('',3,(#1126,#1127,#1128,#1129,#1130,#1131,
#1132),.UNSPECIFIED.,.F.,.F.,(4,1,1,1,4),(1.88134695047859E-14,0.00199443802007995,
0.00398887604014108,0.00598331406020221,0.00797775208026334),
 .UNSPECIFIED.);
#19=B_SPLINE_CURVE_WITH_KNOTS('',3,(#1133,#1134,#1135,#1136,#1137,#1138,
#1139),.UNSPECIFIED.,.F.,.F.,(4,1,1,1,4),(1.88134695047859E-14,0.0019944380201023,
0.00398887604018579,0.00598331406026928,0.00797775208035277),
 .UNSPECIFIED.);
#20=B_SPLINE_CURVE_WITH_KNOTS('',3,(#1158,#1159,#1160,#1161,#1162,#1163),
 .UNSPECIFIED.,.F.,.F.,(4,1,1,4),(0.,0.00199472090848964,0.00398944181697927,
0.00797888363395854),.UNSPECIFIED.);
#21=B_SPLINE_CURVE_WITH_KNOTS('',3,(#1167,#1168,#1169,#1170,#1171,#1172),
 .UNSPECIFIED.,.F.,.F.,(4,1,1,4),(0.,0.00199472090848976,0.00398944181697952,
0.00797888363395903),.UNSPECIFIED.);
#22=LINE('',#989,#83);
#23=LINE('',#993,#84);
#24=LINE('',#998,#85);
#25=LINE('',#1002,#86);
#26=LINE('',#1004,#87);
#27=LINE('',#1006,#88);
#28=LINE('',#1008,#89);
#29=LINE('',#1010,#90);
#30=LINE('',#1012,#91);
#31=LINE('',#1014,#92);
#32=LINE('',#1019,#93);
#33=LINE('',#1023,#94);
#34=LINE('',#1025,#95);
#35=LINE('',#1027,#96);
#36=LINE('',#1029,#97);
#37=LINE('',#1031,#98);
#38=LINE('',#1032,#99);
#39=LINE('',#1034,#100);
#40=LINE('',#1039,#101);
#41=LINE('',#1043,#102);
#42=LINE('',#1045,#103);
#43=LINE('',#1050,#104);
#44=LINE('',#1057,#105);
#45=LINE('',#1062,#106);
#46=LINE('',#1069,#107);
#47=LINE('',#1071,#108);
#48=LINE('',#1073,#109);
#49=LINE('',#1075,#110);
#50=LINE('',#1077,#111);
#51=LINE('',#1080,#112);
#52=LINE('',#1081,#113);
#53=LINE('',#1083,#114);
#54=LINE('',#1086,#115);
#55=LINE('',#1088,#116);
#56=LINE('',#1090,#117);
#57=LINE('',#1092,#118);
#58=LINE('',#1094,#119);
#59=LINE('',#1096,#120);
#60=LINE('',#1098,#121);
#61=LINE('',#1106,#122);
#62=LINE('',#1109,#123);
#63=LINE('',#1112,#124);
#64=LINE('',#1123,#125);
#65=LINE('',#1143,#126);
#66=LINE('',#1145,#127);
#67=LINE('',#1147,#128);
#68=LINE('',#1165,#129);
#69=LINE('',#1174,#130);
#70=LINE('',#1175,#131);
#71=LINE('',#1177,#132);
#72=LINE('',#1178,#133);
#73=LINE('',#1188,#134);
#74=LINE('',#1190,#135);
#75=LINE('',#1192,#136);
#76=LINE('',#1198,#137);
#77=LINE('',#1207,#138);
#78=LINE('',#1208,#139);
#79=LINE('',#1209,#140);
#80=LINE('',#1218,#141);
#81=LINE('',#1221,#142);
#82=LINE('',#1223,#143);
#83=VECTOR('',#795,1.);
#84=VECTOR('',#798,1.);
#85=VECTOR('',#803,1.);
#86=VECTOR('',#806,1.);
#87=VECTOR('',#809,1.);
#88=VECTOR('',#810,1.);
#89=VECTOR('',#811,1.);
#90=VECTOR('',#814,1.);
#91=VECTOR('',#815,1.);
#92=VECTOR('',#816,1.);
#93=VECTOR('',#821,1.);
#94=VECTOR('',#824,1.);
#95=VECTOR('',#827,1.);
#96=VECTOR('',#828,1.);
#97=VECTOR('',#829,1.);
#98=VECTOR('',#832,1.);
#99=VECTOR('',#833,1.);
#100=VECTOR('',#836,1.);
#101=VECTOR('',#839,1.);
#102=VECTOR('',#842,1.);
#103=VECTOR('',#843,1.);
#104=VECTOR('',#848,1.);
#105=VECTOR('',#849,1.);
#106=VECTOR('',#854,1.);
#107=VECTOR('',#855,1.);
#108=VECTOR('',#858,1.);
#109=VECTOR('',#859,1.);
#110=VECTOR('',#860,1.);
#111=VECTOR('',#863,1.);
#112=VECTOR('',#864,1.);
#113=VECTOR('',#865,1.);
#114=VECTOR('',#868,1.);
#115=VECTOR('',#869,1.);
#116=VECTOR('',#870,1.);
#117=VECTOR('',#871,1.);
#118=VECTOR('',#872,1.);
#119=VECTOR('',#873,1.);
#120=VECTOR('',#874,1.);
#121=VECTOR('',#875,1.);
#122=VECTOR('',#890,1.);
#123=VECTOR('',#891,1.);
#124=VECTOR('',#894,1.);
#125=VECTOR('',#895,1.);
#126=VECTOR('',#900,1.);
#127=VECTOR('',#901,1.);
#128=VECTOR('',#902,1.);
#129=VECTOR('',#903,1.);
#130=VECTOR('',#906,1.);
#131=VECTOR('',#907,1.);
#132=VECTOR('',#910,1.);
#133=VECTOR('',#911,1.);
#134=VECTOR('',#926,1.);
#135=VECTOR('',#929,1.);
#136=VECTOR('',#932,1.);
#137=VECTOR('',#939,1.);
#138=VECTOR('',#952,1.);
#139=VECTOR('',#953,1.);
#140=VECTOR('',#954,1.);
#141=VECTOR('',#967,1.);
#142=VECTOR('',#972,1.);
#143=VECTOR('',#975,1.);
#144=ELLIPSE('',#717,0.00121944914326828,0.00075);
#145=ELLIPSE('',#719,0.000534000234082345,0.0005);
#146=ELLIPSE('',#720,0.000534000234082345,0.0005);
#147=ELLIPSE('',#722,0.000534000234082345,0.0005);
#148=ELLIPSE('',#723,0.000534000234082345,0.0005);
#149=ELLIPSE('',#727,0.00320400140449407,0.003);
#150=ELLIPSE('',#728,0.00320400140449407,0.003);
#151=ELLIPSE('',#748,0.00528958123036607,0.003);
#152=ELLIPSE('',#750,0.00528958123036615,0.003);
#153=CYLINDRICAL_SURFACE('',#716,0.00075);
#154=CYLINDRICAL_SURFACE('',#718,0.0005);
#155=CYLINDRICAL_SURFACE('',#721,0.0005);
#156=CYLINDRICAL_SURFACE('',#726,0.003);
#157=CYLINDRICAL_SURFACE('',#734,0.008);
#158=CYLINDRICAL_SURFACE('',#736,0.008);
#159=CYLINDRICAL_SURFACE('',#741,0.003);
#160=CYLINDRICAL_SURFACE('',#744,0.003);
#161=CYLINDRICAL_SURFACE('',#759,0.003);
#162=CYLINDRICAL_SURFACE('',#760,0.003);
#163=CYLINDRICAL_SURFACE('',#761,0.003);
#164=CYLINDRICAL_SURFACE('',#765,0.003);
#165=CYLINDRICAL_SURFACE('',#766,0.0025);
#166=CYLINDRICAL_SURFACE('',#768,0.003775);
#167=CYLINDRICAL_SURFACE('',#772,0.0056);
#168=ORIENTED_EDGE('',*,*,#358,.F.);
#169=ORIENTED_EDGE('',*,*,#358,.T.);
#170=ORIENTED_EDGE('',*,*,#359,.F.);
#171=ORIENTED_EDGE('',*,*,#360,.T.);
#172=ORIENTED_EDGE('',*,*,#361,.T.);
#173=ORIENTED_EDGE('',*,*,#362,.F.);
#174=ORIENTED_EDGE('',*,*,#363,.F.);
#175=ORIENTED_EDGE('',*,*,#364,.T.);
#176=ORIENTED_EDGE('',*,*,#365,.T.);
#177=ORIENTED_EDGE('',*,*,#366,.F.);
#178=ORIENTED_EDGE('',*,*,#367,.F.);
#179=ORIENTED_EDGE('',*,*,#368,.T.);
#180=ORIENTED_EDGE('',*,*,#369,.F.);
#181=ORIENTED_EDGE('',*,*,#370,.F.);
#182=ORIENTED_EDGE('',*,*,#361,.F.);
#183=ORIENTED_EDGE('',*,*,#371,.T.);
#184=ORIENTED_EDGE('',*,*,#372,.T.);
#185=ORIENTED_EDGE('',*,*,#373,.F.);
#186=ORIENTED_EDGE('',*,*,#367,.T.);
#187=ORIENTED_EDGE('',*,*,#374,.T.);
#188=ORIENTED_EDGE('',*,*,#375,.T.);
#189=ORIENTED_EDGE('',*,*,#376,.F.);
#190=ORIENTED_EDGE('',*,*,#377,.F.);
#191=ORIENTED_EDGE('',*,*,#378,.T.);
#192=ORIENTED_EDGE('',*,*,#379,.F.);
#193=ORIENTED_EDGE('',*,*,#380,.T.);
#194=ORIENTED_EDGE('',*,*,#375,.F.);
#195=ORIENTED_EDGE('',*,*,#359,.T.);
#196=ORIENTED_EDGE('',*,*,#381,.F.);
#197=ORIENTED_EDGE('',*,*,#376,.T.);
#198=ORIENTED_EDGE('',*,*,#380,.F.);
#199=ORIENTED_EDGE('',*,*,#382,.T.);
#200=ORIENTED_EDGE('',*,*,#371,.F.);
#201=ORIENTED_EDGE('',*,*,#366,.T.);
#202=ORIENTED_EDGE('',*,*,#383,.T.);
#203=ORIENTED_EDGE('',*,*,#384,.F.);
#204=ORIENTED_EDGE('',*,*,#385,.T.);
#205=ORIENTED_EDGE('',*,*,#386,.T.);
#206=ORIENTED_EDGE('',*,*,#387,.F.);
#207=ORIENTED_EDGE('',*,*,#388,.F.);
#208=ORIENTED_EDGE('',*,*,#389,.F.);
#209=ORIENTED_EDGE('',*,*,#390,.T.);
#210=ORIENTED_EDGE('',*,*,#391,.F.);
#211=ORIENTED_EDGE('',*,*,#392,.F.);
#212=ORIENTED_EDGE('',*,*,#393,.F.);
#213=ORIENTED_EDGE('',*,*,#394,.F.);
#214=ORIENTED_EDGE('',*,*,#395,.T.);
#215=ORIENTED_EDGE('',*,*,#396,.T.);
#216=ORIENTED_EDGE('',*,*,#396,.F.);
#217=ORIENTED_EDGE('',*,*,#397,.F.);
#218=ORIENTED_EDGE('',*,*,#398,.T.);
#219=ORIENTED_EDGE('',*,*,#399,.F.);
#220=ORIENTED_EDGE('',*,*,#400,.T.);
#221=ORIENTED_EDGE('',*,*,#401,.F.);
#222=ORIENTED_EDGE('',*,*,#383,.F.);
#223=ORIENTED_EDGE('',*,*,#402,.F.);
#224=ORIENTED_EDGE('',*,*,#403,.F.);
#225=ORIENTED_EDGE('',*,*,#404,.F.);
#226=ORIENTED_EDGE('',*,*,#405,.F.);
#227=ORIENTED_EDGE('',*,*,#406,.F.);
#228=ORIENTED_EDGE('',*,*,#407,.F.);
#229=ORIENTED_EDGE('',*,*,#408,.T.);
#230=ORIENTED_EDGE('',*,*,#409,.T.);
#231=ORIENTED_EDGE('',*,*,#410,.F.);
#232=ORIENTED_EDGE('',*,*,#411,.F.);
#233=ORIENTED_EDGE('',*,*,#398,.F.);
#234=ORIENTED_EDGE('',*,*,#412,.T.);
#235=ORIENTED_EDGE('',*,*,#403,.T.);
#236=ORIENTED_EDGE('',*,*,#413,.F.);
#237=ORIENTED_EDGE('',*,*,#405,.T.);
#238=ORIENTED_EDGE('',*,*,#414,.T.);
#239=ORIENTED_EDGE('',*,*,#400,.F.);
#240=ORIENTED_EDGE('',*,*,#415,.T.);
#241=ORIENTED_EDGE('',*,*,#416,.F.);
#242=ORIENTED_EDGE('',*,*,#417,.T.);
#243=ORIENTED_EDGE('',*,*,#394,.T.);
#244=ORIENTED_EDGE('',*,*,#418,.F.);
#245=ORIENTED_EDGE('',*,*,#419,.T.);
#246=ORIENTED_EDGE('',*,*,#420,.T.);
#247=ORIENTED_EDGE('',*,*,#415,.F.);
#248=ORIENTED_EDGE('',*,*,#421,.F.);
#249=ORIENTED_EDGE('',*,*,#392,.T.);
#250=ORIENTED_EDGE('',*,*,#422,.T.);
#251=ORIENTED_EDGE('',*,*,#423,.F.);
#252=ORIENTED_EDGE('',*,*,#424,.F.);
#253=ORIENTED_EDGE('',*,*,#425,.F.);
#254=ORIENTED_EDGE('',*,*,#424,.T.);
#255=ORIENTED_EDGE('',*,*,#426,.T.);
#256=ORIENTED_EDGE('',*,*,#427,.F.);
#257=ORIENTED_EDGE('',*,*,#428,.F.);
#258=ORIENTED_EDGE('',*,*,#427,.T.);
#259=ORIENTED_EDGE('',*,*,#429,.F.);
#260=ORIENTED_EDGE('',*,*,#419,.F.);
#261=ORIENTED_EDGE('',*,*,#430,.F.);
#262=ORIENTED_EDGE('',*,*,#387,.T.);
#263=ORIENTED_EDGE('',*,*,#431,.F.);
#264=ORIENTED_EDGE('',*,*,#390,.F.);
#265=ORIENTED_EDGE('',*,*,#432,.F.);
#266=ORIENTED_EDGE('',*,*,#433,.F.);
#267=ORIENTED_EDGE('',*,*,#414,.F.);
#268=ORIENTED_EDGE('',*,*,#434,.F.);
#269=ORIENTED_EDGE('',*,*,#412,.F.);
#270=ORIENTED_EDGE('',*,*,#435,.F.);
#271=ORIENTED_EDGE('',*,*,#436,.F.);
#272=ORIENTED_EDGE('',*,*,#436,.T.);
#273=ORIENTED_EDGE('',*,*,#437,.F.);
#274=ORIENTED_EDGE('',*,*,#434,.T.);
#275=ORIENTED_EDGE('',*,*,#404,.T.);
#276=ORIENTED_EDGE('',*,*,#384,.T.);
#277=ORIENTED_EDGE('',*,*,#401,.T.);
#278=ORIENTED_EDGE('',*,*,#433,.T.);
#279=ORIENTED_EDGE('',*,*,#438,.F.);
#280=ORIENTED_EDGE('',*,*,#397,.T.);
#281=ORIENTED_EDGE('',*,*,#395,.F.);
#282=ORIENTED_EDGE('',*,*,#417,.F.);
#283=ORIENTED_EDGE('',*,*,#439,.T.);
#284=ORIENTED_EDGE('',*,*,#435,.T.);
#285=ORIENTED_EDGE('',*,*,#440,.F.);
#286=ORIENTED_EDGE('',*,*,#441,.F.);
#287=ORIENTED_EDGE('',*,*,#438,.T.);
#288=ORIENTED_EDGE('',*,*,#437,.T.);
#289=ORIENTED_EDGE('',*,*,#439,.F.);
#290=ORIENTED_EDGE('',*,*,#416,.T.);
#291=ORIENTED_EDGE('',*,*,#420,.F.);
#292=ORIENTED_EDGE('',*,*,#429,.T.);
#293=ORIENTED_EDGE('',*,*,#426,.F.);
#294=ORIENTED_EDGE('',*,*,#423,.T.);
#295=ORIENTED_EDGE('',*,*,#442,.T.);
#296=ORIENTED_EDGE('',*,*,#385,.F.);
#297=ORIENTED_EDGE('',*,*,#386,.F.);
#298=ORIENTED_EDGE('',*,*,#442,.F.);
#299=ORIENTED_EDGE('',*,*,#422,.F.);
#300=ORIENTED_EDGE('',*,*,#391,.T.);
#301=ORIENTED_EDGE('',*,*,#431,.T.);
#302=ORIENTED_EDGE('',*,*,#441,.T.);
#303=ORIENTED_EDGE('',*,*,#443,.T.);
#304=ORIENTED_EDGE('',*,*,#440,.T.);
#305=ORIENTED_EDGE('',*,*,#444,.F.);
#306=ORIENTED_EDGE('',*,*,#382,.F.);
#307=ORIENTED_EDGE('',*,*,#379,.T.);
#308=ORIENTED_EDGE('',*,*,#445,.T.);
#309=ORIENTED_EDGE('',*,*,#372,.F.);
#310=ORIENTED_EDGE('',*,*,#369,.T.);
#311=ORIENTED_EDGE('',*,*,#446,.T.);
#312=ORIENTED_EDGE('',*,*,#406,.T.);
#313=ORIENTED_EDGE('',*,*,#413,.T.);
#314=ORIENTED_EDGE('',*,*,#402,.T.);
#315=ORIENTED_EDGE('',*,*,#388,.T.);
#316=ORIENTED_EDGE('',*,*,#432,.T.);
#317=ORIENTED_EDGE('',*,*,#389,.T.);
#318=ORIENTED_EDGE('',*,*,#425,.T.);
#319=ORIENTED_EDGE('',*,*,#428,.T.);
#320=ORIENTED_EDGE('',*,*,#430,.T.);
#321=ORIENTED_EDGE('',*,*,#421,.T.);
#322=ORIENTED_EDGE('',*,*,#418,.T.);
#323=ORIENTED_EDGE('',*,*,#393,.T.);
#324=ORIENTED_EDGE('',*,*,#399,.T.);
#325=ORIENTED_EDGE('',*,*,#411,.T.);
#326=ORIENTED_EDGE('',*,*,#410,.T.);
#327=ORIENTED_EDGE('',*,*,#447,.F.);
#328=ORIENTED_EDGE('',*,*,#448,.T.);
#329=ORIENTED_EDGE('',*,*,#448,.F.);
#330=ORIENTED_EDGE('',*,*,#449,.T.);
#331=ORIENTED_EDGE('',*,*,#449,.F.);
#332=ORIENTED_EDGE('',*,*,#444,.T.);
#333=ORIENTED_EDGE('',*,*,#443,.F.);
#334=ORIENTED_EDGE('',*,*,#373,.T.);
#335=ORIENTED_EDGE('',*,*,#445,.F.);
#336=ORIENTED_EDGE('',*,*,#378,.F.);
#337=ORIENTED_EDGE('',*,*,#374,.F.);
#338=ORIENTED_EDGE('',*,*,#450,.T.);
#339=ORIENTED_EDGE('',*,*,#364,.F.);
#340=ORIENTED_EDGE('',*,*,#450,.F.);
#341=ORIENTED_EDGE('',*,*,#377,.T.);
#342=ORIENTED_EDGE('',*,*,#381,.T.);
#343=ORIENTED_EDGE('',*,*,#365,.F.);
#344=ORIENTED_EDGE('',*,*,#370,.T.);
#345=ORIENTED_EDGE('',*,*,#447,.T.);
#346=ORIENTED_EDGE('',*,*,#409,.F.);
#347=ORIENTED_EDGE('',*,*,#451,.F.);
#348=ORIENTED_EDGE('',*,*,#362,.T.);
#349=ORIENTED_EDGE('',*,*,#452,.T.);
#350=ORIENTED_EDGE('',*,*,#407,.T.);
#351=ORIENTED_EDGE('',*,*,#446,.F.);
#352=ORIENTED_EDGE('',*,*,#368,.F.);
#353=ORIENTED_EDGE('',*,*,#360,.F.);
#354=ORIENTED_EDGE('',*,*,#451,.T.);
#355=ORIENTED_EDGE('',*,*,#408,.F.);
#356=ORIENTED_EDGE('',*,*,#452,.F.);
#357=ORIENTED_EDGE('',*,*,#363,.T.);
#358=EDGE_CURVE('',#453,#453,#517,.T.);
#359=EDGE_CURVE('',#454,#454,#144,.T.);
#360=EDGE_CURVE('',#455,#456,#145,.T.);
#361=EDGE_CURVE('',#456,#457,#22,.T.);
#362=EDGE_CURVE('',#458,#457,#146,.T.);
#363=EDGE_CURVE('',#455,#458,#23,.T.);
#364=EDGE_CURVE('',#459,#460,#147,.T.);
#365=EDGE_CURVE('',#460,#461,#24,.T.);
#366=EDGE_CURVE('',#462,#461,#148,.T.);
#367=EDGE_CURVE('',#459,#462,#25,.T.);
#368=EDGE_CURVE('',#456,#463,#26,.T.);
#369=EDGE_CURVE('',#464,#463,#27,.T.);
#370=EDGE_CURVE('',#457,#464,#28,.T.);
#371=EDGE_CURVE('',#462,#465,#29,.T.);
#372=EDGE_CURVE('',#465,#466,#30,.T.);
#373=EDGE_CURVE('',#459,#466,#31,.T.);
#374=EDGE_CURVE('',#467,#468,#149,.T.);
#375=EDGE_CURVE('',#468,#469,#32,.T.);
#376=EDGE_CURVE('',#470,#469,#150,.T.);
#377=EDGE_CURVE('',#467,#470,#33,.T.);
#378=EDGE_CURVE('',#468,#471,#34,.T.);
#379=EDGE_CURVE('',#472,#471,#35,.T.);
#380=EDGE_CURVE('',#472,#469,#36,.T.);
#381=EDGE_CURVE('',#470,#461,#37,.T.);
#382=EDGE_CURVE('',#472,#465,#38,.T.);
#383=EDGE_CURVE('',#473,#474,#39,.T.);
#384=EDGE_CURVE('',#475,#474,#518,.T.);
#385=EDGE_CURVE('',#475,#476,#40,.T.);
#386=EDGE_CURVE('',#476,#477,#519,.T.);
#387=EDGE_CURVE('',#478,#477,#41,.T.);
#388=EDGE_CURVE('',#473,#478,#42,.T.);
#389=EDGE_CURVE('',#479,#480,#520,.T.);
#390=EDGE_CURVE('',#479,#481,#43,.T.);
#391=EDGE_CURVE('',#482,#481,#16,.T.);
#392=EDGE_CURVE('',#480,#482,#44,.T.);
#393=EDGE_CURVE('',#483,#484,#521,.T.);
#394=EDGE_CURVE('',#485,#483,#45,.T.);
#395=EDGE_CURVE('',#485,#486,#17,.T.);
#396=EDGE_CURVE('',#486,#484,#46,.T.);
#397=EDGE_CURVE('',#487,#486,#47,.T.);
#398=EDGE_CURVE('',#487,#488,#48,.T.);
#399=EDGE_CURVE('',#484,#488,#49,.T.);
#400=EDGE_CURVE('',#489,#490,#50,.T.);
#401=EDGE_CURVE('',#474,#490,#51,.T.);
#402=EDGE_CURVE('',#489,#473,#52,.T.);
#403=EDGE_CURVE('',#491,#492,#53,.T.);
#404=EDGE_CURVE('',#493,#491,#54,.T.);
#405=EDGE_CURVE('',#494,#493,#55,.T.);
#406=EDGE_CURVE('',#495,#494,#56,.T.);
#407=EDGE_CURVE('',#496,#495,#57,.T.);
#408=EDGE_CURVE('',#496,#497,#58,.T.);
#409=EDGE_CURVE('',#497,#498,#59,.T.);
#410=EDGE_CURVE('',#492,#498,#60,.T.);
#411=EDGE_CURVE('',#488,#492,#522,.T.);
#412=EDGE_CURVE('',#487,#491,#523,.T.);
#413=EDGE_CURVE('',#494,#489,#524,.T.);
#414=EDGE_CURVE('',#493,#490,#525,.T.);
#415=EDGE_CURVE('',#499,#500,#61,.T.);
#416=EDGE_CURVE('',#501,#500,#62,.T.);
#417=EDGE_CURVE('',#501,#485,#151,.T.);
#418=EDGE_CURVE('',#499,#483,#63,.T.);
#419=EDGE_CURVE('',#502,#503,#64,.T.);
#420=EDGE_CURVE('',#503,#500,#18,.T.);
#421=EDGE_CURVE('',#502,#499,#19,.T.);
#422=EDGE_CURVE('',#482,#504,#152,.T.);
#423=EDGE_CURVE('',#505,#504,#65,.T.);
#424=EDGE_CURVE('',#506,#505,#66,.T.);
#425=EDGE_CURVE('',#480,#506,#67,.T.);
#426=EDGE_CURVE('',#505,#507,#20,.T.);
#427=EDGE_CURVE('',#508,#507,#68,.T.);
#428=EDGE_CURVE('',#506,#508,#21,.T.);
#429=EDGE_CURVE('',#503,#507,#69,.T.);
#430=EDGE_CURVE('',#508,#502,#70,.T.);
#431=EDGE_CURVE('',#481,#477,#71,.T.);
#432=EDGE_CURVE('',#478,#479,#72,.T.);
#433=EDGE_CURVE('',#490,#509,#526,.T.);
#434=EDGE_CURVE('',#509,#493,#527,.T.);
#435=EDGE_CURVE('',#510,#487,#528,.T.);
#436=EDGE_CURVE('',#491,#510,#529,.T.);
#437=EDGE_CURVE('',#509,#510,#73,.T.);
#438=EDGE_CURVE('',#475,#509,#74,.T.);
#439=EDGE_CURVE('',#501,#510,#75,.T.);
#440=EDGE_CURVE('',#511,#511,#530,.T.);
#441=EDGE_CURVE('',#512,#512,#531,.T.);
#442=EDGE_CURVE('',#504,#476,#76,.T.);
#443=EDGE_CURVE('',#513,#513,#532,.T.);
#444=EDGE_CURVE('',#514,#514,#533,.T.);
#445=EDGE_CURVE('',#471,#466,#77,.T.);
#446=EDGE_CURVE('',#463,#495,#78,.T.);
#447=EDGE_CURVE('',#464,#498,#79,.T.);
#448=EDGE_CURVE('',#515,#515,#534,.T.);
#449=EDGE_CURVE('',#516,#516,#535,.T.);
#450=EDGE_CURVE('',#467,#460,#80,.T.);
#451=EDGE_CURVE('',#458,#497,#81,.T.);
#452=EDGE_CURVE('',#455,#496,#82,.T.);
#453=VERTEX_POINT('',#981);
#454=VERTEX_POINT('',#984);
#455=VERTEX_POINT('',#987);
#456=VERTEX_POINT('',#988);
#457=VERTEX_POINT('',#990);
#458=VERTEX_POINT('',#992);
#459=VERTEX_POINT('',#996);
#460=VERTEX_POINT('',#997);
#461=VERTEX_POINT('',#999);
#462=VERTEX_POINT('',#1001);
#463=VERTEX_POINT('',#1005);
#464=VERTEX_POINT('',#1007);
#465=VERTEX_POINT('',#1011);
#466=VERTEX_POINT('',#1013);
#467=VERTEX_POINT('',#1017);
#468=VERTEX_POINT('',#1018);
#469=VERTEX_POINT('',#1020);
#470=VERTEX_POINT('',#1022);
#471=VERTEX_POINT('',#1026);
#472=VERTEX_POINT('',#1028);
#473=VERTEX_POINT('',#1035);
#474=VERTEX_POINT('',#1036);
#475=VERTEX_POINT('',#1038);
#476=VERTEX_POINT('',#1040);
#477=VERTEX_POINT('',#1042);
#478=VERTEX_POINT('',#1044);
#479=VERTEX_POINT('',#1048);
#480=VERTEX_POINT('',#1049);
#481=VERTEX_POINT('',#1051);
#482=VERTEX_POINT('',#1056);
#483=VERTEX_POINT('',#1060);
#484=VERTEX_POINT('',#1061);
#485=VERTEX_POINT('',#1063);
#486=VERTEX_POINT('',#1068);
#487=VERTEX_POINT('',#1072);
#488=VERTEX_POINT('',#1074);
#489=VERTEX_POINT('',#1078);
#490=VERTEX_POINT('',#1079);
#491=VERTEX_POINT('',#1084);
#492=VERTEX_POINT('',#1085);
#493=VERTEX_POINT('',#1087);
#494=VERTEX_POINT('',#1089);
#495=VERTEX_POINT('',#1091);
#496=VERTEX_POINT('',#1093);
#497=VERTEX_POINT('',#1095);
#498=VERTEX_POINT('',#1097);
#499=VERTEX_POINT('',#1107);
#500=VERTEX_POINT('',#1108);
#501=VERTEX_POINT('',#1110);
#502=VERTEX_POINT('',#1124);
#503=VERTEX_POINT('',#1125);
#504=VERTEX_POINT('',#1142);
#505=VERTEX_POINT('',#1144);
#506=VERTEX_POINT('',#1146);
#507=VERTEX_POINT('',#1164);
#508=VERTEX_POINT('',#1166);
#509=VERTEX_POINT('',#1181);
#510=VERTEX_POINT('',#1185);
#511=VERTEX_POINT('',#1195);
#512=VERTEX_POINT('',#1197);
#513=VERTEX_POINT('',#1202);
#514=VERTEX_POINT('',#1205);
#515=VERTEX_POINT('',#1211);
#516=VERTEX_POINT('',#1214);
#517=CIRCLE('',#715,0.00075);
#518=CIRCLE('',#732,0.003);
#519=CIRCLE('',#733,0.003);
#520=CIRCLE('',#735,0.008);
#521=CIRCLE('',#737,0.008);
#522=CIRCLE('',#742,0.003);
#523=CIRCLE('',#743,0.003);
#524=CIRCLE('',#745,0.003);
#525=CIRCLE('',#746,0.003);
#526=CIRCLE('',#754,0.003);
#527=CIRCLE('',#755,0.003);
#528=CIRCLE('',#757,0.003);
#529=CIRCLE('',#758,0.003);
#530=CIRCLE('',#763,0.003775);
#531=CIRCLE('',#764,0.0025);
#532=CIRCLE('',#767,0.0025);
#533=CIRCLE('',#769,0.003775);
#534=CIRCLE('',#771,0.0056);
#535=CIRCLE('',#773,0.0056);
#536=EDGE_LOOP('',(#168));
#537=EDGE_LOOP('',(#169));
#538=EDGE_LOOP('',(#170));
#539=EDGE_LOOP('',(#171,#172,#173,#174));
#540=EDGE_LOOP('',(#175,#176,#177,#178));
#541=EDGE_LOOP('',(#179,#180,#181,#182));
#542=EDGE_LOOP('',(#183,#184,#185,#186));
#543=EDGE_LOOP('',(#187,#188,#189,#190));
#544=EDGE_LOOP('',(#191,#192,#193,#194));
#545=EDGE_LOOP('',(#195));
#546=EDGE_LOOP('',(#196,#197,#198,#199,#200,#201));
#547=EDGE_LOOP('',(#202,#203,#204,#205,#206,#207));
#548=EDGE_LOOP('',(#208,#209,#210,#211));
#549=EDGE_LOOP('',(#212,#213,#214,#215));
#550=EDGE_LOOP('',(#216,#217,#218,#219));
#551=EDGE_LOOP('',(#220,#221,#222,#223));
#552=EDGE_LOOP('',(#224,#225,#226,#227,#228,#229,#230,#231));
#553=EDGE_LOOP('',(#232,#233,#234,#235));
#554=EDGE_LOOP('',(#236,#237,#238,#239));
#555=EDGE_LOOP('',(#240,#241,#242,#243,#244));
#556=EDGE_LOOP('',(#245,#246,#247,#248));
#557=EDGE_LOOP('',(#249,#250,#251,#252,#253));
#558=EDGE_LOOP('',(#254,#255,#256,#257));
#559=EDGE_LOOP('',(#258,#259,#260,#261));
#560=EDGE_LOOP('',(#262,#263,#264,#265));
#561=EDGE_LOOP('',(#266,#267,#268));
#562=EDGE_LOOP('',(#269,#270,#271));
#563=EDGE_LOOP('',(#272,#273,#274,#275));
#564=EDGE_LOOP('',(#276,#277,#278,#279));
#565=EDGE_LOOP('',(#280,#281,#282,#283,#284));
#566=EDGE_LOOP('',(#285));
#567=EDGE_LOOP('',(#286));
#568=EDGE_LOOP('',(#287,#288,#289,#290,#291,#292,#293,#294,#295,#296));
#569=EDGE_LOOP('',(#297,#298,#299,#300,#301));
#570=EDGE_LOOP('',(#302));
#571=EDGE_LOOP('',(#303));
#572=EDGE_LOOP('',(#304));
#573=EDGE_LOOP('',(#305));
#574=EDGE_LOOP('',(#306,#307,#308,#309));
#575=EDGE_LOOP('',(#310,#311,#312,#313,#314,#315,#316,#317,#318,#319,#320,
#321,#322,#323,#324,#325,#326,#327));
#576=EDGE_LOOP('',(#328));
#577=EDGE_LOOP('',(#329));
#578=EDGE_LOOP('',(#330));
#579=EDGE_LOOP('',(#331));
#580=EDGE_LOOP('',(#332));
#581=EDGE_LOOP('',(#333));
#582=EDGE_LOOP('',(#334,#335,#336,#337,#338,#339));
#583=EDGE_LOOP('',(#340,#341,#342,#343));
#584=EDGE_LOOP('',(#344,#345,#346,#347,#348));
#585=EDGE_LOOP('',(#349,#350,#351,#352,#353));
#586=EDGE_LOOP('',(#354,#355,#356,#357));
#587=FACE_BOUND('',#536,.T.);
#588=FACE_BOUND('',#537,.T.);
#589=FACE_BOUND('',#538,.T.);
#590=FACE_BOUND('',#539,.T.);
#591=FACE_BOUND('',#540,.T.);
#592=FACE_BOUND('',#541,.T.);
#593=FACE_BOUND('',#542,.T.);
#594=FACE_BOUND('',#543,.T.);
#595=FACE_BOUND('',#544,.T.);
#596=FACE_BOUND('',#545,.T.);
#597=FACE_BOUND('',#546,.T.);
#598=FACE_BOUND('',#547,.T.);
#599=FACE_BOUND('',#548,.T.);
#600=FACE_BOUND('',#549,.T.);
#601=FACE_BOUND('',#550,.T.);
#602=FACE_BOUND('',#551,.T.);
#603=FACE_BOUND('',#552,.T.);
#604=FACE_BOUND('',#553,.T.);
#605=FACE_BOUND('',#554,.T.);
#606=FACE_BOUND('',#555,.T.);
#607=FACE_BOUND('',#556,.T.);
#608=FACE_BOUND('',#557,.T.);
#609=FACE_BOUND('',#558,.T.);
#610=FACE_BOUND('',#559,.T.);
#611=FACE_BOUND('',#560,.T.);
#612=FACE_BOUND('',#561,.T.);
#613=FACE_BOUND('',#562,.T.);
#614=FACE_BOUND('',#563,.T.);
#615=FACE_BOUND('',#564,.T.);
#616=FACE_BOUND('',#565,.T.);
#617=FACE_BOUND('',#566,.T.);
#618=FACE_BOUND('',#567,.T.);
#619=FACE_BOUND('',#568,.T.);
#620=FACE_BOUND('',#569,.T.);
#621=FACE_BOUND('',#570,.T.);
#622=FACE_BOUND('',#571,.T.);
#623=FACE_BOUND('',#572,.T.);
#624=FACE_BOUND('',#573,.T.);
#625=FACE_BOUND('',#574,.T.);
#626=FACE_BOUND('',#575,.T.);
#627=FACE_BOUND('',#576,.T.);
#628=FACE_BOUND('',#577,.T.);
#629=FACE_BOUND('',#578,.T.);
#630=FACE_BOUND('',#579,.T.);
#631=FACE_BOUND('',#580,.T.);
#632=FACE_BOUND('',#581,.T.);
#633=FACE_BOUND('',#582,.T.);
#634=FACE_BOUND('',#583,.T.);
#635=FACE_BOUND('',#584,.T.);
#636=FACE_BOUND('',#585,.T.);
#637=FACE_BOUND('',#586,.T.);
#638=PLANE('',#714);
#639=PLANE('',#724);
#640=PLANE('',#725);
#641=PLANE('',#729);
#642=PLANE('',#730);
#643=PLANE('',#731);
#644=PLANE('',#738);
#645=PLANE('',#739);
#646=PLANE('',#740);
#647=PLANE('',#747);
#648=PLANE('',#749);
#649=PLANE('',#751);
#650=PLANE('',#752);
#651=PLANE('',#762);
#652=PLANE('',#770);
#653=PLANE('',#774);
#654=PLANE('',#775);
#655=PLANE('',#776);
#656=PLANE('',#777);
#657=PLANE('',#778);
#658=PLANE('',#779);
#659=PLANE('',#780);
#660=ADVANCED_FACE('',(#587),#638,.T.);
#661=ADVANCED_FACE('',(#588,#589),#153,.F.);
#662=ADVANCED_FACE('',(#590),#154,.T.);
#663=ADVANCED_FACE('',(#591),#155,.T.);
#664=ADVANCED_FACE('',(#592),#639,.T.);
#665=ADVANCED_FACE('',(#593),#640,.F.);
#666=ADVANCED_FACE('',(#594),#156,.T.);
#667=ADVANCED_FACE('',(#595,#596),#641,.T.);
#668=ADVANCED_FACE('',(#597),#642,.F.);
#669=ADVANCED_FACE('',(#598),#643,.F.);
#670=ADVANCED_FACE('',(#599),#157,.T.);
#671=ADVANCED_FACE('',(#600),#158,.T.);
#672=ADVANCED_FACE('',(#601),#644,.F.);
#673=ADVANCED_FACE('',(#602),#645,.F.);
#674=ADVANCED_FACE('',(#603),#646,.F.);
#675=ADVANCED_FACE('',(#604),#159,.T.);
#676=ADVANCED_FACE('',(#605),#160,.T.);
#677=ADVANCED_FACE('',(#606),#647,.F.);
#678=ADVANCED_FACE('',(#607),#14,.T.);
#679=ADVANCED_FACE('',(#608),#648,.F.);
#680=ADVANCED_FACE('',(#609),#15,.T.);
#681=ADVANCED_FACE('',(#610),#649,.F.);
#682=ADVANCED_FACE('',(#611),#650,.F.);
#683=ADVANCED_FACE('',(#612),#12,.T.);
#684=ADVANCED_FACE('',(#613),#13,.T.);
#685=ADVANCED_FACE('',(#614),#161,.T.);
#686=ADVANCED_FACE('',(#615),#162,.T.);
#687=ADVANCED_FACE('',(#616),#163,.T.);
#688=ADVANCED_FACE('',(#617,#618,#619),#651,.F.);
#689=ADVANCED_FACE('',(#620),#164,.T.);
#690=ADVANCED_FACE('',(#621,#622),#165,.T.);
#691=ADVANCED_FACE('',(#623,#624),#166,.F.);
#692=ADVANCED_FACE('',(#625,#626,#627),#652,.T.);
#693=ADVANCED_FACE('',(#628,#629),#167,.F.);
#694=ADVANCED_FACE('',(#630,#631),#653,.T.);
#695=ADVANCED_FACE('',(#632),#654,.T.);
#696=ADVANCED_FACE('',(#633),#655,.T.);
#697=ADVANCED_FACE('',(#634),#656,.F.);
#698=ADVANCED_FACE('',(#635),#657,.F.);
#699=ADVANCED_FACE('',(#636),#658,.T.);
#700=ADVANCED_FACE('',(#637),#659,.F.);
#701=CLOSED_SHELL('',(#660,#661,#662,#663,#664,#665,#666,#667,#668,#669,
#670,#671,#672,#673,#674,#675,#676,#677,#678,#679,#680,#681,#682,#683,#684,
#685,#686,#687,#688,#689,#690,#691,#692,#693,#694,#695,#696,#697,#698,#699,
#700));
#702=STYLED_ITEM('',(#703),#710);
#703=PRESENTATION_STYLE_ASSIGNMENT((#704));
#704=SURFACE_STYLE_USAGE(.BOTH.,#705);
#705=SURFACE_SIDE_STYLE('',(#706));
#706=SURFACE_STYLE_FILL_AREA(#707);
#707=FILL_AREA_STYLE('',(#708));
#708=FILL_AREA_STYLE_COLOUR('',#709);
#709=COLOUR_RGB('',0.627450980392157,0.627450980392157,0.627450980392157);
#710=MANIFOLD_SOLID_BREP('Wrist_Roll_05m_Leader_02ba v1',#701);
#711=SHAPE_DEFINITION_REPRESENTATION(#1231,#712);
#712=SHAPE_REPRESENTATION('Wrist_Roll_05m_Leader_02ba v1',(#713),#1226);
#713=AXIS2_PLACEMENT_3D('',#978,#781,#782);
#714=AXIS2_PLACEMENT_3D('',#979,#783,#784);
#715=AXIS2_PLACEMENT_3D('',#980,#785,#786);
#716=AXIS2_PLACEMENT_3D('',#982,#787,#788);
#717=AXIS2_PLACEMENT_3D('',#983,#789,#790);
#718=AXIS2_PLACEMENT_3D('',#985,#791,#792);
#719=AXIS2_PLACEMENT_3D('',#986,#793,#794);
#720=AXIS2_PLACEMENT_3D('',#991,#796,#797);
#721=AXIS2_PLACEMENT_3D('',#994,#799,#800);
#722=AXIS2_PLACEMENT_3D('',#995,#801,#802);
#723=AXIS2_PLACEMENT_3D('',#1000,#804,#805);
#724=AXIS2_PLACEMENT_3D('',#1003,#807,#808);
#725=AXIS2_PLACEMENT_3D('',#1009,#812,#813);
#726=AXIS2_PLACEMENT_3D('',#1015,#817,#818);
#727=AXIS2_PLACEMENT_3D('',#1016,#819,#820);
#728=AXIS2_PLACEMENT_3D('',#1021,#822,#823);
#729=AXIS2_PLACEMENT_3D('',#1024,#825,#826);
#730=AXIS2_PLACEMENT_3D('',#1030,#830,#831);
#731=AXIS2_PLACEMENT_3D('',#1033,#834,#835);
#732=AXIS2_PLACEMENT_3D('',#1037,#837,#838);
#733=AXIS2_PLACEMENT_3D('',#1041,#840,#841);
#734=AXIS2_PLACEMENT_3D('',#1046,#844,#845);
#735=AXIS2_PLACEMENT_3D('',#1047,#846,#847);
#736=AXIS2_PLACEMENT_3D('',#1058,#850,#851);
#737=AXIS2_PLACEMENT_3D('',#1059,#852,#853);
#738=AXIS2_PLACEMENT_3D('',#1070,#856,#857);
#739=AXIS2_PLACEMENT_3D('',#1076,#861,#862);
#740=AXIS2_PLACEMENT_3D('',#1082,#866,#867);
#741=AXIS2_PLACEMENT_3D('',#1099,#876,#877);
#742=AXIS2_PLACEMENT_3D('',#1100,#878,#879);
#743=AXIS2_PLACEMENT_3D('',#1101,#880,#881);
#744=AXIS2_PLACEMENT_3D('',#1102,#882,#883);
#745=AXIS2_PLACEMENT_3D('',#1103,#884,#885);
#746=AXIS2_PLACEMENT_3D('',#1104,#886,#887);
#747=AXIS2_PLACEMENT_3D('',#1105,#888,#889);
#748=AXIS2_PLACEMENT_3D('',#1111,#892,#893);
#749=AXIS2_PLACEMENT_3D('',#1140,#896,#897);
#750=AXIS2_PLACEMENT_3D('',#1141,#898,#899);
#751=AXIS2_PLACEMENT_3D('',#1173,#904,#905);
#752=AXIS2_PLACEMENT_3D('',#1176,#908,#909);
#753=AXIS2_PLACEMENT_3D('',#1179,#912,#913);
#754=AXIS2_PLACEMENT_3D('',#1180,#914,#915);
#755=AXIS2_PLACEMENT_3D('',#1182,#916,#917);
#756=AXIS2_PLACEMENT_3D('',#1183,#918,#919);
#757=AXIS2_PLACEMENT_3D('',#1184,#920,#921);
#758=AXIS2_PLACEMENT_3D('',#1186,#922,#923);
#759=AXIS2_PLACEMENT_3D('',#1187,#924,#925);
#760=AXIS2_PLACEMENT_3D('',#1189,#927,#928);
#761=AXIS2_PLACEMENT_3D('',#1191,#930,#931);
#762=AXIS2_PLACEMENT_3D('',#1193,#933,#934);
#763=AXIS2_PLACEMENT_3D('',#1194,#935,#936);
#764=AXIS2_PLACEMENT_3D('',#1196,#937,#938);
#765=AXIS2_PLACEMENT_3D('',#1199,#940,#941);
#766=AXIS2_PLACEMENT_3D('',#1200,#942,#943);
#767=AXIS2_PLACEMENT_3D('',#1201,#944,#945);
#768=AXIS2_PLACEMENT_3D('',#1203,#946,#947);
#769=AXIS2_PLACEMENT_3D('',#1204,#948,#949);
#770=AXIS2_PLACEMENT_3D('',#1206,#950,#951);
#771=AXIS2_PLACEMENT_3D('',#1210,#955,#956);
#772=AXIS2_PLACEMENT_3D('',#1212,#957,#958);
#773=AXIS2_PLACEMENT_3D('',#1213,#959,#960);
#774=AXIS2_PLACEMENT_3D('',#1215,#961,#962);
#775=AXIS2_PLACEMENT_3D('',#1216,#963,#964);
#776=AXIS2_PLACEMENT_3D('',#1217,#965,#966);
#777=AXIS2_PLACEMENT_3D('',#1219,#968,#969);
#778=AXIS2_PLACEMENT_3D('',#1220,#970,#971);
#779=AXIS2_PLACEMENT_3D('',#1222,#973,#974);
#780=AXIS2_PLACEMENT_3D('',#1224,#976,#977);
#781=DIRECTION('',(0.,0.,1.));
#782=DIRECTION('',(1.,0.,0.));
#783=DIRECTION('',(-1.,0.,3.96508223080413E-16));
#784=DIRECTION('',(0.,1.,0.));
#785=DIRECTION('',(1.,0.,-3.96508223080413E-16));
#786=DIRECTION('',(3.96508223080413E-16,0.,1.));
#787=DIRECTION('',(-1.,0.,3.96508223080413E-16));
#788=DIRECTION('',(3.96508223080413E-16,0.,1.));
#789=DIRECTION('',(0.615031798693878,3.28280030666619E-17,-0.788502306017791));
#790=DIRECTION('',(-0.788502306017791,2.56058423919963E-17,-0.615031798693878));
#791=DIRECTION('',(1.60128320859398E-16,1.,0.));
#792=DIRECTION('',(1.,-1.60128320859398E-16,0.));
#793=DIRECTION('',(1.26896266060241E-16,-0.936329177569046,0.351123441588388));
#794=DIRECTION('',(7.94435700545352E-16,0.351123441588388,0.936329177569046));
#795=DIRECTION('',(-1.60128320859398E-16,-1.,0.));
#796=DIRECTION('',(1.26896266060241E-16,-0.936329177569046,-0.351123441588388));
#797=DIRECTION('',(7.94435700545352E-16,0.351123441588388,-0.936329177569046));
#798=DIRECTION('',(-1.60128320859398E-16,-1.,0.));
#799=DIRECTION('',(-1.60128320859398E-16,-1.,0.));
#800=DIRECTION('',(-1.,1.60128320859398E-16,0.));
#801=DIRECTION('',(1.26896266060241E-16,-0.936329177569046,0.351123441588388));
#802=DIRECTION('',(-7.94435700545352E-16,-0.351123441588388,-0.936329177569046));
#803=DIRECTION('',(-1.60128320859398E-16,-1.,0.));
#804=DIRECTION('',(1.26896266060241E-16,-0.936329177569046,-0.351123441588388));
#805=DIRECTION('',(-7.94435700545352E-16,-0.351123441588388,0.936329177569046));
#806=DIRECTION('',(-1.60128320859398E-16,-1.,0.));
#807=DIRECTION('',(-1.,1.60128320859398E-16,0.));
#808=DIRECTION('',(1.60128320859398E-16,1.,0.));
#809=DIRECTION('',(-5.62248071159215E-17,-0.351123441588388,-0.936329177569046));
#810=DIRECTION('',(1.60128320859398E-16,1.,0.));
#811=DIRECTION('',(5.62248071159215E-17,0.351123441588388,-0.936329177569046));
#812=DIRECTION('',(-1.,1.60128320859398E-16,0.));
#813=DIRECTION('',(1.60128320859398E-16,1.,0.));
#814=DIRECTION('',(5.62248071159215E-17,0.351123441588388,-0.936329177569046));
#815=DIRECTION('',(1.60128320859398E-16,1.,0.));
#816=DIRECTION('',(-5.62248071159215E-17,-0.351123441588388,-0.936329177569046));
#817=DIRECTION('',(-5.33761069531325E-17,1.,0.));
#818=DIRECTION('',(1.,5.33761069531325E-17,0.));
#819=DIRECTION('',(1.26896266060241E-16,-0.936329177569046,0.351123441588388));
#820=DIRECTION('',(1.86374823587966E-16,0.351123441588388,0.936329177569046));
#821=DIRECTION('',(5.33761069531325E-17,-1.,4.85952064760976E-33));
#822=DIRECTION('',(1.26896266060241E-16,-0.936329177569046,-0.351123441588388));
#823=DIRECTION('',(1.86374823587966E-16,0.351123441588388,-0.936329177569046));
#824=DIRECTION('',(5.33761069531325E-17,-1.,0.));
#825=DIRECTION('',(-0.615031798693878,-3.28280030666619E-17,0.788502306017791));
#826=DIRECTION('',(0.788502306017791,0.,0.615031798693878));
#827=DIRECTION('',(-0.768331971459451,-0.224737101651887,-0.599298937738373));
#828=DIRECTION('',(-1.35525271560688E-16,1.,0.));
#829=DIRECTION('',(0.768331971459451,-0.224737101651887,0.599298937738373));
#830=DIRECTION('',(-1.26896266060241E-16,0.936329177569046,0.351123441588388));
#831=DIRECTION('',(0.,0.351123441588388,-0.936329177569046));
#832=DIRECTION('',(1.,1.35525271560688E-16,0.));
#833=DIRECTION('',(1.,1.35525271560688E-16,0.));
#834=DIRECTION('',(-1.,8.67361737988404E-16,0.));
#835=DIRECTION('',(0.,0.,1.));
#836=DIRECTION('',(0.,0.,-1.));
#837=DIRECTION('',(1.,-8.67361737988404E-16,0.));
#838=DIRECTION('',(8.67361737988404E-16,1.,0.));
#839=DIRECTION('',(8.67361737988404E-16,1.,0.));
#840=DIRECTION('',(1.,-8.67361737988404E-16,0.));
#841=DIRECTION('',(8.67361737988404E-16,1.,0.));
#842=DIRECTION('',(0.,0.,-1.));
#843=DIRECTION('',(8.67361737988404E-16,1.,0.));
#844=DIRECTION('',(0.,0.,-1.));
#845=DIRECTION('',(-1.,0.,0.));
#846=DIRECTION('',(0.,0.,1.));
#847=DIRECTION('',(-1.,0.,0.));
#848=DIRECTION('',(0.,0.,-1.));
#849=DIRECTION('',(0.,0.,-1.));
#850=DIRECTION('',(0.,0.,1.));
#851=DIRECTION('',(1.,0.,0.));
#852=DIRECTION('',(0.,0.,1.));
#853=DIRECTION('',(-1.,0.,0.));
#854=DIRECTION('',(0.,0.,1.));
#855=DIRECTION('',(0.,0.,1.));
#856=DIRECTION('',(-5.33761069531325E-17,1.,0.));
#857=DIRECTION('',(0.,0.,-1.));
#858=DIRECTION('',(-1.,-1.66240495614626E-16,0.));
#859=DIRECTION('',(0.,0.,1.));
#860=DIRECTION('',(1.,5.33761069531325E-17,0.));
#861=DIRECTION('',(1.35525271560688E-16,-1.,0.));
#862=DIRECTION('',(-1.,-1.35525271560688E-16,0.));
#863=DIRECTION('',(0.,0.,-1.));
#864=DIRECTION('',(1.,1.35525271560688E-16,0.));
#865=DIRECTION('',(-1.,-1.35525271560688E-16,0.));
#866=DIRECTION('',(-1.,-1.35525271560688E-16,0.));
#867=DIRECTION('',(-1.35525271560688E-16,1.,0.));
#868=DIRECTION('',(0.,0.,1.));
#869=DIRECTION('',(1.35525271560688E-16,-1.,0.));
#870=DIRECTION('',(0.,0.,-1.));
#871=DIRECTION('',(-1.35525271560688E-16,1.,0.));
#872=DIRECTION('',(4.75860997725897E-17,-0.351123441588388,-0.936329177569046));
#873=DIRECTION('',(1.35525271560688E-16,-1.,0.));
#874=DIRECTION('',(-4.75860997725897E-17,0.351123441588388,-0.936329177569046));
#875=DIRECTION('',(-1.35525271560688E-16,1.,0.));
#876=DIRECTION('',(0.,0.,1.));
#877=DIRECTION('',(1.,0.,0.));
#878=DIRECTION('',(0.,0.,1.));
#879=DIRECTION('',(-1.,0.,0.));
#880=DIRECTION('',(0.,0.,1.));
#881=DIRECTION('',(-1.,0.,0.));
#882=DIRECTION('',(0.,0.,-1.));
#883=DIRECTION('',(-1.,0.,0.));
#884=DIRECTION('',(0.,0.,1.));
#885=DIRECTION('',(-1.,0.,0.));
#886=DIRECTION('',(0.,0.,1.));
#887=DIRECTION('',(-1.,0.,0.));
#888=DIRECTION('',(0.567152647695021,0.823612696728582,0.));
#889=DIRECTION('',(0.,0.,-1.));
#890=DIRECTION('',(0.,0.,-1.));
#891=DIRECTION('',(-0.823612696728582,0.567152647695021,0.));
#892=DIRECTION('',(-0.567152647695021,-0.823612696728582,0.));
#893=DIRECTION('',(-0.823612696728582,0.567152647695021,0.));
#894=DIRECTION('',(0.823612696728582,-0.567152647695021,0.));
#895=DIRECTION('',(0.,0.,-1.));
#896=DIRECTION('',(0.567152647695012,-0.823612696728589,0.));
#897=DIRECTION('',(0.,0.,-1.));
#898=DIRECTION('',(-0.567152647695012,0.823612696728589,0.));
#899=DIRECTION('',(0.823612696728588,0.567152647695012,0.));
#900=DIRECTION('',(0.823612696728589,0.567152647695012,0.));
#901=DIRECTION('',(0.,0.,-1.));
#902=DIRECTION('',(-0.823612696728589,-0.567152647695012,0.));
#903=DIRECTION('',(0.,0.,-1.));
#904=DIRECTION('',(1.,0.,-3.96508223080413E-16));
#905=DIRECTION('',(-3.96508223080413E-16,0.,-1.));
#906=DIRECTION('',(0.,1.,0.));
#907=DIRECTION('',(0.,-1.,0.));
#908=DIRECTION('',(-1.60128320859398E-16,-1.,0.));
#909=DIRECTION('',(0.,0.,1.));
#910=DIRECTION('',(1.,0.,0.));
#911=DIRECTION('',(-1.,1.60128320859398E-16,0.));
#912=DIRECTION('',(0.,0.,-1.));
#913=DIRECTION('',(-1.,0.,0.));
#914=DIRECTION('',(-1.,0.,0.));
#915=DIRECTION('',(0.,0.,-1.));
#916=DIRECTION('',(0.,-1.,0.));
#917=DIRECTION('',(0.,0.,-1.));
#918=DIRECTION('',(1.15648231731787E-15,1.15648231731787E-15,-1.));
#919=DIRECTION('',(-1.,0.,-1.15648231731787E-15));
#920=DIRECTION('',(-1.,1.15648231731787E-15,0.));
#921=DIRECTION('',(-1.15648231731787E-15,-1.,0.));
#922=DIRECTION('',(0.,1.,1.15648231731787E-15));
#923=DIRECTION('',(0.,-1.15648231731787E-15,1.));
#924=DIRECTION('',(1.35525271560688E-16,-1.,0.));
#925=DIRECTION('',(-1.,-1.35525271560688E-16,0.));
#926=DIRECTION('',(1.35525271560688E-16,-1.,0.));
#927=DIRECTION('',(1.,1.35525271560688E-16,0.));
#928=DIRECTION('',(1.35525271560688E-16,-1.,0.));
#929=DIRECTION('',(1.,1.35525271560688E-16,0.));
#930=DIRECTION('',(-1.,-5.33761069531325E-17,0.));
#931=DIRECTION('',(5.33761069531325E-17,-1.,-1.22464679914735E-16));
#932=DIRECTION('',(1.,5.33761069531325E-17,0.));
#933=DIRECTION('',(0.,0.,1.));
#934=DIRECTION('',(1.,0.,0.));
#935=DIRECTION('',(0.,0.,-1.));
#936=DIRECTION('',(1.,0.,0.));
#937=DIRECTION('',(0.,0.,-1.));
#938=DIRECTION('',(1.,0.,0.));
#939=DIRECTION('',(1.,-1.18252255457689E-16,0.));
#940=DIRECTION('',(1.,-1.60128320859398E-16,0.));
#941=DIRECTION('',(1.60128320859398E-16,1.,-1.01064309961486E-15));
#942=DIRECTION('',(0.,0.,1.));
#943=DIRECTION('',(1.,0.,0.));
#944=DIRECTION('',(0.,0.,1.));
#945=DIRECTION('',(-1.,0.,0.));
#946=DIRECTION('',(0.,0.,1.));
#947=DIRECTION('',(1.,0.,0.));
#948=DIRECTION('',(0.,0.,-1.));
#949=DIRECTION('',(1.,0.,0.));
#950=DIRECTION('',(0.,0.,1.));
#951=DIRECTION('',(1.,0.,0.));
#952=DIRECTION('',(1.,1.35525271560688E-16,0.));
#953=DIRECTION('',(1.,1.35525271560688E-16,0.));
#954=DIRECTION('',(1.,1.35525271560688E-16,0.));
#955=DIRECTION('',(0.,0.,-1.));
#956=DIRECTION('',(1.,0.,0.));
#957=DIRECTION('',(0.,0.,1.));
#958=DIRECTION('',(1.,0.,0.));
#959=DIRECTION('',(0.,0.,-1.));
#960=DIRECTION('',(1.,0.,0.));
#961=DIRECTION('',(0.,0.,1.));
#962=DIRECTION('',(1.,0.,0.));
#963=DIRECTION('',(0.,0.,-1.));
#964=DIRECTION('',(1.,0.,0.));
#965=DIRECTION('',(-1.26896266060241E-16,0.936329177569046,-0.351123441588388));
#966=DIRECTION('',(0.,-0.351123441588388,-0.936329177569046));
#967=DIRECTION('',(1.,1.35525271560688E-16,0.));
#968=DIRECTION('',(0.,0.,-1.));
#969=DIRECTION('',(-1.,0.,0.));
#970=DIRECTION('',(-1.26896266060241E-16,0.936329177569046,0.351123441588388));
#971=DIRECTION('',(0.,0.351123441588388,-0.936329177569046));
#972=DIRECTION('',(1.,1.35525271560688E-16,0.));
#973=DIRECTION('',(-1.26896266060241E-16,0.936329177569046,-0.351123441588388));
#974=DIRECTION('',(0.,-0.351123441588388,-0.936329177569046));
#975=DIRECTION('',(1.,1.35525271560688E-16,0.));
#976=DIRECTION('',(0.,0.,-1.));
#977=DIRECTION('',(-1.,0.,0.));
#978=CARTESIAN_POINT('',(0.,0.,0.));
#979=CARTESIAN_POINT('',(-0.0252,-0.0804559532725371,0.0240251467732607));
#980=CARTESIAN_POINT('',(-0.0252,-0.08,0.0132));
#981=CARTESIAN_POINT('',(-0.0252,-0.08,0.01395));
#982=CARTESIAN_POINT('',(-0.0252,-0.08,0.0132));
#983=CARTESIAN_POINT('',(-0.0289102687102911,-0.08,0.0132));
#984=CARTESIAN_POINT('',(-0.0298718071718296,-0.08,0.01245));
#985=CARTESIAN_POINT('',(0.0276692184691961,-0.092,0.0144));
#986=CARTESIAN_POINT('',(0.0276692184691961,-0.0743318000468165,0.0144));
#987=CARTESIAN_POINT('',(0.0276692184691961,-0.0741443000468165,0.0149));
#988=CARTESIAN_POINT('',(0.0271692184691961,-0.0743318000468165,0.0144));
#989=CARTESIAN_POINT('',(0.0271692184691961,-0.0858556999531835,0.0144));
#990=CARTESIAN_POINT('',(0.0271692184691961,-0.0856681999531835,0.0144));
#991=CARTESIAN_POINT('',(0.0276692184691961,-0.0856681999531835,0.0144));
#992=CARTESIAN_POINT('',(0.0276692184691961,-0.0858556999531835,0.0149));
#993=CARTESIAN_POINT('',(0.0276692184691961,-0.0741443000468165,0.0149));
#994=CARTESIAN_POINT('',(-0.0155,-0.08,0.0144));
#995=CARTESIAN_POINT('',(-0.0155,-0.0743318000468165,0.0144));
#996=CARTESIAN_POINT('',(-0.015,-0.0743318000468165,0.0144));
#997=CARTESIAN_POINT('',(-0.0155,-0.0741443000468165,0.0149));
#998=CARTESIAN_POINT('',(-0.0155,-0.08,0.0149));
#999=CARTESIAN_POINT('',(-0.0155,-0.0858556999531835,0.0149));
#1000=CARTESIAN_POINT('',(-0.0155,-0.0856681999531835,0.0144));
#1001=CARTESIAN_POINT('',(-0.015,-0.0856681999531835,0.0144));
#1002=CARTESIAN_POINT('',(-0.015,-0.092,0.0144));
#1003=CARTESIAN_POINT('',(0.0271692184691961,-0.092,0.013));
#1004=CARTESIAN_POINT('',(0.0271692184691961,-0.0755880500468165,0.01105));
#1005=CARTESIAN_POINT('',(0.0271692184691961,-0.0756068000468165,0.011));
#1006=CARTESIAN_POINT('',(0.0271692184691961,-0.092,0.011));
#1007=CARTESIAN_POINT('',(0.0271692184691961,-0.0843931999531835,0.011));
#1008=CARTESIAN_POINT('',(0.0271692184691961,-0.0844119499531835,0.01105));
#1009=CARTESIAN_POINT('',(-0.015,-0.092,0.013));
#1010=CARTESIAN_POINT('',(-0.015,-0.0844119499531835,0.01105));
#1011=CARTESIAN_POINT('',(-0.015,-0.0843931999531835,0.011));
#1012=CARTESIAN_POINT('',(-0.015,-0.092,0.011));
#1013=CARTESIAN_POINT('',(-0.015,-0.0756068000468165,0.011));
#1014=CARTESIAN_POINT('',(-0.015,-0.0755880500468165,0.01105));
#1015=CARTESIAN_POINT('',(-0.0256991388038847,-0.0601244499531835,0.0119));
#1016=CARTESIAN_POINT('',(-0.0256991388038847,-0.0752693000468165,0.0119));
#1017=CARTESIAN_POINT('',(-0.0256991388038847,-0.0741443000468165,0.0149));
#1018=CARTESIAN_POINT('',(-0.0275442341999663,-0.0743822349525465,0.0142655069180534));
#1019=CARTESIAN_POINT('',(-0.0275442341999663,-0.0858556999531835,0.0142655069180534));
#1020=CARTESIAN_POINT('',(-0.0275442341999663,-0.0856177650474535,0.0142655069180534));
#1021=CARTESIAN_POINT('',(-0.0256991388038847,-0.0847306999531835,0.0119));
#1022=CARTESIAN_POINT('',(-0.0256991388038847,-0.0858556999531835,0.0149));
#1023=CARTESIAN_POINT('',(-0.0256991388038847,-0.0741443000468165,0.0149));
#1024=CARTESIAN_POINT('',(-0.029230781530804,-0.0601244499531835,0.01295));
#1025=CARTESIAN_POINT('',(-0.0317045208909557,-0.0755991188096609,0.0110204832990817));
#1026=CARTESIAN_POINT('',(-0.0317307815308039,-0.0756068000468165,0.011));
#1027=CARTESIAN_POINT('',(-0.0317307815308039,-0.0645,0.011));
#1028=CARTESIAN_POINT('',(-0.0317307815308039,-0.0843931999531835,0.011));
#1029=CARTESIAN_POINT('',(-0.029230781530804,-0.0851244499531835,0.01295));
#1030=CARTESIAN_POINT('',(-0.0317307815308039,-0.0844119499531835,0.01105));
#1031=CARTESIAN_POINT('',(-0.0317307815308039,-0.0858556999531835,0.0149));
#1032=CARTESIAN_POINT('',(-0.0317307815308039,-0.0843931999531835,0.011));
#1033=CARTESIAN_POINT('',(0.016,-0.056,0.038));
#1034=CARTESIAN_POINT('',(0.016,-0.0605,0.038));
#1035=CARTESIAN_POINT('',(0.016,-0.0605,0.011));
#1036=CARTESIAN_POINT('',(0.016,-0.0605,0.008));
#1037=CARTESIAN_POINT('',(0.016,-0.0635,0.008));
#1038=CARTESIAN_POINT('',(0.016,-0.0635,0.005));
#1039=CARTESIAN_POINT('',(0.016,-0.0564738550558686,0.005));
#1040=CARTESIAN_POINT('',(0.016,-0.059,0.005));
#1041=CARTESIAN_POINT('',(0.016,-0.059,0.008));
#1042=CARTESIAN_POINT('',(0.016,-0.056,0.008));
#1043=CARTESIAN_POINT('',(0.016,-0.056,0.0137515910405927));
#1044=CARTESIAN_POINT('',(0.016,-0.056,0.011));
#1045=CARTESIAN_POINT('',(0.016,-0.056,0.011));
#1046=CARTESIAN_POINT('',(-0.0107097904066303,-0.064,0.011));
#1047=CARTESIAN_POINT('',(-0.0107097904066303,-0.064,0.011));
#1048=CARTESIAN_POINT('',(-0.0107097904066303,-0.056,0.011));
#1049=CARTESIAN_POINT('',(-0.0152470115881904,-0.0574110984261713,0.011));
#1050=CARTESIAN_POINT('',(-0.0107097904066303,-0.056,0.0125561139816909));
#1051=CARTESIAN_POINT('',(-0.0107097904066303,-0.056,0.008));
#1052=CARTESIAN_POINT('',(-0.0152470115881904,-0.0574110984261713,0.00545532088689268));
#1053=CARTESIAN_POINT('',(-0.013819337717171,-0.0564279797598251,0.00606918170265208));
#1054=CARTESIAN_POINT('',(-0.0122564054389375,-0.056,0.00705289630263758));
#1055=CARTESIAN_POINT('',(-0.0107097904066303,-0.056,0.008));
#1056=CARTESIAN_POINT('',(-0.0152470115881904,-0.0574110984261713,0.00545532088689267));
#1057=CARTESIAN_POINT('',(-0.0152470115881904,-0.0574110984261713,0.0272571129030342));
#1058=CARTESIAN_POINT('',(-0.0107136601228342,-0.096,0.011));
#1059=CARTESIAN_POINT('',(-0.0107136601228342,-0.096,0.011));
#1060=CARTESIAN_POINT('',(-0.0152508813043944,-0.102588901573829,0.011));
#1061=CARTESIAN_POINT('',(-0.0107136601228342,-0.104,0.011));
#1062=CARTESIAN_POINT('',(-0.0152508813043944,-0.102588901573829,0.00545532088689266));
#1063=CARTESIAN_POINT('',(-0.0152508813043943,-0.102588901573829,0.00545532088689268));
#1064=CARTESIAN_POINT('',(-0.0152508813043943,-0.102588901573829,0.0054553208868927));
#1065=CARTESIAN_POINT('',(-0.0138232074333748,-0.103572020240175,0.00606918170265211));
#1066=CARTESIAN_POINT('',(-0.0122602751550882,-0.104,0.00705289630255073));
#1067=CARTESIAN_POINT('',(-0.0107136601228342,-0.104,0.008));
#1068=CARTESIAN_POINT('',(-0.0107136601228342,-0.104,0.008));
#1069=CARTESIAN_POINT('',(-0.0107136601228342,-0.104,0.008));
#1070=CARTESIAN_POINT('',(-0.035,-0.104,0.011));
#1071=CARTESIAN_POINT('',(0.016,-0.104,0.008));
#1072=CARTESIAN_POINT('',(0.0301692184691961,-0.104,0.008));
#1073=CARTESIAN_POINT('',(0.0301692184691961,-0.104,0.011));
#1074=CARTESIAN_POINT('',(0.0301692184691961,-0.104,0.011));
#1075=CARTESIAN_POINT('',(-0.035,-0.104,0.011));
#1076=CARTESIAN_POINT('',(0.00513335923459802,-0.0605,0.024475));
#1077=CARTESIAN_POINT('',(0.0301692184691961,-0.0605,0.024475));
#1078=CARTESIAN_POINT('',(0.0301692184691961,-0.0605,0.011));
#1079=CARTESIAN_POINT('',(0.0301692184691961,-0.0605,0.008));
#1080=CARTESIAN_POINT('',(0.00513335923459802,-0.0605,0.008));
#1081=CARTESIAN_POINT('',(0.00513335923459802,-0.0605,0.011));
#1082=CARTESIAN_POINT('',(0.0331692184691961,-0.0645,0.024475));
#1083=CARTESIAN_POINT('',(0.0331692184691961,-0.101,0.024475));
#1084=CARTESIAN_POINT('',(0.0331692184691961,-0.101,0.008));
#1085=CARTESIAN_POINT('',(0.0331692184691961,-0.101,0.011));
#1086=CARTESIAN_POINT('',(0.0331692184691961,-0.0645,0.008));
#1087=CARTESIAN_POINT('',(0.0331692184691961,-0.0635,0.008));
#1088=CARTESIAN_POINT('',(0.0331692184691961,-0.0635,0.024475));
#1089=CARTESIAN_POINT('',(0.0331692184691961,-0.0635,0.011));
#1090=CARTESIAN_POINT('',(0.0331692184691961,-0.0645,0.011));
#1091=CARTESIAN_POINT('',(0.0331692184691961,-0.0756068000468165,0.011));
#1092=CARTESIAN_POINT('',(0.0331692184691961,-0.0755880500468165,0.01105));
#1093=CARTESIAN_POINT('',(0.0331692184691961,-0.0741443000468165,0.0149));
#1094=CARTESIAN_POINT('',(0.0331692184691961,-0.08,0.0149));
#1095=CARTESIAN_POINT('',(0.0331692184691961,-0.0858556999531835,0.0149));
#1096=CARTESIAN_POINT('',(0.0331692184691961,-0.0844119499531835,0.01105));
#1097=CARTESIAN_POINT('',(0.0331692184691961,-0.0843931999531835,0.011));
#1098=CARTESIAN_POINT('',(0.0331692184691961,-0.0645,0.011));
#1099=CARTESIAN_POINT('',(0.0301692184691961,-0.101,0.024475));
#1100=CARTESIAN_POINT('',(0.0301692184691961,-0.101,0.011));
#1101=CARTESIAN_POINT('',(0.0301692184691961,-0.101,0.008));
#1102=CARTESIAN_POINT('',(0.0301692184691961,-0.0635,0.024475));
#1103=CARTESIAN_POINT('',(0.0301692184691961,-0.0635,0.011));
#1104=CARTESIAN_POINT('',(0.0301692184691961,-0.0635,0.008));
#1105=CARTESIAN_POINT('',(-0.0128436552207331,-0.10424655528943,0.137627988879726));
#1106=CARTESIAN_POINT('',(-0.0315417967395561,-0.0913707211607206,0.0366502977089849));
#1107=CARTESIAN_POINT('',(-0.0315417967394683,-0.0913707211607807,0.011));
#1108=CARTESIAN_POINT('',(-0.0315417967395559,-0.0913707211607202,0.005));
#1109=CARTESIAN_POINT('',(-0.0175582663009659,-0.101,0.005));
#1110=CARTESIAN_POINT('',(-0.0175582663009659,-0.101,0.005));
#1111=CARTESIAN_POINT('',(-0.0175582663009659,-0.101,0.008));
#1112=CARTESIAN_POINT('',(-0.0128436552207331,-0.10424655528943,0.011));
#1113=CARTESIAN_POINT('',(-0.0352000000000002,-0.0846007800988142,0.005));
#1114=CARTESIAN_POINT('',(-0.0352000000000002,-0.0846007800988142,0.011));
#1115=CARTESIAN_POINT('',(-0.0351883490772943,-0.0859405442934387,0.005));
#1116=CARTESIAN_POINT('',(-0.0351883490772943,-0.0859405442934387,0.011));
#1117=CARTESIAN_POINT('',(-0.0345606452911288,-0.0885126784766614,0.00500000000000002));
#1118=CARTESIAN_POINT('',(-0.0345606452911288,-0.0885126784766614,0.011));
#1119=CARTESIAN_POINT('',(-0.0328037839624007,-0.0904985867478923,0.00499999999999995));
#1120=CARTESIAN_POINT('',(-0.0328037839624007,-0.0904985867478923,0.0109999999999999));
#1121=CARTESIAN_POINT('',(-0.0315417967397337,-0.0913707211605967,0.005));
#1122=CARTESIAN_POINT('',(-0.0315417967397337,-0.0913707211605967,0.011));
#1123=CARTESIAN_POINT('',(-0.0352,-0.0846007800988348,0.0207673457212634));
#1124=CARTESIAN_POINT('',(-0.0352,-0.0846007800988524,0.011));
#1125=CARTESIAN_POINT('',(-0.0352,-0.0846007800988348,0.005));
#1126=CARTESIAN_POINT('',(-0.0352,-0.0846007800988157,0.005));
#1127=CARTESIAN_POINT('',(-0.035194142272105,-0.0852743725940625,0.005));
#1128=CARTESIAN_POINT('',(-0.0350320801992121,-0.0865966249365426,0.005));
#1129=CARTESIAN_POINT('',(-0.0343120801656374,-0.0884920896617519,0.005));
#1130=CARTESIAN_POINT('',(-0.0331263012540247,-0.0901280058558652,0.005));
#1131=CARTESIAN_POINT('',(-0.0320955483283727,-0.0909880343886018,0.005));
#1132=CARTESIAN_POINT('',(-0.0315417967396883,-0.0913707211606281,0.005));
#1133=CARTESIAN_POINT('',(-0.0352,-0.0846007800988333,0.011));
#1134=CARTESIAN_POINT('',(-0.0351941422721036,-0.0852743725940876,0.011));
#1135=CARTESIAN_POINT('',(-0.0350320801992043,-0.0865966249365825,0.011));
#1136=CARTESIAN_POINT('',(-0.0343120801656092,-0.0884920896618074,0.011));
#1137=CARTESIAN_POINT('',(-0.0331263012539683,-0.0901280058559315,0.011));
#1138=CARTESIAN_POINT('',(-0.0320955483282906,-0.0909880343886586,0.011));
#1139=CARTESIAN_POINT('',(-0.0315417967396008,-0.0913707211606886,0.011));
#1140=CARTESIAN_POINT('',(-0.0128436552207332,-0.055756109457968,0.137627988879726));
#1141=CARTESIAN_POINT('',(-0.017554396584762,-0.059,0.008));
#1142=CARTESIAN_POINT('',(-0.017554396584762,-0.059,0.005));
#1143=CARTESIAN_POINT('',(-0.0315417967395476,-0.0686319435866716,0.005));
#1144=CARTESIAN_POINT('',(-0.0315417967395476,-0.0686319435866717,0.005));
#1145=CARTESIAN_POINT('',(-0.0315417967395475,-0.0686319435866718,0.0366502977089849));
#1146=CARTESIAN_POINT('',(-0.0315417967395475,-0.0686319435866718,0.011));
#1147=CARTESIAN_POINT('',(-0.0128436552207332,-0.055756109457968,0.011));
#1148=CARTESIAN_POINT('',(-0.0315417967397354,-0.0686319435868012,0.005));
#1149=CARTESIAN_POINT('',(-0.0315417967397354,-0.0686319435868012,0.011));
#1150=CARTESIAN_POINT('',(-0.0327761185870936,-0.0694819170110578,0.00499999999999995));
#1151=CARTESIAN_POINT('',(-0.0327761185870936,-0.0694819170110578,0.011));
#1152=CARTESIAN_POINT('',(-0.0345492299702489,-0.0714520761967953,0.00500000000000002));
#1153=CARTESIAN_POINT('',(-0.0345492299702489,-0.0714520761967953,0.011));
#1154=CARTESIAN_POINT('',(-0.0351882902784838,-0.0740533646347366,0.005));
#1155=CARTESIAN_POINT('',(-0.0351882902784838,-0.0740533646347366,0.011));
#1156=CARTESIAN_POINT('',(-0.0352000000000002,-0.0753992199011844,0.005));
#1157=CARTESIAN_POINT('',(-0.0352000000000002,-0.0753992199011844,0.011));
#1158=CARTESIAN_POINT('',(-0.0315417967396415,-0.0686319435867365,0.005));
#1159=CARTESIAN_POINT('',(-0.0320957695402725,-0.0690134179641891,0.005));
#1160=CARTESIAN_POINT('',(-0.0331196372675702,-0.0698657363436057,0.005));
#1161=CARTESIAN_POINT('',(-0.0347098985922231,-0.0720574439284313,0.005));
#1162=CARTESIAN_POINT('',(-0.0351882758626368,-0.0740517077514956,0.005));
#1163=CARTESIAN_POINT('',(-0.0352,-0.0753992199011744,0.005));
#1164=CARTESIAN_POINT('',(-0.0352,-0.0753992199011649,0.005));
#1165=CARTESIAN_POINT('',(-0.0352,-0.0753992199011653,0.0227001597232355));
#1166=CARTESIAN_POINT('',(-0.0352,-0.0753992199011653,0.011));
#1167=CARTESIAN_POINT('',(-0.0315417967396415,-0.0686319435867365,0.011));
#1168=CARTESIAN_POINT('',(-0.0320957695402723,-0.0690134179641894,0.011));
#1169=CARTESIAN_POINT('',(-0.0331196372675704,-0.0698657363436057,0.011));
#1170=CARTESIAN_POINT('',(-0.0347098985922232,-0.0720574439284316,0.011));
#1171=CARTESIAN_POINT('',(-0.0351882758626369,-0.074051707751496,0.011));
#1172=CARTESIAN_POINT('',(-0.0352,-0.0753992199011748,0.011));
#1173=CARTESIAN_POINT('',(-0.0352,-0.096,0.005));
#1174=CARTESIAN_POINT('',(-0.0352,-0.0846007800988348,0.005));
#1175=CARTESIAN_POINT('',(-0.0352,-0.096,0.011));
#1176=CARTESIAN_POINT('',(-0.035,-0.056,0.011));
#1177=CARTESIAN_POINT('',(-0.0107097904066303,-0.056,0.008));
#1178=CARTESIAN_POINT('',(-0.035,-0.056,0.011));
#1179=CARTESIAN_POINT('',(0.0301692184691961,-0.0635,0.008));
#1180=CARTESIAN_POINT('',(0.0301692184691961,-0.0635,0.008));
#1181=CARTESIAN_POINT('',(0.0301692184691961,-0.0635,0.005));
#1182=CARTESIAN_POINT('',(0.0301692184691961,-0.0635,0.008));
#1183=CARTESIAN_POINT('',(0.0301692184691961,-0.101,0.008));
#1184=CARTESIAN_POINT('',(0.0301692184691961,-0.101,0.008));
#1185=CARTESIAN_POINT('',(0.0301692184691961,-0.101,0.005));
#1186=CARTESIAN_POINT('',(0.0301692184691961,-0.101,0.008));
#1187=CARTESIAN_POINT('',(0.0301692184691961,-0.0645,0.008));
#1188=CARTESIAN_POINT('',(0.0301692184691961,-0.08,0.005));
#1189=CARTESIAN_POINT('',(0.00513335923459802,-0.0635,0.008));
#1190=CARTESIAN_POINT('',(-2.23616698075135E-18,-0.0635,0.005));
#1191=CARTESIAN_POINT('',(-0.035,-0.101,0.008));
#1192=CARTESIAN_POINT('',(1.12089824601578E-18,-0.101,0.005));
#1193=CARTESIAN_POINT('',(0.,-0.08,0.005));
#1194=CARTESIAN_POINT('',(0.,-0.08,0.005));
#1195=CARTESIAN_POINT('',(0.003775,-0.08,0.005));
#1196=CARTESIAN_POINT('',(-0.007,-0.0678756443470179,0.005));
#1197=CARTESIAN_POINT('',(-0.0045,-0.0678756443470179,0.005));
#1198=CARTESIAN_POINT('',(-0.017554396584762,-0.059,0.005));
#1199=CARTESIAN_POINT('',(-0.035,-0.059,0.008));
#1200=CARTESIAN_POINT('',(-0.007,-0.0678756443470179,0.));
#1201=CARTESIAN_POINT('',(-0.007,-0.0678756443470179,0.));
#1202=CARTESIAN_POINT('',(-0.0095,-0.0678756443470179,0.));
#1203=CARTESIAN_POINT('',(0.,-0.08,-0.014));
#1204=CARTESIAN_POINT('',(0.,-0.08,0.007));
#1205=CARTESIAN_POINT('',(0.003775,-0.08,0.007));
#1206=CARTESIAN_POINT('',(0.,-0.08,0.011));
#1207=CARTESIAN_POINT('',(-0.0317307815308039,-0.0756068000468165,0.011));
#1208=CARTESIAN_POINT('',(-0.0317307815308039,-0.0756068000468165,0.011));
#1209=CARTESIAN_POINT('',(-0.0317307815308039,-0.0843931999531835,0.011));
#1210=CARTESIAN_POINT('',(0.,-0.08,0.011));
#1211=CARTESIAN_POINT('',(0.0056,-0.08,0.011));
#1212=CARTESIAN_POINT('',(0.,-0.08,0.007));
#1213=CARTESIAN_POINT('',(0.,-0.08,0.007));
#1214=CARTESIAN_POINT('',(0.0056,-0.08,0.007));
#1215=CARTESIAN_POINT('',(0.00338570680469274,-0.0800023143365979,0.007));
#1216=CARTESIAN_POINT('',(-0.00409875,-0.08,0.));
#1217=CARTESIAN_POINT('',(-0.0317307815308039,-0.0755880500468165,0.01105));
#1218=CARTESIAN_POINT('',(-0.0317307815308039,-0.0741443000468165,0.0149));
#1219=CARTESIAN_POINT('',(-0.0317307815308039,-0.08,0.0149));
#1220=CARTESIAN_POINT('',(-0.0317307815308039,-0.0844119499531835,0.01105));
#1221=CARTESIAN_POINT('',(-0.0317307815308039,-0.0858556999531835,0.0149));
#1222=CARTESIAN_POINT('',(-0.0317307815308039,-0.0755880500468165,0.01105));
#1223=CARTESIAN_POINT('',(-0.0317307815308039,-0.0741443000468165,0.0149));
#1224=CARTESIAN_POINT('',(-0.0317307815308039,-0.08,0.0149));
#1225=MECHANICAL_DESIGN_GEOMETRIC_PRESENTATION_REPRESENTATION('',(#702),
#1226);
#1226=(
GEOMETRIC_REPRESENTATION_CONTEXT(3)
GLOBAL_UNCERTAINTY_ASSIGNED_CONTEXT((#1227))
GLOBAL_UNIT_ASSIGNED_CONTEXT((#1230,#1229,#1228))
REPRESENTATION_CONTEXT('Wrist_Roll_05m_Leader_02ba v1',
'TOP_LEVEL_ASSEMBLY_PART')
);
#1227=UNCERTAINTY_MEASURE_WITH_UNIT(LENGTH_MEASURE(2.E-5),#1230,
'DISTANCE_ACCURACY_VALUE','Maximum Tolerance applied to model');
#1228=(
NAMED_UNIT(*)
SI_UNIT($,.STERADIAN.)
SOLID_ANGLE_UNIT()
);
#1229=(
NAMED_UNIT(*)
PLANE_ANGLE_UNIT()
SI_UNIT($,.RADIAN.)
);
#1230=(
LENGTH_UNIT()
NAMED_UNIT(*)
SI_UNIT($,.METRE.)
);
#1231=PRODUCT_DEFINITION_SHAPE('','',#1232);
#1232=PRODUCT_DEFINITION('','',#1234,#1233);
#1233=PRODUCT_DEFINITION_CONTEXT('',#1240,'design');
#1234=PRODUCT_DEFINITION_FORMATION_WITH_SPECIFIED_SOURCE('','',#1236,
 .NOT_KNOWN.);
#1235=PRODUCT_RELATED_PRODUCT_CATEGORY('','',(#1236));
#1236=PRODUCT('Wrist_Roll_05m_Leader_02ba v1',
'Wrist_Roll_05m_Leader_02ba v1','Wrist_Roll_05m_Leader_02ba v1',(#1238));
#1237=PRODUCT_CATEGORY('','');
#1238=PRODUCT_CONTEXT('',#1240,'mechanical');
#1239=APPLICATION_PROTOCOL_DEFINITION('international standard',
'ap242_managed_model_based_3d_engineering',2011,#1240);
#1240=APPLICATION_CONTEXT('managed model based 3d engineering');
ENDSEC;
END-ISO-10303-21;
