ISO-10303-21;
HEADER;
/* Generated by software containing ST-Developer
 * from STEP Tools, Inc. (www.steptools.com) 
 */
/* OPTION: using custom renumber hook */

FILE_DESCRIPTION(
/* description */ ('STEP AP242',
'CAx-IF Rec.Pracs.---Representation and Presentation of Product Manufa
cturing Information (PMI)---4.0---2014-10-13',
'CAx-IF Rec.Pracs.---3D Tessellated Geometry---0.4---2014-09-14','2;1'),

/* implementation_level */ '2;1');

FILE_NAME(
/* name */ '68418d64c0c7f43cd240044f',
/* time_stamp */ '2025-06-05T12:28:21Z',
/* author */ (''),
/* organization */ (''),
/* preprocessor_version */ 'ST-DEVELOPER v20',
/* originating_system */ 'ONSHAPE BY PTC INC, 1.198',
/* authorisation */ '  ');

FILE_SCHEMA (('AP242_MANAGED_MODEL_BASED_3D_ENGINEERING_MIM_LF { 1 0 10303 442 1 1 4 }'));
ENDSEC;

DATA;
#10=SHAPE_REPRESENTATION_RELATIONSHIP('','',#792,#11);
#11=ADVANCED_BREP_SHAPE_REPRESENTATION('',(#790),#1340);
#12=SPHERICAL_SURFACE('',#834,0.003);
#13=SPHERICAL_SURFACE('',#837,0.003);
#14=B_SPLINE_SURFACE_WITH_KNOTS('',3,1,((#1227,#1228),(#1229,#1230),(#1231,
#1232),(#1233,#1234),(#1235,#1236)),.SURF_OF_LINEAR_EXTRUSION.,.F.,.F.,
 .F.,(4,1,4),(2,2),(-8.85397493655413,-8.05204717058848,-7.25011940462283),
(0.,1.),.UNSPECIFIED.);
#15=B_SPLINE_SURFACE_WITH_KNOTS('',3,1,((#1253,#1254),(#1255,#1256),(#1257,
#1258),(#1259,#1260),(#1261,#1262)),.SURF_OF_LINEAR_EXTRUSION.,.F.,.F.,
 .F.,(4,1,4),(2,2),(-0.614552097103649,0.192723951450096,1.00000000000384),
(0.,1.),.UNSPECIFIED.);
#16=ELLIPSE('',#798,0.00121944914326828,0.00075);
#17=ELLIPSE('',#800,0.000534000234082345,0.0005);
#18=ELLIPSE('',#801,0.000534000234082345,0.0005);
#19=ELLIPSE('',#803,0.000534000234082345,0.0005);
#20=ELLIPSE('',#804,0.000534000234082345,0.0005);
#21=ELLIPSE('',#808,0.00320400140449407,0.003);
#22=ELLIPSE('',#809,0.00320400140449407,0.003);
#23=ELLIPSE('',#829,0.00528958123036607,0.003);
#24=ELLIPSE('',#831,0.00528958123036615,0.003);
#25=CYLINDRICAL_SURFACE('',#797,0.00075);
#26=CYLINDRICAL_SURFACE('',#799,0.0005);
#27=CYLINDRICAL_SURFACE('',#802,0.0005);
#28=CYLINDRICAL_SURFACE('',#807,0.003);
#29=CYLINDRICAL_SURFACE('',#815,0.008);
#30=CYLINDRICAL_SURFACE('',#817,0.008);
#31=CYLINDRICAL_SURFACE('',#822,0.003);
#32=CYLINDRICAL_SURFACE('',#825,0.003);
#33=CYLINDRICAL_SURFACE('',#840,0.003);
#34=CYLINDRICAL_SURFACE('',#841,0.003);
#35=CYLINDRICAL_SURFACE('',#842,0.003);
#36=CYLINDRICAL_SURFACE('',#844,0.003);
#37=CIRCLE('',#796,0.00075);
#38=CIRCLE('',#813,0.003);
#39=CIRCLE('',#814,0.003);
#40=CIRCLE('',#816,0.008);
#41=CIRCLE('',#818,0.008);
#42=CIRCLE('',#823,0.003);
#43=CIRCLE('',#824,0.003);
#44=CIRCLE('',#826,0.003);
#45=CIRCLE('',#827,0.003);
#46=CIRCLE('',#835,0.003);
#47=CIRCLE('',#836,0.003);
#48=CIRCLE('',#838,0.003);
#49=CIRCLE('',#839,0.003);
#50=B_SPLINE_CURVE_WITH_KNOTS('',3,(#1076,#1077,#1078,#1079,#1080,#1081),
 .UNSPECIFIED.,.F.,.F.,(4,1,1,4),(0.,0.00199472090848964,0.00398944181697927,
0.00797888363395854),.UNSPECIFIED.);
#51=B_SPLINE_CURVE_WITH_KNOTS('',3,(#1085,#1086,#1087,#1088,#1089,#1090,
#1091),.UNSPECIFIED.,.F.,.F.,(4,1,1,1,4),(1.88134695047859E-14,0.00199443802007995,
0.00398887604014108,0.00598331406020221,0.00797775208026334),
 .UNSPECIFIED.);
#52=B_SPLINE_CURVE_WITH_KNOTS('',3,(#1167,#1168,#1169,#1170),
 .UNSPECIFIED.,.F.,.F.,(4,4),(3.87895961444886E-18,0.00544069771944352),
 .UNSPECIFIED.);
#53=B_SPLINE_CURVE_WITH_KNOTS('',3,(#1179,#1180,#1181,#1182),
 .UNSPECIFIED.,.F.,.F.,(4,4),(1.01150891392796E-17,0.00544069771944346),
 .UNSPECIFIED.);
#54=B_SPLINE_CURVE_WITH_KNOTS('',3,(#1239,#1240,#1241,#1242,#1243,#1244,
#1245),.UNSPECIFIED.,.F.,.F.,(4,1,1,1,4),(1.88134695047859E-14,0.0019944380201023,
0.00398887604018579,0.00598331406026928,0.00797775208035277),
 .UNSPECIFIED.);
#55=B_SPLINE_CURVE_WITH_KNOTS('',3,(#1263,#1264,#1265,#1266,#1267,#1268),
 .UNSPECIFIED.,.F.,.F.,(4,1,1,4),(0.,0.00199472090848976,0.00398944181697952,
0.00797888363395903),.UNSPECIFIED.);
#56=ORIENTED_EDGE('',*,*,#274,.T.);
#57=ORIENTED_EDGE('',*,*,#275,.F.);
#58=ORIENTED_EDGE('',*,*,#276,.T.);
#59=ORIENTED_EDGE('',*,*,#277,.F.);
#60=ORIENTED_EDGE('',*,*,#278,.T.);
#61=ORIENTED_EDGE('',*,*,#279,.F.);
#62=ORIENTED_EDGE('',*,*,#280,.T.);
#63=ORIENTED_EDGE('',*,*,#280,.F.);
#64=ORIENTED_EDGE('',*,*,#281,.T.);
#65=ORIENTED_EDGE('',*,*,#282,.F.);
#66=ORIENTED_EDGE('',*,*,#283,.T.);
#67=ORIENTED_EDGE('',*,*,#284,.T.);
#68=ORIENTED_EDGE('',*,*,#285,.F.);
#69=ORIENTED_EDGE('',*,*,#286,.F.);
#70=ORIENTED_EDGE('',*,*,#287,.T.);
#71=ORIENTED_EDGE('',*,*,#288,.T.);
#72=ORIENTED_EDGE('',*,*,#289,.F.);
#73=ORIENTED_EDGE('',*,*,#290,.F.);
#74=ORIENTED_EDGE('',*,*,#285,.T.);
#75=ORIENTED_EDGE('',*,*,#291,.T.);
#76=ORIENTED_EDGE('',*,*,#292,.T.);
#77=ORIENTED_EDGE('',*,*,#293,.F.);
#78=ORIENTED_EDGE('',*,*,#287,.F.);
#79=ORIENTED_EDGE('',*,*,#294,.T.);
#80=ORIENTED_EDGE('',*,*,#295,.F.);
#81=ORIENTED_EDGE('',*,*,#296,.F.);
#82=ORIENTED_EDGE('',*,*,#297,.T.);
#83=ORIENTED_EDGE('',*,*,#298,.T.);
#84=ORIENTED_EDGE('',*,*,#299,.F.);
#85=ORIENTED_EDGE('',*,*,#300,.F.);
#86=ORIENTED_EDGE('',*,*,#299,.T.);
#87=ORIENTED_EDGE('',*,*,#301,.F.);
#88=ORIENTED_EDGE('',*,*,#302,.T.);
#89=ORIENTED_EDGE('',*,*,#281,.F.);
#90=ORIENTED_EDGE('',*,*,#303,.T.);
#91=ORIENTED_EDGE('',*,*,#288,.F.);
#92=ORIENTED_EDGE('',*,*,#293,.T.);
#93=ORIENTED_EDGE('',*,*,#304,.F.);
#94=ORIENTED_EDGE('',*,*,#301,.T.);
#95=ORIENTED_EDGE('',*,*,#298,.F.);
#96=ORIENTED_EDGE('',*,*,#305,.F.);
#97=ORIENTED_EDGE('',*,*,#306,.T.);
#98=ORIENTED_EDGE('',*,*,#307,.T.);
#99=ORIENTED_EDGE('',*,*,#308,.F.);
#100=ORIENTED_EDGE('',*,*,#309,.F.);
#101=ORIENTED_EDGE('',*,*,#310,.T.);
#102=ORIENTED_EDGE('',*,*,#311,.T.);
#103=ORIENTED_EDGE('',*,*,#312,.T.);
#104=ORIENTED_EDGE('',*,*,#313,.T.);
#105=ORIENTED_EDGE('',*,*,#314,.F.);
#106=ORIENTED_EDGE('',*,*,#315,.T.);
#107=ORIENTED_EDGE('',*,*,#316,.F.);
#108=ORIENTED_EDGE('',*,*,#317,.F.);
#109=ORIENTED_EDGE('',*,*,#318,.T.);
#110=ORIENTED_EDGE('',*,*,#316,.T.);
#111=ORIENTED_EDGE('',*,*,#319,.T.);
#112=ORIENTED_EDGE('',*,*,#320,.F.);
#113=ORIENTED_EDGE('',*,*,#321,.T.);
#114=ORIENTED_EDGE('',*,*,#322,.F.);
#115=ORIENTED_EDGE('',*,*,#323,.T.);
#116=ORIENTED_EDGE('',*,*,#305,.T.);
#117=ORIENTED_EDGE('',*,*,#324,.T.);
#118=ORIENTED_EDGE('',*,*,#325,.T.);
#119=ORIENTED_EDGE('',*,*,#326,.T.);
#120=ORIENTED_EDGE('',*,*,#327,.F.);
#121=ORIENTED_EDGE('',*,*,#328,.F.);
#122=ORIENTED_EDGE('',*,*,#329,.T.);
#123=ORIENTED_EDGE('',*,*,#330,.T.);
#124=ORIENTED_EDGE('',*,*,#331,.T.);
#125=ORIENTED_EDGE('',*,*,#332,.T.);
#126=ORIENTED_EDGE('',*,*,#333,.T.);
#127=ORIENTED_EDGE('',*,*,#325,.F.);
#128=ORIENTED_EDGE('',*,*,#334,.F.);
#129=ORIENTED_EDGE('',*,*,#320,.T.);
#130=ORIENTED_EDGE('',*,*,#335,.T.);
#131=ORIENTED_EDGE('',*,*,#322,.T.);
#132=ORIENTED_EDGE('',*,*,#336,.F.);
#133=ORIENTED_EDGE('',*,*,#331,.F.);
#134=ORIENTED_EDGE('',*,*,#337,.F.);
#135=ORIENTED_EDGE('',*,*,#338,.T.);
#136=ORIENTED_EDGE('',*,*,#318,.F.);
#137=ORIENTED_EDGE('',*,*,#339,.F.);
#138=ORIENTED_EDGE('',*,*,#340,.T.);
#139=ORIENTED_EDGE('',*,*,#279,.T.);
#140=ORIENTED_EDGE('',*,*,#341,.F.);
#141=ORIENTED_EDGE('',*,*,#342,.T.);
#142=ORIENTED_EDGE('',*,*,#337,.T.);
#143=ORIENTED_EDGE('',*,*,#278,.F.);
#144=ORIENTED_EDGE('',*,*,#312,.F.);
#145=ORIENTED_EDGE('',*,*,#343,.T.);
#146=ORIENTED_EDGE('',*,*,#344,.T.);
#147=ORIENTED_EDGE('',*,*,#275,.T.);
#148=ORIENTED_EDGE('',*,*,#345,.T.);
#149=ORIENTED_EDGE('',*,*,#346,.F.);
#150=ORIENTED_EDGE('',*,*,#344,.F.);
#151=ORIENTED_EDGE('',*,*,#347,.T.);
#152=ORIENTED_EDGE('',*,*,#348,.T.);
#153=ORIENTED_EDGE('',*,*,#276,.F.);
#154=ORIENTED_EDGE('',*,*,#348,.F.);
#155=ORIENTED_EDGE('',*,*,#349,.T.);
#156=ORIENTED_EDGE('',*,*,#341,.T.);
#157=ORIENTED_EDGE('',*,*,#277,.T.);
#158=ORIENTED_EDGE('',*,*,#307,.F.);
#159=ORIENTED_EDGE('',*,*,#350,.T.);
#160=ORIENTED_EDGE('',*,*,#314,.T.);
#161=ORIENTED_EDGE('',*,*,#351,.T.);
#162=ORIENTED_EDGE('',*,*,#352,.T.);
#163=ORIENTED_EDGE('',*,*,#353,.T.);
#164=ORIENTED_EDGE('',*,*,#336,.T.);
#165=ORIENTED_EDGE('',*,*,#334,.T.);
#166=ORIENTED_EDGE('',*,*,#354,.T.);
#167=ORIENTED_EDGE('',*,*,#355,.T.);
#168=ORIENTED_EDGE('',*,*,#354,.F.);
#169=ORIENTED_EDGE('',*,*,#332,.F.);
#170=ORIENTED_EDGE('',*,*,#353,.F.);
#171=ORIENTED_EDGE('',*,*,#356,.T.);
#172=ORIENTED_EDGE('',*,*,#310,.F.);
#173=ORIENTED_EDGE('',*,*,#357,.T.);
#174=ORIENTED_EDGE('',*,*,#358,.T.);
#175=ORIENTED_EDGE('',*,*,#352,.F.);
#176=ORIENTED_EDGE('',*,*,#324,.F.);
#177=ORIENTED_EDGE('',*,*,#321,.F.);
#178=ORIENTED_EDGE('',*,*,#355,.F.);
#179=ORIENTED_EDGE('',*,*,#359,.F.);
#180=ORIENTED_EDGE('',*,*,#360,.F.);
#181=ORIENTED_EDGE('',*,*,#339,.T.);
#182=ORIENTED_EDGE('',*,*,#317,.T.);
#183=ORIENTED_EDGE('',*,*,#359,.T.);
#184=ORIENTED_EDGE('',*,*,#356,.F.);
#185=ORIENTED_EDGE('',*,*,#358,.F.);
#186=ORIENTED_EDGE('',*,*,#361,.F.);
#187=ORIENTED_EDGE('',*,*,#308,.T.);
#188=ORIENTED_EDGE('',*,*,#351,.F.);
#189=ORIENTED_EDGE('',*,*,#313,.F.);
#190=ORIENTED_EDGE('',*,*,#346,.T.);
#191=ORIENTED_EDGE('',*,*,#362,.T.);
#192=ORIENTED_EDGE('',*,*,#304,.T.);
#193=ORIENTED_EDGE('',*,*,#295,.T.);
#194=ORIENTED_EDGE('',*,*,#363,.F.);
#195=ORIENTED_EDGE('',*,*,#302,.F.);
#196=ORIENTED_EDGE('',*,*,#292,.F.);
#197=ORIENTED_EDGE('',*,*,#364,.T.);
#198=ORIENTED_EDGE('',*,*,#326,.F.);
#199=ORIENTED_EDGE('',*,*,#333,.F.);
#200=ORIENTED_EDGE('',*,*,#319,.F.);
#201=ORIENTED_EDGE('',*,*,#315,.F.);
#202=ORIENTED_EDGE('',*,*,#338,.F.);
#203=ORIENTED_EDGE('',*,*,#342,.F.);
#204=ORIENTED_EDGE('',*,*,#349,.F.);
#205=ORIENTED_EDGE('',*,*,#347,.F.);
#206=ORIENTED_EDGE('',*,*,#343,.F.);
#207=ORIENTED_EDGE('',*,*,#311,.F.);
#208=ORIENTED_EDGE('',*,*,#350,.F.);
#209=ORIENTED_EDGE('',*,*,#306,.F.);
#210=ORIENTED_EDGE('',*,*,#323,.F.);
#211=ORIENTED_EDGE('',*,*,#335,.F.);
#212=ORIENTED_EDGE('',*,*,#330,.F.);
#213=ORIENTED_EDGE('',*,*,#365,.F.);
#214=ORIENTED_EDGE('',*,*,#294,.F.);
#215=ORIENTED_EDGE('',*,*,#286,.T.);
#216=ORIENTED_EDGE('',*,*,#366,.F.);
#217=ORIENTED_EDGE('',*,*,#296,.T.);
#218=ORIENTED_EDGE('',*,*,#300,.T.);
#219=ORIENTED_EDGE('',*,*,#363,.T.);
#220=ORIENTED_EDGE('',*,*,#366,.T.);
#221=ORIENTED_EDGE('',*,*,#289,.T.);
#222=ORIENTED_EDGE('',*,*,#303,.F.);
#223=ORIENTED_EDGE('',*,*,#297,.F.);
#224=ORIENTED_EDGE('',*,*,#291,.F.);
#225=ORIENTED_EDGE('',*,*,#284,.F.);
#226=ORIENTED_EDGE('',*,*,#367,.T.);
#227=ORIENTED_EDGE('',*,*,#327,.T.);
#228=ORIENTED_EDGE('',*,*,#364,.F.);
#229=ORIENTED_EDGE('',*,*,#368,.F.);
#230=ORIENTED_EDGE('',*,*,#282,.T.);
#231=ORIENTED_EDGE('',*,*,#290,.T.);
#232=ORIENTED_EDGE('',*,*,#365,.T.);
#233=ORIENTED_EDGE('',*,*,#329,.F.);
#234=ORIENTED_EDGE('',*,*,#367,.F.);
#235=ORIENTED_EDGE('',*,*,#283,.F.);
#236=ORIENTED_EDGE('',*,*,#368,.T.);
#237=ORIENTED_EDGE('',*,*,#328,.T.);
#238=ORIENTED_EDGE('',*,*,#309,.T.);
#239=ORIENTED_EDGE('',*,*,#362,.F.);
#240=ORIENTED_EDGE('',*,*,#345,.F.);
#241=ORIENTED_EDGE('',*,*,#369,.T.);
#242=ORIENTED_EDGE('',*,*,#370,.T.);
#243=ORIENTED_EDGE('',*,*,#371,.F.);
#244=ORIENTED_EDGE('',*,*,#357,.F.);
#245=ORIENTED_EDGE('',*,*,#372,.T.);
#246=ORIENTED_EDGE('',*,*,#361,.T.);
#247=ORIENTED_EDGE('',*,*,#371,.T.);
#248=ORIENTED_EDGE('',*,*,#373,.F.);
#249=ORIENTED_EDGE('',*,*,#374,.F.);
#250=ORIENTED_EDGE('',*,*,#375,.T.);
#251=ORIENTED_EDGE('',*,*,#376,.T.);
#252=ORIENTED_EDGE('',*,*,#375,.F.);
#253=ORIENTED_EDGE('',*,*,#377,.F.);
#254=ORIENTED_EDGE('',*,*,#378,.T.);
#255=ORIENTED_EDGE('',*,*,#379,.F.);
#256=ORIENTED_EDGE('',*,*,#378,.F.);
#257=ORIENTED_EDGE('',*,*,#380,.T.);
#258=ORIENTED_EDGE('',*,*,#381,.T.);
#259=ORIENTED_EDGE('',*,*,#369,.F.);
#260=ORIENTED_EDGE('',*,*,#274,.F.);
#261=ORIENTED_EDGE('',*,*,#370,.F.);
#262=ORIENTED_EDGE('',*,*,#381,.F.);
#263=ORIENTED_EDGE('',*,*,#382,.T.);
#264=ORIENTED_EDGE('',*,*,#373,.T.);
#265=ORIENTED_EDGE('',*,*,#374,.T.);
#266=ORIENTED_EDGE('',*,*,#382,.F.);
#267=ORIENTED_EDGE('',*,*,#380,.F.);
#268=ORIENTED_EDGE('',*,*,#377,.T.);
#269=ORIENTED_EDGE('',*,*,#360,.T.);
#270=ORIENTED_EDGE('',*,*,#372,.F.);
#271=ORIENTED_EDGE('',*,*,#376,.F.);
#272=ORIENTED_EDGE('',*,*,#379,.T.);
#273=ORIENTED_EDGE('',*,*,#340,.F.);
#274=EDGE_CURVE('',#383,#384,#453,.T.);
#275=EDGE_CURVE('',#385,#384,#454,.T.);
#276=EDGE_CURVE('',#385,#386,#50,.T.);
#277=EDGE_CURVE('',#387,#386,#455,.T.);
#278=EDGE_CURVE('',#387,#388,#51,.T.);
#279=EDGE_CURVE('',#383,#388,#456,.T.);
#280=EDGE_CURVE('',#389,#389,#37,.T.);
#281=EDGE_CURVE('',#390,#390,#16,.T.);
#282=EDGE_CURVE('',#391,#392,#17,.T.);
#283=EDGE_CURVE('',#391,#393,#457,.T.);
#284=EDGE_CURVE('',#393,#394,#18,.T.);
#285=EDGE_CURVE('',#392,#394,#458,.T.);
#286=EDGE_CURVE('',#395,#396,#19,.T.);
#287=EDGE_CURVE('',#395,#397,#459,.T.);
#288=EDGE_CURVE('',#397,#398,#20,.T.);
#289=EDGE_CURVE('',#396,#398,#460,.T.);
#290=EDGE_CURVE('',#392,#399,#461,.T.);
#291=EDGE_CURVE('',#394,#400,#462,.T.);
#292=EDGE_CURVE('',#400,#399,#463,.T.);
#293=EDGE_CURVE('',#397,#401,#464,.T.);
#294=EDGE_CURVE('',#395,#402,#465,.T.);
#295=EDGE_CURVE('',#401,#402,#466,.T.);
#296=EDGE_CURVE('',#403,#404,#21,.T.);
#297=EDGE_CURVE('',#403,#405,#467,.T.);
#298=EDGE_CURVE('',#405,#406,#22,.T.);
#299=EDGE_CURVE('',#404,#406,#468,.T.);
#300=EDGE_CURVE('',#404,#407,#469,.T.);
#301=EDGE_CURVE('',#408,#406,#470,.T.);
#302=EDGE_CURVE('',#408,#407,#471,.T.);
#303=EDGE_CURVE('',#405,#398,#472,.T.);
#304=EDGE_CURVE('',#408,#401,#473,.T.);
#305=EDGE_CURVE('',#409,#410,#474,.T.);
#306=EDGE_CURVE('',#409,#411,#475,.T.);
#307=EDGE_CURVE('',#411,#412,#476,.T.);
#308=EDGE_CURVE('',#413,#412,#38,.T.);
#309=EDGE_CURVE('',#414,#413,#477,.T.);
#310=EDGE_CURVE('',#414,#410,#39,.T.);
#311=EDGE_CURVE('',#415,#416,#40,.T.);
#312=EDGE_CURVE('',#416,#417,#478,.T.);
#313=EDGE_CURVE('',#417,#418,#52,.T.);
#314=EDGE_CURVE('',#415,#418,#479,.T.);
#315=EDGE_CURVE('',#419,#420,#41,.T.);
#316=EDGE_CURVE('',#421,#420,#480,.T.);
#317=EDGE_CURVE('',#422,#421,#53,.T.);
#318=EDGE_CURVE('',#422,#419,#481,.T.);
#319=EDGE_CURVE('',#420,#423,#482,.T.);
#320=EDGE_CURVE('',#424,#423,#483,.T.);
#321=EDGE_CURVE('',#424,#421,#484,.T.);
#322=EDGE_CURVE('',#425,#426,#485,.T.);
#323=EDGE_CURVE('',#425,#409,#486,.T.);
#324=EDGE_CURVE('',#410,#426,#487,.T.);
#325=EDGE_CURVE('',#427,#428,#488,.T.);
#326=EDGE_CURVE('',#428,#429,#489,.T.);
#327=EDGE_CURVE('',#430,#429,#490,.T.);
#328=EDGE_CURVE('',#431,#430,#491,.T.);
#329=EDGE_CURVE('',#431,#432,#492,.T.);
#330=EDGE_CURVE('',#432,#433,#493,.T.);
#331=EDGE_CURVE('',#433,#434,#494,.T.);
#332=EDGE_CURVE('',#434,#427,#495,.T.);
#333=EDGE_CURVE('',#423,#428,#42,.T.);
#334=EDGE_CURVE('',#424,#427,#43,.T.);
#335=EDGE_CURVE('',#433,#425,#44,.T.);
#336=EDGE_CURVE('',#434,#426,#45,.T.);
#337=EDGE_CURVE('',#435,#388,#496,.T.);
#338=EDGE_CURVE('',#435,#419,#497,.T.);
#339=EDGE_CURVE('',#436,#422,#23,.T.);
#340=EDGE_CURVE('',#436,#383,#498,.T.);
#341=EDGE_CURVE('',#437,#387,#499,.T.);
#342=EDGE_CURVE('',#437,#435,#54,.T.);
#343=EDGE_CURVE('',#416,#438,#500,.T.);
#344=EDGE_CURVE('',#438,#385,#501,.T.);
#345=EDGE_CURVE('',#384,#439,#502,.T.);
#346=EDGE_CURVE('',#417,#439,#24,.T.);
#347=EDGE_CURVE('',#438,#440,#55,.T.);
#348=EDGE_CURVE('',#440,#386,#503,.T.);
#349=EDGE_CURVE('',#440,#437,#504,.T.);
#350=EDGE_CURVE('',#411,#415,#505,.T.);
#351=EDGE_CURVE('',#418,#412,#506,.T.);
#352=EDGE_CURVE('',#426,#441,#46,.T.);
#353=EDGE_CURVE('',#441,#434,#47,.T.);
#354=EDGE_CURVE('',#427,#442,#48,.T.);
#355=EDGE_CURVE('',#442,#424,#49,.T.);
#356=EDGE_CURVE('',#441,#442,#507,.T.);
#357=EDGE_CURVE('',#414,#443,#508,.T.);
#358=EDGE_CURVE('',#443,#441,#509,.T.);
#359=EDGE_CURVE('',#444,#442,#510,.T.);
#360=EDGE_CURVE('',#436,#444,#511,.T.);
#361=EDGE_CURVE('',#444,#443,#512,.T.);
#362=EDGE_CURVE('',#439,#413,#513,.T.);
#363=EDGE_CURVE('',#407,#402,#514,.T.);
#364=EDGE_CURVE('',#400,#429,#515,.T.);
#365=EDGE_CURVE('',#399,#432,#516,.T.);
#366=EDGE_CURVE('',#403,#396,#517,.T.);
#367=EDGE_CURVE('',#393,#430,#518,.T.);
#368=EDGE_CURVE('',#391,#431,#519,.T.);
#369=EDGE_CURVE('',#384,#445,#520,.T.);
#370=EDGE_CURVE('',#445,#446,#521,.T.);
#371=EDGE_CURVE('',#443,#446,#522,.T.);
#372=EDGE_CURVE('',#447,#444,#523,.T.);
#373=EDGE_CURVE('',#448,#446,#524,.T.);
#374=EDGE_CURVE('',#449,#448,#525,.T.);
#375=EDGE_CURVE('',#449,#447,#526,.T.);
#376=EDGE_CURVE('',#450,#447,#527,.T.);
#377=EDGE_CURVE('',#451,#449,#528,.T.);
#378=EDGE_CURVE('',#451,#450,#529,.T.);
#379=EDGE_CURVE('',#450,#383,#530,.T.);
#380=EDGE_CURVE('',#451,#452,#531,.T.);
#381=EDGE_CURVE('',#452,#445,#532,.T.);
#382=EDGE_CURVE('',#452,#448,#533,.T.);
#383=VERTEX_POINT('',#1072);
#384=VERTEX_POINT('',#1073);
#385=VERTEX_POINT('',#1075);
#386=VERTEX_POINT('',#1082);
#387=VERTEX_POINT('',#1084);
#388=VERTEX_POINT('',#1092);
#389=VERTEX_POINT('',#1096);
#390=VERTEX_POINT('',#1099);
#391=VERTEX_POINT('',#1102);
#392=VERTEX_POINT('',#1103);
#393=VERTEX_POINT('',#1105);
#394=VERTEX_POINT('',#1107);
#395=VERTEX_POINT('',#1111);
#396=VERTEX_POINT('',#1112);
#397=VERTEX_POINT('',#1114);
#398=VERTEX_POINT('',#1116);
#399=VERTEX_POINT('',#1120);
#400=VERTEX_POINT('',#1122);
#401=VERTEX_POINT('',#1126);
#402=VERTEX_POINT('',#1128);
#403=VERTEX_POINT('',#1132);
#404=VERTEX_POINT('',#1133);
#405=VERTEX_POINT('',#1135);
#406=VERTEX_POINT('',#1137);
#407=VERTEX_POINT('',#1141);
#408=VERTEX_POINT('',#1143);
#409=VERTEX_POINT('',#1150);
#410=VERTEX_POINT('',#1151);
#411=VERTEX_POINT('',#1153);
#412=VERTEX_POINT('',#1155);
#413=VERTEX_POINT('',#1157);
#414=VERTEX_POINT('',#1159);
#415=VERTEX_POINT('',#1163);
#416=VERTEX_POINT('',#1164);
#417=VERTEX_POINT('',#1166);
#418=VERTEX_POINT('',#1171);
#419=VERTEX_POINT('',#1175);
#420=VERTEX_POINT('',#1176);
#421=VERTEX_POINT('',#1178);
#422=VERTEX_POINT('',#1183);
#423=VERTEX_POINT('',#1187);
#424=VERTEX_POINT('',#1189);
#425=VERTEX_POINT('',#1193);
#426=VERTEX_POINT('',#1194);
#427=VERTEX_POINT('',#1199);
#428=VERTEX_POINT('',#1200);
#429=VERTEX_POINT('',#1202);
#430=VERTEX_POINT('',#1204);
#431=VERTEX_POINT('',#1206);
#432=VERTEX_POINT('',#1208);
#433=VERTEX_POINT('',#1210);
#434=VERTEX_POINT('',#1212);
#435=VERTEX_POINT('',#1222);
#436=VERTEX_POINT('',#1225);
#437=VERTEX_POINT('',#1238);
#438=VERTEX_POINT('',#1248);
#439=VERTEX_POINT('',#1251);
#440=VERTEX_POINT('',#1269);
#441=VERTEX_POINT('',#1278);
#442=VERTEX_POINT('',#1282);
#443=VERTEX_POINT('',#1288);
#444=VERTEX_POINT('',#1292);
#445=VERTEX_POINT('',#1312);
#446=VERTEX_POINT('',#1314);
#447=VERTEX_POINT('',#1318);
#448=VERTEX_POINT('',#1320);
#449=VERTEX_POINT('',#1322);
#450=VERTEX_POINT('',#1326);
#451=VERTEX_POINT('',#1328);
#452=VERTEX_POINT('',#1333);
#453=LINE('',#1071,#534);
#454=LINE('',#1074,#535);
#455=LINE('',#1083,#536);
#456=LINE('',#1093,#537);
#457=LINE('',#1104,#538);
#458=LINE('',#1108,#539);
#459=LINE('',#1113,#540);
#460=LINE('',#1117,#541);
#461=LINE('',#1119,#542);
#462=LINE('',#1121,#543);
#463=LINE('',#1123,#544);
#464=LINE('',#1125,#545);
#465=LINE('',#1127,#546);
#466=LINE('',#1129,#547);
#467=LINE('',#1134,#548);
#468=LINE('',#1138,#549);
#469=LINE('',#1140,#550);
#470=LINE('',#1142,#551);
#471=LINE('',#1144,#552);
#472=LINE('',#1146,#553);
#473=LINE('',#1147,#554);
#474=LINE('',#1149,#555);
#475=LINE('',#1152,#556);
#476=LINE('',#1154,#557);
#477=LINE('',#1158,#558);
#478=LINE('',#1165,#559);
#479=LINE('',#1172,#560);
#480=LINE('',#1177,#561);
#481=LINE('',#1184,#562);
#482=LINE('',#1186,#563);
#483=LINE('',#1188,#564);
#484=LINE('',#1190,#565);
#485=LINE('',#1192,#566);
#486=LINE('',#1195,#567);
#487=LINE('',#1196,#568);
#488=LINE('',#1198,#569);
#489=LINE('',#1201,#570);
#490=LINE('',#1203,#571);
#491=LINE('',#1205,#572);
#492=LINE('',#1207,#573);
#493=LINE('',#1209,#574);
#494=LINE('',#1211,#575);
#495=LINE('',#1213,#576);
#496=LINE('',#1221,#577);
#497=LINE('',#1223,#578);
#498=LINE('',#1226,#579);
#499=LINE('',#1237,#580);
#500=LINE('',#1247,#581);
#501=LINE('',#1249,#582);
#502=LINE('',#1250,#583);
#503=LINE('',#1270,#584);
#504=LINE('',#1272,#585);
#505=LINE('',#1274,#586);
#506=LINE('',#1275,#587);
#507=LINE('',#1285,#588);
#508=LINE('',#1287,#589);
#509=LINE('',#1289,#590);
#510=LINE('',#1291,#591);
#511=LINE('',#1293,#592);
#512=LINE('',#1295,#593);
#513=LINE('',#1297,#594);
#514=LINE('',#1299,#595);
#515=LINE('',#1300,#596);
#516=LINE('',#1301,#597);
#517=LINE('',#1303,#598);
#518=LINE('',#1306,#599);
#519=LINE('',#1308,#600);
#520=LINE('',#1311,#601);
#521=LINE('',#1313,#602);
#522=LINE('',#1315,#603);
#523=LINE('',#1317,#604);
#524=LINE('',#1319,#605);
#525=LINE('',#1321,#606);
#526=LINE('',#1323,#607);
#527=LINE('',#1325,#608);
#528=LINE('',#1327,#609);
#529=LINE('',#1329,#610);
#530=LINE('',#1331,#611);
#531=LINE('',#1332,#612);
#532=LINE('',#1334,#613);
#533=LINE('',#1336,#614);
#534=VECTOR('',#862,1.);
#535=VECTOR('',#863,1.);
#536=VECTOR('',#864,1.);
#537=VECTOR('',#865,1.);
#538=VECTOR('',#878,1.);
#539=VECTOR('',#881,1.);
#540=VECTOR('',#886,1.);
#541=VECTOR('',#889,1.);
#542=VECTOR('',#892,1.);
#543=VECTOR('',#893,1.);
#544=VECTOR('',#894,1.);
#545=VECTOR('',#897,1.);
#546=VECTOR('',#898,1.);
#547=VECTOR('',#899,1.);
#548=VECTOR('',#904,1.);
#549=VECTOR('',#907,1.);
#550=VECTOR('',#910,1.);
#551=VECTOR('',#911,1.);
#552=VECTOR('',#912,1.);
#553=VECTOR('',#915,1.);
#554=VECTOR('',#916,1.);
#555=VECTOR('',#919,1.);
#556=VECTOR('',#920,1.);
#557=VECTOR('',#921,1.);
#558=VECTOR('',#924,1.);
#559=VECTOR('',#931,1.);
#560=VECTOR('',#932,1.);
#561=VECTOR('',#937,1.);
#562=VECTOR('',#938,1.);
#563=VECTOR('',#941,1.);
#564=VECTOR('',#942,1.);
#565=VECTOR('',#943,1.);
#566=VECTOR('',#946,1.);
#567=VECTOR('',#947,1.);
#568=VECTOR('',#948,1.);
#569=VECTOR('',#951,1.);
#570=VECTOR('',#952,1.);
#571=VECTOR('',#953,1.);
#572=VECTOR('',#954,1.);
#573=VECTOR('',#955,1.);
#574=VECTOR('',#956,1.);
#575=VECTOR('',#957,1.);
#576=VECTOR('',#958,1.);
#577=VECTOR('',#973,1.);
#578=VECTOR('',#974,1.);
#579=VECTOR('',#977,1.);
#580=VECTOR('',#978,1.);
#581=VECTOR('',#981,1.);
#582=VECTOR('',#982,1.);
#583=VECTOR('',#983,1.);
#584=VECTOR('',#986,1.);
#585=VECTOR('',#989,1.);
#586=VECTOR('',#992,1.);
#587=VECTOR('',#993,1.);
#588=VECTOR('',#1008,1.);
#589=VECTOR('',#1011,1.);
#590=VECTOR('',#1012,1.);
#591=VECTOR('',#1015,1.);
#592=VECTOR('',#1016,1.);
#593=VECTOR('',#1019,1.);
#594=VECTOR('',#1022,1.);
#595=VECTOR('',#1025,1.);
#596=VECTOR('',#1026,1.);
#597=VECTOR('',#1027,1.);
#598=VECTOR('',#1030,1.);
#599=VECTOR('',#1035,1.);
#600=VECTOR('',#1038,1.);
#601=VECTOR('',#1043,1.);
#602=VECTOR('',#1044,1.);
#603=VECTOR('',#1045,1.);
#604=VECTOR('',#1048,1.);
#605=VECTOR('',#1049,1.);
#606=VECTOR('',#1050,1.);
#607=VECTOR('',#1051,1.);
#608=VECTOR('',#1054,1.);
#609=VECTOR('',#1055,1.);
#610=VECTOR('',#1056,1.);
#611=VECTOR('',#1059,1.);
#612=VECTOR('',#1060,1.);
#613=VECTOR('',#1061,1.);
#614=VECTOR('',#1064,1.);
#615=EDGE_LOOP('',(#56,#57,#58,#59,#60,#61));
#616=EDGE_LOOP('',(#62));
#617=EDGE_LOOP('',(#63));
#618=EDGE_LOOP('',(#64));
#619=EDGE_LOOP('',(#65,#66,#67,#68));
#620=EDGE_LOOP('',(#69,#70,#71,#72));
#621=EDGE_LOOP('',(#73,#74,#75,#76));
#622=EDGE_LOOP('',(#77,#78,#79,#80));
#623=EDGE_LOOP('',(#81,#82,#83,#84));
#624=EDGE_LOOP('',(#85,#86,#87,#88));
#625=EDGE_LOOP('',(#89));
#626=EDGE_LOOP('',(#90,#91,#92,#93,#94,#95));
#627=EDGE_LOOP('',(#96,#97,#98,#99,#100,#101));
#628=EDGE_LOOP('',(#102,#103,#104,#105));
#629=EDGE_LOOP('',(#106,#107,#108,#109));
#630=EDGE_LOOP('',(#110,#111,#112,#113));
#631=EDGE_LOOP('',(#114,#115,#116,#117));
#632=EDGE_LOOP('',(#118,#119,#120,#121,#122,#123,#124,#125));
#633=EDGE_LOOP('',(#126,#127,#128,#129));
#634=EDGE_LOOP('',(#130,#131,#132,#133));
#635=EDGE_LOOP('',(#134,#135,#136,#137,#138,#139));
#636=EDGE_LOOP('',(#140,#141,#142,#143));
#637=EDGE_LOOP('',(#144,#145,#146,#147,#148,#149));
#638=EDGE_LOOP('',(#150,#151,#152,#153));
#639=EDGE_LOOP('',(#154,#155,#156,#157));
#640=EDGE_LOOP('',(#158,#159,#160,#161));
#641=EDGE_LOOP('',(#162,#163,#164));
#642=EDGE_LOOP('',(#165,#166,#167));
#643=EDGE_LOOP('',(#168,#169,#170,#171));
#644=EDGE_LOOP('',(#172,#173,#174,#175,#176));
#645=EDGE_LOOP('',(#177,#178,#179,#180,#181,#182));
#646=EDGE_LOOP('',(#183,#184,#185,#186));
#647=EDGE_LOOP('',(#187,#188,#189,#190,#191));
#648=EDGE_LOOP('',(#192,#193,#194,#195));
#649=EDGE_LOOP('',(#196,#197,#198,#199,#200,#201,#202,#203,#204,#205,#206,
#207,#208,#209,#210,#211,#212,#213));
#650=EDGE_LOOP('',(#214,#215,#216,#217,#218,#219));
#651=EDGE_LOOP('',(#220,#221,#222,#223));
#652=EDGE_LOOP('',(#224,#225,#226,#227,#228));
#653=EDGE_LOOP('',(#229,#230,#231,#232,#233));
#654=EDGE_LOOP('',(#234,#235,#236,#237));
#655=EDGE_LOOP('',(#238,#239,#240,#241,#242,#243,#244));
#656=EDGE_LOOP('',(#245,#246,#247,#248,#249,#250));
#657=EDGE_LOOP('',(#251,#252,#253,#254));
#658=EDGE_LOOP('',(#255,#256,#257,#258,#259,#260));
#659=EDGE_LOOP('',(#261,#262,#263,#264));
#660=EDGE_LOOP('',(#265,#266,#267,#268));
#661=EDGE_LOOP('',(#269,#270,#271,#272,#273));
#662=FACE_BOUND('',#615,.T.);
#663=FACE_BOUND('',#616,.T.);
#664=FACE_BOUND('',#617,.T.);
#665=FACE_BOUND('',#618,.T.);
#666=FACE_BOUND('',#619,.T.);
#667=FACE_BOUND('',#620,.T.);
#668=FACE_BOUND('',#621,.T.);
#669=FACE_BOUND('',#622,.T.);
#670=FACE_BOUND('',#623,.T.);
#671=FACE_BOUND('',#624,.T.);
#672=FACE_BOUND('',#625,.T.);
#673=FACE_BOUND('',#626,.T.);
#674=FACE_BOUND('',#627,.T.);
#675=FACE_BOUND('',#628,.T.);
#676=FACE_BOUND('',#629,.T.);
#677=FACE_BOUND('',#630,.T.);
#678=FACE_BOUND('',#631,.T.);
#679=FACE_BOUND('',#632,.T.);
#680=FACE_BOUND('',#633,.T.);
#681=FACE_BOUND('',#634,.T.);
#682=FACE_BOUND('',#635,.T.);
#683=FACE_BOUND('',#636,.T.);
#684=FACE_BOUND('',#637,.T.);
#685=FACE_BOUND('',#638,.T.);
#686=FACE_BOUND('',#639,.T.);
#687=FACE_BOUND('',#640,.T.);
#688=FACE_BOUND('',#641,.T.);
#689=FACE_BOUND('',#642,.T.);
#690=FACE_BOUND('',#643,.T.);
#691=FACE_BOUND('',#644,.T.);
#692=FACE_BOUND('',#645,.T.);
#693=FACE_BOUND('',#646,.T.);
#694=FACE_BOUND('',#647,.T.);
#695=FACE_BOUND('',#648,.T.);
#696=FACE_BOUND('',#649,.T.);
#697=FACE_BOUND('',#650,.T.);
#698=FACE_BOUND('',#651,.T.);
#699=FACE_BOUND('',#652,.T.);
#700=FACE_BOUND('',#653,.T.);
#701=FACE_BOUND('',#654,.T.);
#702=FACE_BOUND('',#655,.T.);
#703=FACE_BOUND('',#656,.T.);
#704=FACE_BOUND('',#657,.T.);
#705=FACE_BOUND('',#658,.T.);
#706=FACE_BOUND('',#659,.T.);
#707=FACE_BOUND('',#660,.T.);
#708=FACE_BOUND('',#661,.T.);
#709=PLANE('',#794);
#710=PLANE('',#795);
#711=PLANE('',#805);
#712=PLANE('',#806);
#713=PLANE('',#810);
#714=PLANE('',#811);
#715=PLANE('',#812);
#716=PLANE('',#819);
#717=PLANE('',#820);
#718=PLANE('',#821);
#719=PLANE('',#828);
#720=PLANE('',#830);
#721=PLANE('',#832);
#722=PLANE('',#833);
#723=PLANE('',#843);
#724=PLANE('',#845);
#725=PLANE('',#846);
#726=PLANE('',#847);
#727=PLANE('',#848);
#728=PLANE('',#849);
#729=PLANE('',#850);
#730=PLANE('',#851);
#731=PLANE('',#852);
#732=PLANE('',#853);
#733=PLANE('',#854);
#734=PLANE('',#855);
#735=PLANE('',#856);
#736=PLANE('',#857);
#737=ADVANCED_FACE('',(#662),#709,.F.);
#738=ADVANCED_FACE('',(#663),#710,.T.);
#739=ADVANCED_FACE('',(#664,#665),#25,.F.);
#740=ADVANCED_FACE('',(#666),#26,.T.);
#741=ADVANCED_FACE('',(#667),#27,.T.);
#742=ADVANCED_FACE('',(#668),#711,.T.);
#743=ADVANCED_FACE('',(#669),#712,.F.);
#744=ADVANCED_FACE('',(#670),#28,.T.);
#745=ADVANCED_FACE('',(#671,#672),#713,.T.);
#746=ADVANCED_FACE('',(#673),#714,.F.);
#747=ADVANCED_FACE('',(#674),#715,.F.);
#748=ADVANCED_FACE('',(#675),#29,.T.);
#749=ADVANCED_FACE('',(#676),#30,.T.);
#750=ADVANCED_FACE('',(#677),#716,.F.);
#751=ADVANCED_FACE('',(#678),#717,.F.);
#752=ADVANCED_FACE('',(#679),#718,.F.);
#753=ADVANCED_FACE('',(#680),#31,.T.);
#754=ADVANCED_FACE('',(#681),#32,.T.);
#755=ADVANCED_FACE('',(#682),#719,.F.);
#756=ADVANCED_FACE('',(#683),#14,.F.);
#757=ADVANCED_FACE('',(#684),#720,.F.);
#758=ADVANCED_FACE('',(#685),#15,.F.);
#759=ADVANCED_FACE('',(#686),#721,.F.);
#760=ADVANCED_FACE('',(#687),#722,.F.);
#761=ADVANCED_FACE('',(#688),#12,.T.);
#762=ADVANCED_FACE('',(#689),#13,.T.);
#763=ADVANCED_FACE('',(#690),#33,.T.);
#764=ADVANCED_FACE('',(#691),#34,.T.);
#765=ADVANCED_FACE('',(#692),#35,.T.);
#766=ADVANCED_FACE('',(#693),#723,.F.);
#767=ADVANCED_FACE('',(#694),#36,.T.);
#768=ADVANCED_FACE('',(#695,#696),#724,.T.);
#769=ADVANCED_FACE('',(#697),#725,.T.);
#770=ADVANCED_FACE('',(#698),#726,.F.);
#771=ADVANCED_FACE('',(#699),#727,.F.);
#772=ADVANCED_FACE('',(#700),#728,.T.);
#773=ADVANCED_FACE('',(#701),#729,.F.);
#774=ADVANCED_FACE('',(#702),#730,.F.);
#775=ADVANCED_FACE('',(#703),#731,.T.);
#776=ADVANCED_FACE('',(#704),#732,.T.);
#777=ADVANCED_FACE('',(#705),#733,.F.);
#778=ADVANCED_FACE('',(#706),#734,.F.);
#779=ADVANCED_FACE('',(#707),#735,.T.);
#780=ADVANCED_FACE('',(#708),#736,.F.);
#781=CLOSED_SHELL('',(#737,#738,#739,#740,#741,#742,#743,#744,#745,#746,
#747,#748,#749,#750,#751,#752,#753,#754,#755,#756,#757,#758,#759,#760,#761,
#762,#763,#764,#765,#766,#767,#768,#769,#770,#771,#772,#773,#774,#775,#776,
#777,#778,#779,#780));
#782=STYLED_ITEM('',(#783),#790);
#783=PRESENTATION_STYLE_ASSIGNMENT((#784));
#784=SURFACE_STYLE_USAGE(.BOTH.,#785);
#785=SURFACE_SIDE_STYLE('',(#786));
#786=SURFACE_STYLE_FILL_AREA(#787);
#787=FILL_AREA_STYLE('',(#788));
#788=FILL_AREA_STYLE_COLOUR('',#789);
#789=COLOUR_RGB('',0.627450980392157,0.627450980392157,0.627450980392157);
#790=MANIFOLD_SOLID_BREP('Wrist_Roll_05m_Leader_02ba v1',#781);
#791=SHAPE_DEFINITION_REPRESENTATION(#1345,#792);
#792=SHAPE_REPRESENTATION('Wrist_Roll_05m_Leader_02ba v1',(#793),#1340);
#793=AXIS2_PLACEMENT_3D('',#1069,#858,#859);
#794=AXIS2_PLACEMENT_3D('',#1070,#860,#861);
#795=AXIS2_PLACEMENT_3D('',#1094,#866,#867);
#796=AXIS2_PLACEMENT_3D('',#1095,#868,#869);
#797=AXIS2_PLACEMENT_3D('',#1097,#870,#871);
#798=AXIS2_PLACEMENT_3D('',#1098,#872,#873);
#799=AXIS2_PLACEMENT_3D('',#1100,#874,#875);
#800=AXIS2_PLACEMENT_3D('',#1101,#876,#877);
#801=AXIS2_PLACEMENT_3D('',#1106,#879,#880);
#802=AXIS2_PLACEMENT_3D('',#1109,#882,#883);
#803=AXIS2_PLACEMENT_3D('',#1110,#884,#885);
#804=AXIS2_PLACEMENT_3D('',#1115,#887,#888);
#805=AXIS2_PLACEMENT_3D('',#1118,#890,#891);
#806=AXIS2_PLACEMENT_3D('',#1124,#895,#896);
#807=AXIS2_PLACEMENT_3D('',#1130,#900,#901);
#808=AXIS2_PLACEMENT_3D('',#1131,#902,#903);
#809=AXIS2_PLACEMENT_3D('',#1136,#905,#906);
#810=AXIS2_PLACEMENT_3D('',#1139,#908,#909);
#811=AXIS2_PLACEMENT_3D('',#1145,#913,#914);
#812=AXIS2_PLACEMENT_3D('',#1148,#917,#918);
#813=AXIS2_PLACEMENT_3D('',#1156,#922,#923);
#814=AXIS2_PLACEMENT_3D('',#1160,#925,#926);
#815=AXIS2_PLACEMENT_3D('',#1161,#927,#928);
#816=AXIS2_PLACEMENT_3D('',#1162,#929,#930);
#817=AXIS2_PLACEMENT_3D('',#1173,#933,#934);
#818=AXIS2_PLACEMENT_3D('',#1174,#935,#936);
#819=AXIS2_PLACEMENT_3D('',#1185,#939,#940);
#820=AXIS2_PLACEMENT_3D('',#1191,#944,#945);
#821=AXIS2_PLACEMENT_3D('',#1197,#949,#950);
#822=AXIS2_PLACEMENT_3D('',#1214,#959,#960);
#823=AXIS2_PLACEMENT_3D('',#1215,#961,#962);
#824=AXIS2_PLACEMENT_3D('',#1216,#963,#964);
#825=AXIS2_PLACEMENT_3D('',#1217,#965,#966);
#826=AXIS2_PLACEMENT_3D('',#1218,#967,#968);
#827=AXIS2_PLACEMENT_3D('',#1219,#969,#970);
#828=AXIS2_PLACEMENT_3D('',#1220,#971,#972);
#829=AXIS2_PLACEMENT_3D('',#1224,#975,#976);
#830=AXIS2_PLACEMENT_3D('',#1246,#979,#980);
#831=AXIS2_PLACEMENT_3D('',#1252,#984,#985);
#832=AXIS2_PLACEMENT_3D('',#1271,#987,#988);
#833=AXIS2_PLACEMENT_3D('',#1273,#990,#991);
#834=AXIS2_PLACEMENT_3D('',#1276,#994,#995);
#835=AXIS2_PLACEMENT_3D('',#1277,#996,#997);
#836=AXIS2_PLACEMENT_3D('',#1279,#998,#999);
#837=AXIS2_PLACEMENT_3D('',#1280,#1000,#1001);
#838=AXIS2_PLACEMENT_3D('',#1281,#1002,#1003);
#839=AXIS2_PLACEMENT_3D('',#1283,#1004,#1005);
#840=AXIS2_PLACEMENT_3D('',#1284,#1006,#1007);
#841=AXIS2_PLACEMENT_3D('',#1286,#1009,#1010);
#842=AXIS2_PLACEMENT_3D('',#1290,#1013,#1014);
#843=AXIS2_PLACEMENT_3D('',#1294,#1017,#1018);
#844=AXIS2_PLACEMENT_3D('',#1296,#1020,#1021);
#845=AXIS2_PLACEMENT_3D('',#1298,#1023,#1024);
#846=AXIS2_PLACEMENT_3D('',#1302,#1028,#1029);
#847=AXIS2_PLACEMENT_3D('',#1304,#1031,#1032);
#848=AXIS2_PLACEMENT_3D('',#1305,#1033,#1034);
#849=AXIS2_PLACEMENT_3D('',#1307,#1036,#1037);
#850=AXIS2_PLACEMENT_3D('',#1309,#1039,#1040);
#851=AXIS2_PLACEMENT_3D('',#1310,#1041,#1042);
#852=AXIS2_PLACEMENT_3D('',#1316,#1046,#1047);
#853=AXIS2_PLACEMENT_3D('',#1324,#1052,#1053);
#854=AXIS2_PLACEMENT_3D('',#1330,#1057,#1058);
#855=AXIS2_PLACEMENT_3D('',#1335,#1062,#1063);
#856=AXIS2_PLACEMENT_3D('',#1337,#1065,#1066);
#857=AXIS2_PLACEMENT_3D('',#1338,#1067,#1068);
#858=DIRECTION('',(0.,0.,1.));
#859=DIRECTION('',(1.,0.,0.));
#860=DIRECTION('',(0.,0.,1.));
#861=DIRECTION('',(1.,0.,0.));
#862=DIRECTION('',(0.,-1.,0.));
#863=DIRECTION('',(0.823612696728589,-0.567152647695012,0.));
#864=DIRECTION('',(0.,-1.,0.));
#865=DIRECTION('',(-0.823612696728582,-0.567152647695021,0.));
#866=DIRECTION('',(-1.,0.,3.96508223080413E-16));
#867=DIRECTION('',(0.,-1.,0.));
#868=DIRECTION('',(-1.,0.,3.96508223080413E-16));
#869=DIRECTION('',(3.96508223080413E-16,0.,1.));
#870=DIRECTION('',(-1.,0.,3.96508223080413E-16));
#871=DIRECTION('',(3.96508223080413E-16,0.,1.));
#872=DIRECTION('',(-0.615031798693878,3.28280030666619E-17,0.788502306017791));
#873=DIRECTION('',(-0.788502306017791,-2.56058423919963E-17,-0.615031798693878));
#874=DIRECTION('',(1.60128320859398E-16,-1.,0.));
#875=DIRECTION('',(1.,1.60128320859398E-16,0.));
#876=DIRECTION('',(-1.26896266060241E-16,-0.936329177569046,-0.351123441588388));
#877=DIRECTION('',(7.94435700545352E-16,-0.351123441588388,0.936329177569046));
#878=DIRECTION('',(-1.60128320859398E-16,1.,0.));
#879=DIRECTION('',(-1.26896266060241E-16,-0.936329177569046,0.351123441588388));
#880=DIRECTION('',(7.94435700545352E-16,-0.351123441588388,-0.936329177569046));
#881=DIRECTION('',(-1.60128320859398E-16,1.,0.));
#882=DIRECTION('',(-1.60128320859398E-16,1.,0.));
#883=DIRECTION('',(-1.,-1.60128320859398E-16,0.));
#884=DIRECTION('',(-1.26896266060241E-16,-0.936329177569046,-0.351123441588388));
#885=DIRECTION('',(-7.94435700545352E-16,0.351123441588388,-0.936329177569046));
#886=DIRECTION('',(-1.60128320859398E-16,1.,0.));
#887=DIRECTION('',(-1.26896266060241E-16,-0.936329177569046,0.351123441588388));
#888=DIRECTION('',(-7.94435700545352E-16,0.351123441588388,0.936329177569046));
#889=DIRECTION('',(-1.60128320859398E-16,1.,0.));
#890=DIRECTION('',(-1.,-1.60128320859398E-16,0.));
#891=DIRECTION('',(1.60128320859398E-16,-1.,0.));
#892=DIRECTION('',(-5.62248071159215E-17,0.351123441588388,-0.936329177569046));
#893=DIRECTION('',(5.62248071159215E-17,-0.351123441588388,-0.936329177569046));
#894=DIRECTION('',(1.60128320859398E-16,-1.,0.));
#895=DIRECTION('',(-1.,-1.60128320859398E-16,0.));
#896=DIRECTION('',(1.60128320859398E-16,-1.,0.));
#897=DIRECTION('',(5.62248071159215E-17,-0.351123441588388,-0.936329177569046));
#898=DIRECTION('',(-5.62248071159215E-17,0.351123441588388,-0.936329177569046));
#899=DIRECTION('',(1.60128320859398E-16,-1.,0.));
#900=DIRECTION('',(-5.33761069531325E-17,-1.,0.));
#901=DIRECTION('',(1.,-5.33761069531325E-17,0.));
#902=DIRECTION('',(-1.26896266060241E-16,-0.936329177569046,-0.351123441588388));
#903=DIRECTION('',(1.86374823587966E-16,-0.351123441588388,0.936329177569046));
#904=DIRECTION('',(5.33761069531325E-17,1.,0.));
#905=DIRECTION('',(-1.26896266060241E-16,-0.936329177569046,0.351123441588388));
#906=DIRECTION('',(1.86374823587966E-16,-0.351123441588388,-0.936329177569046));
#907=DIRECTION('',(5.33761069531325E-17,1.,4.85952064760976E-33));
#908=DIRECTION('',(-0.615031798693878,3.28280030666619E-17,0.788502306017791));
#909=DIRECTION('',(0.788502306017791,0.,0.615031798693878));
#910=DIRECTION('',(-0.768331971459451,0.224737101651887,-0.599298937738373));
#911=DIRECTION('',(0.768331971459451,0.224737101651887,0.599298937738373));
#912=DIRECTION('',(-1.35525271560688E-16,-1.,0.));
#913=DIRECTION('',(-1.26896266060241E-16,-0.936329177569046,0.351123441588388));
#914=DIRECTION('',(0.,-0.351123441588388,-0.936329177569046));
#915=DIRECTION('',(1.,-1.35525271560688E-16,0.));
#916=DIRECTION('',(1.,-1.35525271560688E-16,0.));
#917=DIRECTION('',(-1.,-8.67361737988404E-16,0.));
#918=DIRECTION('',(0.,0.,1.));
#919=DIRECTION('',(0.,0.,-1.));
#920=DIRECTION('',(8.67361737988404E-16,-1.,0.));
#921=DIRECTION('',(0.,0.,-1.));
#922=DIRECTION('',(-1.,-8.67361737988404E-16,0.));
#923=DIRECTION('',(8.67361737988404E-16,-1.,0.));
#924=DIRECTION('',(8.67361737988404E-16,-1.,0.));
#925=DIRECTION('',(-1.,-8.67361737988404E-16,0.));
#926=DIRECTION('',(8.67361737988404E-16,-1.,0.));
#927=DIRECTION('',(0.,0.,-1.));
#928=DIRECTION('',(-1.,0.,0.));
#929=DIRECTION('',(0.,0.,-1.));
#930=DIRECTION('',(-1.,0.,0.));
#931=DIRECTION('',(0.,0.,-1.));
#932=DIRECTION('',(0.,0.,-1.));
#933=DIRECTION('',(0.,0.,1.));
#934=DIRECTION('',(1.,0.,0.));
#935=DIRECTION('',(0.,0.,-1.));
#936=DIRECTION('',(-1.,0.,0.));
#937=DIRECTION('',(0.,0.,1.));
#938=DIRECTION('',(0.,0.,1.));
#939=DIRECTION('',(-5.33761069531325E-17,-1.,0.));
#940=DIRECTION('',(0.,0.,-1.));
#941=DIRECTION('',(1.,-5.33761069531325E-17,0.));
#942=DIRECTION('',(0.,0.,1.));
#943=DIRECTION('',(-1.,1.66240495614626E-16,0.));
#944=DIRECTION('',(1.35525271560688E-16,1.,0.));
#945=DIRECTION('',(-1.,1.35525271560688E-16,0.));
#946=DIRECTION('',(0.,0.,-1.));
#947=DIRECTION('',(-1.,1.35525271560688E-16,0.));
#948=DIRECTION('',(1.,-1.35525271560688E-16,0.));
#949=DIRECTION('',(-1.,1.35525271560688E-16,0.));
#950=DIRECTION('',(-1.35525271560688E-16,-1.,0.));
#951=DIRECTION('',(0.,0.,1.));
#952=DIRECTION('',(-1.35525271560688E-16,-1.,0.));
#953=DIRECTION('',(-4.75860997725897E-17,-0.351123441588388,-0.936329177569046));
#954=DIRECTION('',(1.35525271560688E-16,1.,0.));
#955=DIRECTION('',(4.75860997725897E-17,0.351123441588388,-0.936329177569046));
#956=DIRECTION('',(-1.35525271560688E-16,-1.,0.));
#957=DIRECTION('',(0.,0.,-1.));
#958=DIRECTION('',(1.35525271560688E-16,1.,0.));
#959=DIRECTION('',(0.,0.,1.));
#960=DIRECTION('',(1.,0.,0.));
#961=DIRECTION('',(0.,0.,-1.));
#962=DIRECTION('',(-1.,0.,0.));
#963=DIRECTION('',(0.,0.,-1.));
#964=DIRECTION('',(-1.,0.,0.));
#965=DIRECTION('',(0.,0.,-1.));
#966=DIRECTION('',(-1.,0.,0.));
#967=DIRECTION('',(0.,0.,-1.));
#968=DIRECTION('',(-1.,0.,0.));
#969=DIRECTION('',(0.,0.,-1.));
#970=DIRECTION('',(-1.,0.,0.));
#971=DIRECTION('',(0.567152647695021,-0.823612696728582,0.));
#972=DIRECTION('',(0.,0.,-1.));
#973=DIRECTION('',(0.,0.,-1.));
#974=DIRECTION('',(0.823612696728582,0.567152647695021,0.));
#975=DIRECTION('',(0.567152647695021,-0.823612696728582,0.));
#976=DIRECTION('',(-0.823612696728582,-0.567152647695021,0.));
#977=DIRECTION('',(-0.823612696728582,-0.567152647695021,0.));
#978=DIRECTION('',(0.,0.,-1.));
#979=DIRECTION('',(0.567152647695012,0.823612696728589,0.));
#980=DIRECTION('',(0.,0.,-1.));
#981=DIRECTION('',(-0.823612696728589,0.567152647695012,0.));
#982=DIRECTION('',(0.,0.,-1.));
#983=DIRECTION('',(0.823612696728589,-0.567152647695012,0.));
#984=DIRECTION('',(0.567152647695012,0.823612696728589,0.));
#985=DIRECTION('',(0.823612696728588,-0.567152647695012,0.));
#986=DIRECTION('',(0.,0.,-1.));
#987=DIRECTION('',(1.,0.,-3.96508223080413E-16));
#988=DIRECTION('',(-3.96508223080413E-16,0.,-1.));
#989=DIRECTION('',(0.,1.,0.));
#990=DIRECTION('',(-1.60128320859398E-16,1.,0.));
#991=DIRECTION('',(0.,0.,1.));
#992=DIRECTION('',(-1.,-1.60128320859398E-16,0.));
#993=DIRECTION('',(1.,0.,0.));
#994=DIRECTION('',(0.,0.,-1.));
#995=DIRECTION('',(-1.,0.,0.));
#996=DIRECTION('',(1.,0.,0.));
#997=DIRECTION('',(0.,0.,-1.));
#998=DIRECTION('',(0.,-1.,0.));
#999=DIRECTION('',(0.,0.,-1.));
#1000=DIRECTION('',(1.15648231731787E-15,-1.15648231731787E-15,-1.));
#1001=DIRECTION('',(-1.,0.,-1.15648231731787E-15));
#1002=DIRECTION('',(0.,1.,-1.15648231731787E-15));
#1003=DIRECTION('',(0.,1.15648231731787E-15,1.));
#1004=DIRECTION('',(1.,1.15648231731787E-15,0.));
#1005=DIRECTION('',(-1.15648231731787E-15,1.,0.));
#1006=DIRECTION('',(1.35525271560688E-16,1.,0.));
#1007=DIRECTION('',(-1.,1.35525271560688E-16,0.));
#1008=DIRECTION('',(1.35525271560688E-16,1.,0.));
#1009=DIRECTION('',(1.,-1.35525271560688E-16,0.));
#1010=DIRECTION('',(1.35525271560688E-16,1.,0.));
#1011=DIRECTION('',(1.,-1.35525271560688E-16,0.));
#1012=DIRECTION('',(1.,-1.35525271560688E-16,0.));
#1013=DIRECTION('',(-1.,5.33761069531325E-17,0.));
#1014=DIRECTION('',(5.33761069531325E-17,1.,-1.22464679914735E-16));
#1015=DIRECTION('',(1.,-5.33761069531325E-17,0.));
#1016=DIRECTION('',(1.,-5.33761069531325E-17,0.));
#1017=DIRECTION('',(0.,0.,1.));
#1018=DIRECTION('',(1.,0.,0.));
#1019=DIRECTION('',(0.,-1.,0.));
#1020=DIRECTION('',(1.,1.60128320859398E-16,0.));
#1021=DIRECTION('',(1.60128320859398E-16,-1.,-1.01064309961486E-15));
#1022=DIRECTION('',(1.,1.18252255457689E-16,0.));
#1023=DIRECTION('',(0.,0.,1.));
#1024=DIRECTION('',(1.,0.,0.));
#1025=DIRECTION('',(1.,-1.35525271560688E-16,0.));
#1026=DIRECTION('',(1.,-1.35525271560688E-16,0.));
#1027=DIRECTION('',(1.,-1.35525271560688E-16,0.));
#1028=DIRECTION('',(-1.26896266060241E-16,-0.936329177569046,-0.351123441588388));
#1029=DIRECTION('',(0.,0.351123441588388,-0.936329177569046));
#1030=DIRECTION('',(1.,-1.35525271560688E-16,0.));
#1031=DIRECTION('',(0.,0.,-1.));
#1032=DIRECTION('',(-1.,0.,0.));
#1033=DIRECTION('',(-1.26896266060241E-16,-0.936329177569046,0.351123441588388));
#1034=DIRECTION('',(0.,-0.351123441588388,-0.936329177569046));
#1035=DIRECTION('',(1.,-1.35525271560688E-16,0.));
#1036=DIRECTION('',(-1.26896266060241E-16,-0.936329177569046,-0.351123441588388));
#1037=DIRECTION('',(0.,0.351123441588388,-0.936329177569046));
#1038=DIRECTION('',(1.,-1.35525271560688E-16,0.));
#1039=DIRECTION('',(0.,0.,-1.));
#1040=DIRECTION('',(-1.,0.,0.));
#1041=DIRECTION('',(0.,0.,-1.));
#1042=DIRECTION('',(1.,0.,0.));
#1043=DIRECTION('',(0.,-1.,0.));
#1044=DIRECTION('',(1.,0.,0.));
#1045=DIRECTION('',(0.,-1.,0.));
#1046=DIRECTION('',(1.,0.,0.));
#1047=DIRECTION('',(0.,0.,-1.));
#1048=DIRECTION('',(0.,-1.,0.));
#1049=DIRECTION('',(0.,0.,1.));
#1050=DIRECTION('',(0.,-1.,0.));
#1051=DIRECTION('',(0.,0.,1.));
#1052=DIRECTION('',(0.,1.,0.));
#1053=DIRECTION('',(0.,0.,-1.));
#1054=DIRECTION('',(1.,0.,0.));
#1055=DIRECTION('',(1.,0.,0.));
#1056=DIRECTION('',(0.,0.,1.));
#1057=DIRECTION('',(1.,0.,0.));
#1058=DIRECTION('',(0.,0.,-1.));
#1059=DIRECTION('',(0.,-1.,0.));
#1060=DIRECTION('',(0.,-1.,0.));
#1061=DIRECTION('',(0.,0.,1.));
#1062=DIRECTION('',(0.,1.,0.));
#1063=DIRECTION('',(0.,0.,-1.));
#1064=DIRECTION('',(1.,0.,0.));
#1065=DIRECTION('',(0.,0.,-1.));
#1066=DIRECTION('',(1.,0.,0.));
#1067=DIRECTION('',(0.,0.,-1.));
#1068=DIRECTION('',(1.,0.,0.));
#1069=CARTESIAN_POINT('',(0.,0.,0.));
#1070=CARTESIAN_POINT('',(0.,0.08,0.005));
#1071=CARTESIAN_POINT('',(-0.0302,0.08,0.005));
#1072=CARTESIAN_POINT('',(-0.0302,0.0922947034846097,0.005));
#1073=CARTESIAN_POINT('',(-0.0302,0.0677079612627884,0.005));
#1074=CARTESIAN_POINT('',(-0.0315417967395476,0.0686319435866716,0.005));
#1075=CARTESIAN_POINT('',(-0.0315417967395476,0.0686319435866717,0.005));
#1076=CARTESIAN_POINT('',(-0.0315417967396415,0.0686319435867365,0.005));
#1077=CARTESIAN_POINT('',(-0.0320957695402725,0.0690134179641891,0.005));
#1078=CARTESIAN_POINT('',(-0.0331196372675702,0.0698657363436057,0.005));
#1079=CARTESIAN_POINT('',(-0.0347098985922231,0.0720574439284313,0.005));
#1080=CARTESIAN_POINT('',(-0.0351882758626368,0.0740517077514956,0.005));
#1081=CARTESIAN_POINT('',(-0.0352,0.0753992199011744,0.005));
#1082=CARTESIAN_POINT('',(-0.0352,0.0753992199011649,0.005));
#1083=CARTESIAN_POINT('',(-0.0352,0.0846007800988348,0.005));
#1084=CARTESIAN_POINT('',(-0.0352,0.0846007800988348,0.005));
#1085=CARTESIAN_POINT('',(-0.0352,0.0846007800988157,0.005));
#1086=CARTESIAN_POINT('',(-0.035194142272105,0.0852743725940625,0.005));
#1087=CARTESIAN_POINT('',(-0.0350320801992121,0.0865966249365426,0.005));
#1088=CARTESIAN_POINT('',(-0.0343120801656374,0.0884920896617519,0.005));
#1089=CARTESIAN_POINT('',(-0.0331263012540247,0.0901280058558652,0.005));
#1090=CARTESIAN_POINT('',(-0.0320955483283727,0.0909880343886018,0.005));
#1091=CARTESIAN_POINT('',(-0.0315417967396883,0.0913707211606281,0.005));
#1092=CARTESIAN_POINT('',(-0.0315417967395559,0.0913707211607202,0.005));
#1093=CARTESIAN_POINT('',(-0.0175582663009659,0.101,0.005));
#1094=CARTESIAN_POINT('',(-0.0252,0.0804559532725371,0.0240251467732607));
#1095=CARTESIAN_POINT('',(-0.0252,0.08,0.0132));
#1096=CARTESIAN_POINT('',(-0.0252,0.08,0.01395));
#1097=CARTESIAN_POINT('',(-0.0252,0.08,0.0132));
#1098=CARTESIAN_POINT('',(-0.0289102687102911,0.08,0.0132));
#1099=CARTESIAN_POINT('',(-0.0298718071718296,0.08,0.01245));
#1100=CARTESIAN_POINT('',(0.0276692184691961,0.092,0.0144));
#1101=CARTESIAN_POINT('',(0.0276692184691961,0.0743318000468165,0.0144));
#1102=CARTESIAN_POINT('',(0.0276692184691961,0.0741443000468165,0.0149));
#1103=CARTESIAN_POINT('',(0.0271692184691961,0.0743318000468165,0.0144));
#1104=CARTESIAN_POINT('',(0.0276692184691961,0.0741443000468165,0.0149));
#1105=CARTESIAN_POINT('',(0.0276692184691961,0.0858556999531835,0.0149));
#1106=CARTESIAN_POINT('',(0.0276692184691961,0.0856681999531835,0.0144));
#1107=CARTESIAN_POINT('',(0.0271692184691961,0.0856681999531835,0.0144));
#1108=CARTESIAN_POINT('',(0.0271692184691961,0.0858556999531835,0.0144));
#1109=CARTESIAN_POINT('',(-0.0155,0.08,0.0144));
#1110=CARTESIAN_POINT('',(-0.0155,0.0743318000468165,0.0144));
#1111=CARTESIAN_POINT('',(-0.015,0.0743318000468165,0.0144));
#1112=CARTESIAN_POINT('',(-0.0155,0.0741443000468165,0.0149));
#1113=CARTESIAN_POINT('',(-0.015,0.092,0.0144));
#1114=CARTESIAN_POINT('',(-0.015,0.0856681999531835,0.0144));
#1115=CARTESIAN_POINT('',(-0.0155,0.0856681999531835,0.0144));
#1116=CARTESIAN_POINT('',(-0.0155,0.0858556999531835,0.0149));
#1117=CARTESIAN_POINT('',(-0.0155,0.08,0.0149));
#1118=CARTESIAN_POINT('',(0.0271692184691961,0.092,0.013));
#1119=CARTESIAN_POINT('',(0.0271692184691961,0.0755880500468165,0.01105));
#1120=CARTESIAN_POINT('',(0.0271692184691961,0.0756068000468165,0.011));
#1121=CARTESIAN_POINT('',(0.0271692184691961,0.0844119499531835,0.01105));
#1122=CARTESIAN_POINT('',(0.0271692184691961,0.0843931999531835,0.011));
#1123=CARTESIAN_POINT('',(0.0271692184691961,0.092,0.011));
#1124=CARTESIAN_POINT('',(-0.015,0.092,0.013));
#1125=CARTESIAN_POINT('',(-0.015,0.0844119499531835,0.01105));
#1126=CARTESIAN_POINT('',(-0.015,0.0843931999531835,0.011));
#1127=CARTESIAN_POINT('',(-0.015,0.0755880500468165,0.01105));
#1128=CARTESIAN_POINT('',(-0.015,0.0756068000468165,0.011));
#1129=CARTESIAN_POINT('',(-0.015,0.092,0.011));
#1130=CARTESIAN_POINT('',(-0.0256991388038847,0.0601244499531835,0.0119));
#1131=CARTESIAN_POINT('',(-0.0256991388038847,0.0752693000468165,0.0119));
#1132=CARTESIAN_POINT('',(-0.0256991388038847,0.0741443000468165,0.0149));
#1133=CARTESIAN_POINT('',(-0.0275442341999663,0.0743822349525465,0.0142655069180534));
#1134=CARTESIAN_POINT('',(-0.0256991388038847,0.0741443000468165,0.0149));
#1135=CARTESIAN_POINT('',(-0.0256991388038847,0.0858556999531835,0.0149));
#1136=CARTESIAN_POINT('',(-0.0256991388038847,0.0847306999531835,0.0119));
#1137=CARTESIAN_POINT('',(-0.0275442341999663,0.0856177650474535,0.0142655069180534));
#1138=CARTESIAN_POINT('',(-0.0275442341999663,0.0858556999531835,0.0142655069180534));
#1139=CARTESIAN_POINT('',(-0.029230781530804,0.0601244499531835,0.01295));
#1140=CARTESIAN_POINT('',(-0.0317045208909557,0.0755991188096609,0.0110204832990817));
#1141=CARTESIAN_POINT('',(-0.0317307815308039,0.0756068000468165,0.011));
#1142=CARTESIAN_POINT('',(-0.029230781530804,0.0851244499531835,0.01295));
#1143=CARTESIAN_POINT('',(-0.0317307815308039,0.0843931999531835,0.011));
#1144=CARTESIAN_POINT('',(-0.0317307815308039,0.0645,0.011));
#1145=CARTESIAN_POINT('',(-0.0317307815308039,0.0844119499531835,0.01105));
#1146=CARTESIAN_POINT('',(-0.0317307815308039,0.0858556999531835,0.0149));
#1147=CARTESIAN_POINT('',(-0.0317307815308039,0.0843931999531835,0.011));
#1148=CARTESIAN_POINT('',(0.016,0.056,0.038));
#1149=CARTESIAN_POINT('',(0.016,0.0605,0.038));
#1150=CARTESIAN_POINT('',(0.016,0.0605,0.011));
#1151=CARTESIAN_POINT('',(0.016,0.0605,0.008));
#1152=CARTESIAN_POINT('',(0.016,0.056,0.011));
#1153=CARTESIAN_POINT('',(0.016,0.056,0.011));
#1154=CARTESIAN_POINT('',(0.016,0.056,0.0137515910405927));
#1155=CARTESIAN_POINT('',(0.016,0.056,0.008));
#1156=CARTESIAN_POINT('',(0.016,0.059,0.008));
#1157=CARTESIAN_POINT('',(0.016,0.059,0.005));
#1158=CARTESIAN_POINT('',(0.016,0.0564738550558686,0.005));
#1159=CARTESIAN_POINT('',(0.016,0.0635,0.005));
#1160=CARTESIAN_POINT('',(0.016,0.0635,0.008));
#1161=CARTESIAN_POINT('',(-0.0107097904066303,0.064,0.011));
#1162=CARTESIAN_POINT('',(-0.0107097904066303,0.064,0.011));
#1163=CARTESIAN_POINT('',(-0.0107097904066303,0.056,0.011));
#1164=CARTESIAN_POINT('',(-0.0152470115881904,0.0574110984261713,0.011));
#1165=CARTESIAN_POINT('',(-0.0152470115881904,0.0574110984261713,0.0272571129030342));
#1166=CARTESIAN_POINT('',(-0.0152470115881904,0.0574110984261713,0.00545532088689267));
#1167=CARTESIAN_POINT('',(-0.0152470115881904,0.0574110984261713,0.00545532088689268));
#1168=CARTESIAN_POINT('',(-0.013819337717171,0.0564279797598251,0.00606918170265208));
#1169=CARTESIAN_POINT('',(-0.0122564054389375,0.056,0.00705289630263758));
#1170=CARTESIAN_POINT('',(-0.0107097904066303,0.056,0.008));
#1171=CARTESIAN_POINT('',(-0.0107097904066303,0.056,0.008));
#1172=CARTESIAN_POINT('',(-0.0107097904066303,0.056,0.0125561139816909));
#1173=CARTESIAN_POINT('',(-0.0107136601228342,0.096,0.011));
#1174=CARTESIAN_POINT('',(-0.0107136601228342,0.096,0.011));
#1175=CARTESIAN_POINT('',(-0.0152508813043944,0.102588901573829,0.011));
#1176=CARTESIAN_POINT('',(-0.0107136601228342,0.104,0.011));
#1177=CARTESIAN_POINT('',(-0.0107136601228342,0.104,0.008));
#1178=CARTESIAN_POINT('',(-0.0107136601228342,0.104,0.008));
#1179=CARTESIAN_POINT('',(-0.0152508813043943,0.102588901573829,0.0054553208868927));
#1180=CARTESIAN_POINT('',(-0.0138232074333748,0.103572020240175,0.00606918170265211));
#1181=CARTESIAN_POINT('',(-0.0122602751550882,0.104,0.00705289630255073));
#1182=CARTESIAN_POINT('',(-0.0107136601228342,0.104,0.008));
#1183=CARTESIAN_POINT('',(-0.0152508813043943,0.102588901573829,0.00545532088689268));
#1184=CARTESIAN_POINT('',(-0.0152508813043944,0.102588901573829,0.00545532088689266));
#1185=CARTESIAN_POINT('',(-0.035,0.104,0.011));
#1186=CARTESIAN_POINT('',(-0.035,0.104,0.011));
#1187=CARTESIAN_POINT('',(0.0301692184691961,0.104,0.011));
#1188=CARTESIAN_POINT('',(0.0301692184691961,0.104,0.011));
#1189=CARTESIAN_POINT('',(0.0301692184691961,0.104,0.008));
#1190=CARTESIAN_POINT('',(0.016,0.104,0.008));
#1191=CARTESIAN_POINT('',(0.00513335923459802,0.0605,0.024475));
#1192=CARTESIAN_POINT('',(0.0301692184691961,0.0605,0.024475));
#1193=CARTESIAN_POINT('',(0.0301692184691961,0.0605,0.011));
#1194=CARTESIAN_POINT('',(0.0301692184691961,0.0605,0.008));
#1195=CARTESIAN_POINT('',(0.00513335923459802,0.0605,0.011));
#1196=CARTESIAN_POINT('',(0.00513335923459802,0.0605,0.008));
#1197=CARTESIAN_POINT('',(0.0331692184691961,0.0645,0.024475));
#1198=CARTESIAN_POINT('',(0.0331692184691961,0.101,0.024475));
#1199=CARTESIAN_POINT('',(0.0331692184691961,0.101,0.008));
#1200=CARTESIAN_POINT('',(0.0331692184691961,0.101,0.011));
#1201=CARTESIAN_POINT('',(0.0331692184691961,0.0645,0.011));
#1202=CARTESIAN_POINT('',(0.0331692184691961,0.0843931999531835,0.011));
#1203=CARTESIAN_POINT('',(0.0331692184691961,0.0844119499531835,0.01105));
#1204=CARTESIAN_POINT('',(0.0331692184691961,0.0858556999531835,0.0149));
#1205=CARTESIAN_POINT('',(0.0331692184691961,0.08,0.0149));
#1206=CARTESIAN_POINT('',(0.0331692184691961,0.0741443000468165,0.0149));
#1207=CARTESIAN_POINT('',(0.0331692184691961,0.0755880500468165,0.01105));
#1208=CARTESIAN_POINT('',(0.0331692184691961,0.0756068000468165,0.011));
#1209=CARTESIAN_POINT('',(0.0331692184691961,0.0645,0.011));
#1210=CARTESIAN_POINT('',(0.0331692184691961,0.0635,0.011));
#1211=CARTESIAN_POINT('',(0.0331692184691961,0.0635,0.024475));
#1212=CARTESIAN_POINT('',(0.0331692184691961,0.0635,0.008));
#1213=CARTESIAN_POINT('',(0.0331692184691961,0.0645,0.008));
#1214=CARTESIAN_POINT('',(0.0301692184691961,0.101,0.024475));
#1215=CARTESIAN_POINT('',(0.0301692184691961,0.101,0.011));
#1216=CARTESIAN_POINT('',(0.0301692184691961,0.101,0.008));
#1217=CARTESIAN_POINT('',(0.0301692184691961,0.0635,0.024475));
#1218=CARTESIAN_POINT('',(0.0301692184691961,0.0635,0.011));
#1219=CARTESIAN_POINT('',(0.0301692184691961,0.0635,0.008));
#1220=CARTESIAN_POINT('',(-0.0128436552207331,0.10424655528943,0.137627988879726));
#1221=CARTESIAN_POINT('',(-0.0315417967395561,0.0913707211607206,0.0366502977089849));
#1222=CARTESIAN_POINT('',(-0.0315417967394683,0.0913707211607807,0.011));
#1223=CARTESIAN_POINT('',(-0.0128436552207331,0.10424655528943,0.011));
#1224=CARTESIAN_POINT('',(-0.0175582663009659,0.101,0.008));
#1225=CARTESIAN_POINT('',(-0.0175582663009659,0.101,0.005));
#1226=CARTESIAN_POINT('',(-0.0175582663009659,0.101,0.005));
#1227=CARTESIAN_POINT('',(-0.0352000000000002,0.0846007800988142,0.005));
#1228=CARTESIAN_POINT('',(-0.0352000000000002,0.0846007800988142,0.011));
#1229=CARTESIAN_POINT('',(-0.0351883490772943,0.0859405442934387,0.005));
#1230=CARTESIAN_POINT('',(-0.0351883490772943,0.0859405442934387,0.011));
#1231=CARTESIAN_POINT('',(-0.0345606452911288,0.0885126784766614,0.00500000000000002));
#1232=CARTESIAN_POINT('',(-0.0345606452911288,0.0885126784766614,0.011));
#1233=CARTESIAN_POINT('',(-0.0328037839624007,0.0904985867478923,0.00499999999999995));
#1234=CARTESIAN_POINT('',(-0.0328037839624007,0.0904985867478923,0.0109999999999999));
#1235=CARTESIAN_POINT('',(-0.0315417967397337,0.0913707211605967,0.005));
#1236=CARTESIAN_POINT('',(-0.0315417967397337,0.0913707211605967,0.011));
#1237=CARTESIAN_POINT('',(-0.0352,0.0846007800988348,0.0207673457212634));
#1238=CARTESIAN_POINT('',(-0.0352,0.0846007800988524,0.011));
#1239=CARTESIAN_POINT('',(-0.0352,0.0846007800988333,0.011));
#1240=CARTESIAN_POINT('',(-0.0351941422721036,0.0852743725940876,0.011));
#1241=CARTESIAN_POINT('',(-0.0350320801992043,0.0865966249365825,0.011));
#1242=CARTESIAN_POINT('',(-0.0343120801656092,0.0884920896618074,0.011));
#1243=CARTESIAN_POINT('',(-0.0331263012539683,0.0901280058559315,0.011));
#1244=CARTESIAN_POINT('',(-0.0320955483282906,0.0909880343886586,0.011));
#1245=CARTESIAN_POINT('',(-0.0315417967396008,0.0913707211606886,0.011));
#1246=CARTESIAN_POINT('',(-0.0128436552207332,0.055756109457968,0.137627988879726));
#1247=CARTESIAN_POINT('',(-0.0128436552207332,0.055756109457968,0.011));
#1248=CARTESIAN_POINT('',(-0.0315417967395475,0.0686319435866718,0.011));
#1249=CARTESIAN_POINT('',(-0.0315417967395475,0.0686319435866718,0.0366502977089849));
#1250=CARTESIAN_POINT('',(-0.0315417967395476,0.0686319435866716,0.005));
#1251=CARTESIAN_POINT('',(-0.017554396584762,0.059,0.005));
#1252=CARTESIAN_POINT('',(-0.017554396584762,0.059,0.008));
#1253=CARTESIAN_POINT('',(-0.0315417967397354,0.0686319435868012,0.005));
#1254=CARTESIAN_POINT('',(-0.0315417967397354,0.0686319435868012,0.011));
#1255=CARTESIAN_POINT('',(-0.0327761185870936,0.0694819170110578,0.00499999999999995));
#1256=CARTESIAN_POINT('',(-0.0327761185870936,0.0694819170110578,0.011));
#1257=CARTESIAN_POINT('',(-0.0345492299702489,0.0714520761967953,0.00500000000000002));
#1258=CARTESIAN_POINT('',(-0.0345492299702489,0.0714520761967953,0.011));
#1259=CARTESIAN_POINT('',(-0.0351882902784838,0.0740533646347366,0.005));
#1260=CARTESIAN_POINT('',(-0.0351882902784838,0.0740533646347366,0.011));
#1261=CARTESIAN_POINT('',(-0.0352000000000002,0.0753992199011844,0.005));
#1262=CARTESIAN_POINT('',(-0.0352000000000002,0.0753992199011844,0.011));
#1263=CARTESIAN_POINT('',(-0.0315417967396415,0.0686319435867365,0.011));
#1264=CARTESIAN_POINT('',(-0.0320957695402723,0.0690134179641894,0.011));
#1265=CARTESIAN_POINT('',(-0.0331196372675704,0.0698657363436057,0.011));
#1266=CARTESIAN_POINT('',(-0.0347098985922232,0.0720574439284316,0.011));
#1267=CARTESIAN_POINT('',(-0.0351882758626369,0.074051707751496,0.011));
#1268=CARTESIAN_POINT('',(-0.0352,0.0753992199011748,0.011));
#1269=CARTESIAN_POINT('',(-0.0352,0.0753992199011653,0.011));
#1270=CARTESIAN_POINT('',(-0.0352,0.0753992199011653,0.0227001597232355));
#1271=CARTESIAN_POINT('',(-0.0352,0.096,0.005));
#1272=CARTESIAN_POINT('',(-0.0352,0.096,0.011));
#1273=CARTESIAN_POINT('',(-0.035,0.056,0.011));
#1274=CARTESIAN_POINT('',(-0.035,0.056,0.011));
#1275=CARTESIAN_POINT('',(-0.0107097904066303,0.056,0.008));
#1276=CARTESIAN_POINT('',(0.0301692184691961,0.0635,0.008));
#1277=CARTESIAN_POINT('',(0.0301692184691961,0.0635,0.008));
#1278=CARTESIAN_POINT('',(0.0301692184691961,0.0635,0.005));
#1279=CARTESIAN_POINT('',(0.0301692184691961,0.0635,0.008));
#1280=CARTESIAN_POINT('',(0.0301692184691961,0.101,0.008));
#1281=CARTESIAN_POINT('',(0.0301692184691961,0.101,0.008));
#1282=CARTESIAN_POINT('',(0.0301692184691961,0.101,0.005));
#1283=CARTESIAN_POINT('',(0.0301692184691961,0.101,0.008));
#1284=CARTESIAN_POINT('',(0.0301692184691961,0.0645,0.008));
#1285=CARTESIAN_POINT('',(0.0301692184691961,0.08,0.005));
#1286=CARTESIAN_POINT('',(0.00513335923459802,0.0635,0.008));
#1287=CARTESIAN_POINT('',(-2.23616698075135E-18,0.0635,0.005));
#1288=CARTESIAN_POINT('',(0.0298,0.0635,0.005));
#1289=CARTESIAN_POINT('',(-2.23616698075135E-18,0.0635,0.005));
#1290=CARTESIAN_POINT('',(-0.035,0.101,0.008));
#1291=CARTESIAN_POINT('',(1.12089824601578E-18,0.101,0.005));
#1292=CARTESIAN_POINT('',(0.0298,0.101,0.005));
#1293=CARTESIAN_POINT('',(1.12089824601578E-18,0.101,0.005));
#1294=CARTESIAN_POINT('',(0.,0.08,0.005));
#1295=CARTESIAN_POINT('',(0.0298,0.08,0.005));
#1296=CARTESIAN_POINT('',(-0.035,0.059,0.008));
#1297=CARTESIAN_POINT('',(-0.017554396584762,0.059,0.005));
#1298=CARTESIAN_POINT('',(0.,0.08,0.011));
#1299=CARTESIAN_POINT('',(-0.0317307815308039,0.0756068000468165,0.011));
#1300=CARTESIAN_POINT('',(-0.0317307815308039,0.0843931999531835,0.011));
#1301=CARTESIAN_POINT('',(-0.0317307815308039,0.0756068000468165,0.011));
#1302=CARTESIAN_POINT('',(-0.0317307815308039,0.0755880500468165,0.01105));
#1303=CARTESIAN_POINT('',(-0.0317307815308039,0.0741443000468165,0.0149));
#1304=CARTESIAN_POINT('',(-0.0317307815308039,0.08,0.0149));
#1305=CARTESIAN_POINT('',(-0.0317307815308039,0.0844119499531835,0.01105));
#1306=CARTESIAN_POINT('',(-0.0317307815308039,0.0858556999531835,0.0149));
#1307=CARTESIAN_POINT('',(-0.0317307815308039,0.0755880500468165,0.01105));
#1308=CARTESIAN_POINT('',(-0.0317307815308039,0.0741443000468165,0.0149));
#1309=CARTESIAN_POINT('',(-0.0317307815308039,0.08,0.0149));
#1310=CARTESIAN_POINT('',(-0.00277785097640216,0.08,0.005));
#1311=CARTESIAN_POINT('',(-0.0302,0.08,0.005));
#1312=CARTESIAN_POINT('',(-0.0302,0.05,0.005));
#1313=CARTESIAN_POINT('',(-0.000200000000000003,0.05,0.005));
#1314=CARTESIAN_POINT('',(0.0298,0.05,0.005));
#1315=CARTESIAN_POINT('',(0.0298,0.08,0.005));
#1316=CARTESIAN_POINT('',(0.0298,0.08,-0.055));
#1317=CARTESIAN_POINT('',(0.0298,0.08,0.005));
#1318=CARTESIAN_POINT('',(0.0298,0.11,0.005));
#1319=CARTESIAN_POINT('',(0.0298,0.05,-0.055));
#1320=CARTESIAN_POINT('',(0.0298,0.05,-0.055));
#1321=CARTESIAN_POINT('',(0.0298,0.08,-0.055));
#1322=CARTESIAN_POINT('',(0.0298,0.11,-0.055));
#1323=CARTESIAN_POINT('',(0.0298,0.11,-0.055));
#1324=CARTESIAN_POINT('',(-0.000200000000000003,0.11,-0.055));
#1325=CARTESIAN_POINT('',(-0.000200000000000003,0.11,0.005));
#1326=CARTESIAN_POINT('',(-0.0302,0.11,0.005));
#1327=CARTESIAN_POINT('',(-0.000200000000000003,0.11,-0.055));
#1328=CARTESIAN_POINT('',(-0.0302,0.11,-0.055));
#1329=CARTESIAN_POINT('',(-0.0302,0.11,-0.055));
#1330=CARTESIAN_POINT('',(-0.0302,0.08,-0.055));
#1331=CARTESIAN_POINT('',(-0.0302,0.08,0.005));
#1332=CARTESIAN_POINT('',(-0.0302,0.08,-0.055));
#1333=CARTESIAN_POINT('',(-0.0302,0.05,-0.055));
#1334=CARTESIAN_POINT('',(-0.0302,0.05,-0.055));
#1335=CARTESIAN_POINT('',(-0.000200000000000003,0.05,-0.055));
#1336=CARTESIAN_POINT('',(-0.000200000000000003,0.05,-0.055));
#1337=CARTESIAN_POINT('',(-0.00277785097640216,0.08,-0.055));
#1338=CARTESIAN_POINT('',(-0.00277785097640216,0.08,0.005));
#1339=MECHANICAL_DESIGN_GEOMETRIC_PRESENTATION_REPRESENTATION('',(#782),
#1340);
#1340=(
GEOMETRIC_REPRESENTATION_CONTEXT(3)
GLOBAL_UNCERTAINTY_ASSIGNED_CONTEXT((#1341))
GLOBAL_UNIT_ASSIGNED_CONTEXT((#1344,#1343,#1342))
REPRESENTATION_CONTEXT('Wrist_Roll_05m_Leader_02ba v1',
'TOP_LEVEL_ASSEMBLY_PART')
);
#1341=UNCERTAINTY_MEASURE_WITH_UNIT(LENGTH_MEASURE(2.E-5),#1344,
'DISTANCE_ACCURACY_VALUE','Maximum Tolerance applied to model');
#1342=(
NAMED_UNIT(*)
SI_UNIT($,.STERADIAN.)
SOLID_ANGLE_UNIT()
);
#1343=(
NAMED_UNIT(*)
PLANE_ANGLE_UNIT()
SI_UNIT($,.RADIAN.)
);
#1344=(
LENGTH_UNIT()
NAMED_UNIT(*)
SI_UNIT($,.METRE.)
);
#1345=PRODUCT_DEFINITION_SHAPE('','',#1346);
#1346=PRODUCT_DEFINITION('','',#1348,#1347);
#1347=PRODUCT_DEFINITION_CONTEXT('',#1354,'design');
#1348=PRODUCT_DEFINITION_FORMATION_WITH_SPECIFIED_SOURCE('','',#1350,
 .NOT_KNOWN.);
#1349=PRODUCT_RELATED_PRODUCT_CATEGORY('','',(#1350));
#1350=PRODUCT('Wrist_Roll_05m_Leader_02ba v1',
'Wrist_Roll_05m_Leader_02ba v1','Wrist_Roll_05m_Leader_02ba v1',(#1352));
#1351=PRODUCT_CATEGORY('','');
#1352=PRODUCT_CONTEXT('',#1354,'mechanical');
#1353=APPLICATION_PROTOCOL_DEFINITION('international standard',
'ap242_managed_model_based_3d_engineering',2011,#1354);
#1354=APPLICATION_CONTEXT('managed model based 3d engineering');
ENDSEC;
END-ISO-10303-21;
