ISO-10303-21;
HEADER;
/* Generated by software containing ST-Developer
 * from STEP Tools, Inc. (www.steptools.com) 
 */
/* OPTION: using custom renumber hook */

FILE_DESCRIPTION(
/* description */ ('STEP AP242',
'CAx-IF Rec.Pracs.---Representation and Presentation of Product Manufa
cturing Information (PMI)---4.0---2014-10-13',
'CAx-IF Rec.Pracs.---3D Tessellated Geometry---0.4---2014-09-14','2;1'),

/* implementation_level */ '2;1');

FILE_NAME(
/* name */ '6841605998072e6e0d9fe6c9',
/* time_stamp */ '2025-06-05T09:16:10Z',
/* author */ (''),
/* organization */ (''),
/* preprocessor_version */ 'ST-DEVELOPER v20',
/* originating_system */ 'ONSHAPE BY PTC INC, 1.198',
/* authorisation */ '  ');

FILE_SCHEMA (('AP242_MANAGED_MODEL_BASED_3D_ENGINEERING_MIM_LF { 1 0 10303 442 1 1 4 }'));
ENDSEC;

DATA;
#10=SHAPE_REPRESENTATION_RELATIONSHIP('','',#80,#11);
#11=ADVANCED_BREP_SHAPE_REPRESENTATION('',(#78),#135);
#12=TOROIDAL_SURFACE('',#87,0.0034,0.0005);
#13=CYLINDRICAL_SURFACE('',#84,0.0039);
#14=CYLINDRICAL_SURFACE('',#88,0.006);
#15=ORIENTED_EDGE('',*,*,#25,.T.);
#16=ORIENTED_EDGE('',*,*,#26,.T.);
#17=ORIENTED_EDGE('',*,*,#27,.F.);
#18=ORIENTED_EDGE('',*,*,#26,.F.);
#19=ORIENTED_EDGE('',*,*,#25,.F.);
#20=ORIENTED_EDGE('',*,*,#28,.T.);
#21=ORIENTED_EDGE('',*,*,#29,.F.);
#22=ORIENTED_EDGE('',*,*,#27,.T.);
#23=ORIENTED_EDGE('',*,*,#28,.F.);
#24=ORIENTED_EDGE('',*,*,#29,.T.);
#25=EDGE_CURVE('',#30,#30,#35,.F.);
#26=EDGE_CURVE('',#31,#31,#36,.T.);
#27=EDGE_CURVE('',#32,#32,#37,.T.);
#28=EDGE_CURVE('',#33,#33,#38,.T.);
#29=EDGE_CURVE('',#34,#34,#39,.T.);
#30=VERTEX_POINT('',#120);
#31=VERTEX_POINT('',#123);
#32=VERTEX_POINT('',#125);
#33=VERTEX_POINT('',#129);
#34=VERTEX_POINT('',#131);
#35=CIRCLE('',#83,0.0034);
#36=CIRCLE('',#85,0.0039);
#37=CIRCLE('',#86,0.0039);
#38=CIRCLE('',#89,0.006);
#39=CIRCLE('',#90,0.006);
#40=EDGE_LOOP('',(#15));
#41=EDGE_LOOP('',(#16));
#42=EDGE_LOOP('',(#17));
#43=EDGE_LOOP('',(#18));
#44=EDGE_LOOP('',(#19));
#45=EDGE_LOOP('',(#20));
#46=EDGE_LOOP('',(#21));
#47=EDGE_LOOP('',(#22));
#48=EDGE_LOOP('',(#23));
#49=EDGE_LOOP('',(#24));
#50=FACE_BOUND('',#40,.T.);
#51=FACE_BOUND('',#41,.T.);
#52=FACE_BOUND('',#42,.T.);
#53=FACE_BOUND('',#43,.T.);
#54=FACE_BOUND('',#44,.T.);
#55=FACE_BOUND('',#45,.T.);
#56=FACE_BOUND('',#46,.T.);
#57=FACE_BOUND('',#47,.T.);
#58=FACE_BOUND('',#48,.T.);
#59=FACE_BOUND('',#49,.T.);
#60=PLANE('',#82);
#61=PLANE('',#91);
#62=PLANE('',#92);
#63=ADVANCED_FACE('',(#50),#60,.F.);
#64=ADVANCED_FACE('',(#51,#52),#13,.T.);
#65=ADVANCED_FACE('',(#53,#54),#12,.T.);
#66=ADVANCED_FACE('',(#55,#56),#14,.T.);
#67=ADVANCED_FACE('',(#57,#58),#61,.F.);
#68=ADVANCED_FACE('',(#59),#62,.T.);
#69=CLOSED_SHELL('',(#63,#64,#65,#66,#67,#68));
#70=STYLED_ITEM('',(#71),#78);
#71=PRESENTATION_STYLE_ASSIGNMENT((#72));
#72=SURFACE_STYLE_USAGE(.BOTH.,#73);
#73=SURFACE_SIDE_STYLE('',(#74));
#74=SURFACE_STYLE_FILL_AREA(#75);
#75=FILL_AREA_STYLE('',(#76));
#76=FILL_AREA_STYLE_COLOUR('',#77);
#77=COLOUR_RGB('',0.729411764705882,0.250980392156863,0.105882352941176);
#78=MANIFOLD_SOLID_BREP('Part 4',#69);
#79=SHAPE_DEFINITION_REPRESENTATION(#140,#80);
#80=SHAPE_REPRESENTATION('Part 4',(#81),#135);
#81=AXIS2_PLACEMENT_3D('',#117,#93,#94);
#82=AXIS2_PLACEMENT_3D('',#118,#95,#96);
#83=AXIS2_PLACEMENT_3D('',#119,#97,#98);
#84=AXIS2_PLACEMENT_3D('',#121,#99,#100);
#85=AXIS2_PLACEMENT_3D('',#122,#101,#102);
#86=AXIS2_PLACEMENT_3D('',#124,#103,#104);
#87=AXIS2_PLACEMENT_3D('',#126,#105,#106);
#88=AXIS2_PLACEMENT_3D('',#127,#107,#108);
#89=AXIS2_PLACEMENT_3D('',#128,#109,#110);
#90=AXIS2_PLACEMENT_3D('',#130,#111,#112);
#91=AXIS2_PLACEMENT_3D('',#132,#113,#114);
#92=AXIS2_PLACEMENT_3D('',#133,#115,#116);
#93=DIRECTION('',(0.,0.,1.));
#94=DIRECTION('',(1.,0.,0.));
#95=DIRECTION('',(0.,1.,0.));
#96=DIRECTION('',(0.,0.,1.));
#97=DIRECTION('',(0.,1.,0.));
#98=DIRECTION('',(0.,0.,1.));
#99=DIRECTION('',(0.,1.,0.));
#100=DIRECTION('',(0.,0.,1.));
#101=DIRECTION('',(0.,1.,0.));
#102=DIRECTION('',(0.,0.,1.));
#103=DIRECTION('',(0.,1.,0.));
#104=DIRECTION('',(0.,0.,1.));
#105=DIRECTION('',(0.,1.,0.));
#106=DIRECTION('',(0.,0.,1.));
#107=DIRECTION('',(0.,-1.,0.));
#108=DIRECTION('',(0.,0.,-1.));
#109=DIRECTION('',(0.,1.,0.));
#110=DIRECTION('',(0.,0.,1.));
#111=DIRECTION('',(0.,1.,0.));
#112=DIRECTION('',(0.,0.,1.));
#113=DIRECTION('',(0.,1.,0.));
#114=DIRECTION('',(-1.,0.,0.));
#115=DIRECTION('',(0.,1.,0.));
#116=DIRECTION('',(-1.,0.,0.));
#117=CARTESIAN_POINT('',(0.,0.,0.));
#118=CARTESIAN_POINT('',(-0.0759603241143077,-0.0147,0.0587869564681942));
#119=CARTESIAN_POINT('',(-0.0484193808859086,-0.0147,0.068104103319892));
#120=CARTESIAN_POINT('',(-0.0484193808859086,-0.0147,0.071504103319892));
#121=CARTESIAN_POINT('',(-0.0484193808859086,-0.348631206342672,0.068104103319892));
#122=CARTESIAN_POINT('',(-0.0484193808859086,-0.0142,0.068104103319892));
#123=CARTESIAN_POINT('',(-0.0484193808859086,-0.0142,0.072004103319892));
#124=CARTESIAN_POINT('',(-0.0484193808859086,-0.01,0.068104103319892));
#125=CARTESIAN_POINT('',(-0.0484193808859086,-0.01,0.072004103319892));
#126=CARTESIAN_POINT('',(-0.0484193808859086,-0.0142,0.068104103319892));
#127=CARTESIAN_POINT('',(-0.0484193808859086,0.325431206342671,0.068104103319892));
#128=CARTESIAN_POINT('',(-0.0484193808859086,-0.01,0.068104103319892));
#129=CARTESIAN_POINT('',(-0.0484193808859086,-0.01,0.074104103319892));
#130=CARTESIAN_POINT('',(-0.0484193808859086,-0.0065,0.068104103319892));
#131=CARTESIAN_POINT('',(-0.0484193808859086,-0.0065,0.074104103319892));
#132=CARTESIAN_POINT('',(-0.0484193808859086,-0.01,0.068104103319892));
#133=CARTESIAN_POINT('',(-0.0574824587562751,-0.0065,0.072330285937299));
#134=MECHANICAL_DESIGN_GEOMETRIC_PRESENTATION_REPRESENTATION('',(#70),#135);
#135=(
GEOMETRIC_REPRESENTATION_CONTEXT(3)
GLOBAL_UNCERTAINTY_ASSIGNED_CONTEXT((#136))
GLOBAL_UNIT_ASSIGNED_CONTEXT((#139,#138,#137))
REPRESENTATION_CONTEXT('Part 4','TOP_LEVEL_ASSEMBLY_PART')
);
#136=UNCERTAINTY_MEASURE_WITH_UNIT(LENGTH_MEASURE(1.E-8),#139,
'DISTANCE_ACCURACY_VALUE','Maximum Tolerance applied to model');
#137=(
NAMED_UNIT(*)
SI_UNIT($,.STERADIAN.)
SOLID_ANGLE_UNIT()
);
#138=(
NAMED_UNIT(*)
PLANE_ANGLE_UNIT()
SI_UNIT($,.RADIAN.)
);
#139=(
LENGTH_UNIT()
NAMED_UNIT(*)
SI_UNIT($,.METRE.)
);
#140=PRODUCT_DEFINITION_SHAPE('','',#141);
#141=PRODUCT_DEFINITION('','',#143,#142);
#142=PRODUCT_DEFINITION_CONTEXT('',#149,'design');
#143=PRODUCT_DEFINITION_FORMATION_WITH_SPECIFIED_SOURCE('','',#145,
 .NOT_KNOWN.);
#144=PRODUCT_RELATED_PRODUCT_CATEGORY('','',(#145));
#145=PRODUCT('Part 4','Part 4','Part 4',(#147));
#146=PRODUCT_CATEGORY('','');
#147=PRODUCT_CONTEXT('',#149,'mechanical');
#148=APPLICATION_PROTOCOL_DEFINITION('international standard',
'ap242_managed_model_based_3d_engineering',2011,#149);
#149=APPLICATION_CONTEXT('managed model based 3d engineering');
ENDSEC;
END-ISO-10303-21;
