ISO-10303-21;
HEADER;
/* Generated by software containing ST-Developer
 * from STEP Tools, Inc. (www.steptools.com) 
 */
/* OPTION: using custom renumber hook */

FILE_DESCRIPTION(
/* description */ ('STEP AP242',
'CAx-IF Rec.Pracs.---Representation and Presentation of Product Manufa
cturing Information (PMI)---4.0---2014-10-13',
'CAx-IF Rec.Pracs.---3D Tessellated Geometry---0.4---2014-09-14','2;1'),

/* implementation_level */ '2;1');

FILE_NAME(
/* name */ '6841603298072e6e0d9fe665',
/* time_stamp */ '2025-06-05T09:15:31Z',
/* author */ (''),
/* organization */ (''),
/* preprocessor_version */ 'ST-DEVELOPER v20',
/* originating_system */ 'ONSHAPE BY PTC INC, 1.198',
/* authorisation */ '  ');

FILE_SCHEMA (('AP242_MANAGED_MODEL_BASED_3D_ENGINEERING_MIM_LF { 1 0 10303 442 1 1 4 }'));
ENDSEC;

DATA;
#10=SHAPE_REPRESENTATION_RELATIONSHIP('','',#549,#11);
#11=ADVANCED_BREP_SHAPE_REPRESENTATION('',(#547),#1437);
#12=B_SPLINE_SURFACE_WITH_KNOTS('',3,3,((#795,#796,#797,#798),(#799,#800,
#801,#802),(#803,#804,#805,#806),(#807,#808,#809,#810)),.UNSPECIFIED.,.F.,
 .F.,.F.,(4,4),(4,4),(0.150012296909482,0.152199697440243),(-6.18777402073528E-5,
0.0106938502864826),.UNSPECIFIED.);
#13=PLANE('',#557);
#14=PLANE('',#559);
#15=PLANE('',#568);
#16=PLANE('',#569);
#17=PLANE('',#572);
#18=PLANE('',#573);
#19=PLANE('',#574);
#20=PLANE('',#575);
#21=PLANE('',#576);
#22=PLANE('',#577);
#23=PLANE('',#578);
#24=PLANE('',#579);
#25=PLANE('',#582);
#26=PLANE('',#583);
#27=PLANE('',#588);
#28=PLANE('',#591);
#29=PLANE('',#592);
#30=PLANE('',#593);
#31=PLANE('',#597);
#32=PLANE('',#598);
#33=B_SPLINE_CURVE_WITH_KNOTS('',3,(#755,#756,#757,#758),.UNSPECIFIED.,
 .F.,.F.,(4,4),(9.88427820015513E-5,0.00232474993135596),.UNSPECIFIED.);
#34=B_SPLINE_CURVE_WITH_KNOTS('',3,(#811,#812,#813,#814,#815,#816,#817,
#818,#819,#820,#821,#822,#823,#824,#825,#826,#827,#828,#829,#830,#831,#832,
#833,#834,#835,#836,#837,#838,#839,#840,#841,#842,#843,#844,#845,#846,#847,
#848,#849,#850,#851,#852,#853,#854,#855,#856,#857,#858,#859,#860,#861,#862,
#863,#864,#865,#866,#867,#868,#869,#870,#871,#872,#873,#874,#875,#876,#877,
#878,#879,#880,#881,#882,#883,#884,#885,#886,#887,#888,#889,#890,#891,#892,
#893,#894,#895,#896,#897,#898,#899,#900,#901,#902,#903,#904,#905,#906,#907,
#908,#909,#910,#911,#912,#913,#914,#915,#916,#917,#918,#919,#920,#921,#922,
#923,#924,#925,#926,#927,#928,#929,#930,#931,#932,#933,#934,#935,#936,#937,
#938,#939,#940,#941,#942,#943,#944,#945,#946,#947,#948,#949,#950,#951,#952,
#953,#954,#955,#956,#957,#958,#959,#960,#961,#962,#963,#964,#965,#966,#967,
#968,#969,#970,#971,#972,#973,#974,#975,#976,#977,#978,#979,#980,#981,#982,
#983,#984,#985,#986,#987,#988,#989,#990,#991,#992,#993,#994,#995,#996,#997,
#998,#999,#1000,#1001,#1002,#1003,#1004,#1005,#1006,#1007,#1008,#1009,#1010,
#1011,#1012,#1013,#1014,#1015,#1016,#1017,#1018,#1019,#1020,#1021,#1022,
#1023,#1024,#1025,#1026,#1027,#1028,#1029,#1030,#1031,#1032,#1033,#1034,
#1035,#1036,#1037,#1038,#1039,#1040,#1041,#1042,#1043,#1044,#1045,#1046,
#1047,#1048,#1049,#1050,#1051,#1052,#1053,#1054,#1055,#1056,#1057,#1058,
#1059,#1060,#1061,#1062,#1063,#1064,#1065,#1066,#1067,#1068,#1069,#1070,
#1071,#1072,#1073,#1074,#1075,#1076,#1077,#1078,#1079,#1080,#1081,#1082,
#1083,#1084,#1085,#1086,#1087,#1088,#1089,#1090,#1091,#1092,#1093,#1094,
#1095,#1096,#1097,#1098,#1099,#1100,#1101,#1102,#1103,#1104,#1105,#1106,
#1107,#1108,#1109,#1110,#1111,#1112,#1113,#1114,#1115,#1116,#1117,#1118,
#1119,#1120,#1121,#1122,#1123,#1124,#1125,#1126,#1127,#1128,#1129,#1130,
#1131,#1132,#1133,#1134,#1135,#1136,#1137,#1138,#1139,#1140,#1141,#1142,
#1143,#1144,#1145,#1146,#1147,#1148,#1149,#1150,#1151,#1152,#1153,#1154,
#1155,#1156,#1157,#1158,#1159,#1160,#1161,#1162,#1163,#1164,#1165,#1166,
#1167,#1168,#1169,#1170,#1171,#1172,#1173,#1174,#1175,#1176,#1177,#1178,
#1179,#1180,#1181,#1182,#1183,#1184,#1185,#1186,#1187,#1188,#1189,#1190,
#1191,#1192,#1193,#1194,#1195,#1196,#1197,#1198,#1199,#1200,#1201,#1202,
#1203,#1204,#1205,#1206,#1207,#1208,#1209,#1210,#1211,#1212,#1213,#1214,
#1215,#1216,#1217,#1218,#1219,#1220,#1221,#1222,#1223,#1224,#1225,#1226,
#1227,#1228,#1229,#1230,#1231,#1232,#1233,#1234,#1235,#1236,#1237,#1238,
#1239,#1240,#1241,#1242,#1243,#1244,#1245,#1246,#1247,#1248,#1249,#1250,
#1251,#1252,#1253,#1254,#1255,#1256,#1257,#1258,#1259,#1260,#1261,#1262,
#1263,#1264,#1265,#1266,#1267,#1268,#1269,#1270,#1271,#1272,#1273,#1274,
#1275,#1276,#1277,#1278,#1279,#1280,#1281,#1282,#1283,#1284,#1285,#1286,
#1287,#1288,#1289,#1290,#1291,#1292,#1293,#1294,#1295,#1296,#1297,#1298,
#1299,#1300,#1301,#1302,#1303,#1304,#1305,#1306,#1307,#1308,#1309,#1310,
#1311,#1312,#1313,#1314,#1315,#1316,#1317,#1318,#1319,#1320,#1321,#1322,
#1323,#1324,#1325,#1326,#1327,#1328,#1329,#1330),.UNSPECIFIED.,.F.,.F.,
(4,3,3,3,3,3,3,3,3,3,3,3,3,3,3,3,3,3,3,3,3,3,3,3,3,3,3,3,3,3,3,3,3,3,3,
3,3,3,3,3,3,3,3,3,3,3,3,3,3,3,3,3,3,3,3,3,3,3,3,3,3,3,3,3,3,3,3,3,3,3,3,
3,3,3,3,3,3,3,3,3,3,3,3,3,3,3,3,3,3,3,3,3,3,3,3,3,3,3,3,3,3,3,3,3,3,3,3,
3,3,3,3,3,3,3,3,3,3,3,3,3,3,3,3,3,3,3,3,3,3,3,3,3,3,3,3,3,3,3,3,3,3,3,3,
3,3,3,3,3,3,3,3,3,3,3,3,3,3,3,3,3,3,3,3,3,3,3,3,3,3,3,3,3,3,4),(5.083721920159E-10,
0.000741802127726925,0.00228129412894232,0.0029121637768105,0.0038218594349988,
0.0053636022030203,0.00582432755362099,0.00690664798746493,0.008451278594493,
0.00873649133043149,0.00999777619413865,0.0101925732188367,0.011546194071652,
0.011648655107242,0.0123212217039382,0.0130960541323216,0.0131047369956472,
0.0138708814490851,0.0145608188840525,0.0146458327741066,0.0154207438595057,
0.0160169007724577,0.0161955826860712,0.0165830167788458,0.0167449417166604,
0.0169705600342201,0.0173580066503005,0.017472982660863,0.017745236775957,
0.0181327995750304,0.0182010236050656,0.0185203154188788,0.0187140186050253,
0.0189077097038412,0.0189290645492682,0.0191014069484106,0.0192930850213695,
0.019295150645982,0.0194889292996818,0.0196571054934708,0.0196825676146742,
0.019779374326414,0.0198762299626417,0.0199731347000344,0.0200211259655722,
0.0200701069729919,0.0201186032136108,0.0201670152850645,0.0202031362016228,
0.0202152805936728,0.0202636414298391,0.0203121246670534,0.0203363774351228,
0.0203606189742263,0.020384835348581,0.0203851464376735,0.0204090281301449,
0.0204573993940667,0.020505800928108,0.0205542923178684,0.0205671566737241,
0.0206028536073733,0.0206513225521395,0.0207480657704839,0.0207491669097748,
0.0208447887370215,0.0209416125167778,0.0210385196412909,0.0211131873818761,
0.0212324137520519,0.0214261063826601,0.0214772078539774,0.0216197856398257,
0.0218135292665763,0.0218412283260787,0.0220072743244335,0.022394725269219,
0.0225692692702813,0.0227821562794789,0.0231696416912231,0.023297310214484,
0.0235569896030671,0.0239444622351909,0.0240253511586866,0.0243319390589719,
0.0247193633139207,0.0247533921028892,0.025494181590413,0.0262094739912945,
0.0262691484577489,0.0270441525657492,0.0276655558796997,0.0278188632969017,
0.0285937290940248,0.029121637768105,0.0301435827365853,0.0305777196565102,
0.031693352695744,0.0320338015449155,0.033243091056768,0.0347928941031904,
0.034945965321726,0.0363426770587059,0.0378581290985364,0.0394422158192467,
0.0407702928753469,0.0425417661791972,0.0436824566521574,0.0456413149085415,
0.0465946204289679,0.0487408633459259,0.0495067842057784,0.0518404133477885,
0.0524189479825889,0.0549399338252136,0.0580395100185854,0.0582432755362099,
0.0611390589089294,0.0611554393130204,0.0631453968175906,0.0640676030898309,
0.0642386117102537,0.0655236849782362,0.0667343827073009,0.0669797668666414,
0.0673380382139854,0.0691846295818967,0.0698919306434519,0.0704377332696644,
0.071987501449923,0.0728040944202624,0.0735372711473532,0.0742601763086676,
0.0750870038368091,0.0757162581970729,0.0766373295795788,0.0771723400854781,
0.0781309438694419,0.0781864069734533,0.0786284219738834,0.0797364475648368,
0.0800845038622886,0.0811585407541117,0.0812859867984329,0.0815405857506939,
0.0820611898846027,0.0822686266948965,0.0828358505281376,0.0829966676390991,
0.0843107755135588,0.0843856846502072,0.0844527495275044,0.0857984000766789,
0.0859088314159096,0.0859354569931169,0.0866368723601123,0.0867102764601104,
0.0872435537379301,0.0873649133043149,0.0874852672860038,0.0880929542485175,
0.0882563581017348,0.0888209951927201,0.0890229250161103,0.0897847381716871,
0.0902770770811254,0.0905420413832025,0.0912950494787404,0.0917331589695306,
0.0920438637179156,0.0927885824377149,0.0929741359954254,0.0931594427306908,
0.0931892408579359),.UNSPECIFIED.);
#35=CIRCLE('',#552,0.008);
#36=CIRCLE('',#553,0.008);
#37=CIRCLE('',#554,0.008);
#38=CIRCLE('',#555,0.008);
#39=CIRCLE('',#556,0.008);
#40=CIRCLE('',#558,0.008);
#41=CIRCLE('',#560,0.008);
#42=CIRCLE('',#561,0.0025);
#43=CIRCLE('',#562,0.008);
#44=CIRCLE('',#563,0.0025);
#45=CIRCLE('',#564,0.00625);
#46=CIRCLE('',#565,0.00625);
#47=CIRCLE('',#566,0.00135);
#48=CIRCLE('',#567,0.00135);
#49=CIRCLE('',#571,0.008);
#50=CIRCLE('',#581,0.00625);
#51=CIRCLE('',#584,0.00625);
#52=CIRCLE('',#587,0.00135);
#53=CIRCLE('',#590,0.0025);
#54=CIRCLE('',#594,0.0025);
#55=CIRCLE('',#595,0.00135);
#56=ORIENTED_EDGE('',*,*,#198,.F.);
#57=ORIENTED_EDGE('',*,*,#199,.T.);
#58=ORIENTED_EDGE('',*,*,#200,.F.);
#59=ORIENTED_EDGE('',*,*,#201,.T.);
#60=ORIENTED_EDGE('',*,*,#202,.T.);
#61=ORIENTED_EDGE('',*,*,#203,.T.);
#62=ORIENTED_EDGE('',*,*,#204,.F.);
#63=ORIENTED_EDGE('',*,*,#205,.T.);
#64=ORIENTED_EDGE('',*,*,#206,.T.);
#65=ORIENTED_EDGE('',*,*,#207,.T.);
#66=ORIENTED_EDGE('',*,*,#208,.F.);
#67=ORIENTED_EDGE('',*,*,#209,.T.);
#68=ORIENTED_EDGE('',*,*,#210,.T.);
#69=ORIENTED_EDGE('',*,*,#211,.F.);
#70=ORIENTED_EDGE('',*,*,#212,.F.);
#71=ORIENTED_EDGE('',*,*,#213,.F.);
#72=ORIENTED_EDGE('',*,*,#214,.T.);
#73=ORIENTED_EDGE('',*,*,#203,.F.);
#74=ORIENTED_EDGE('',*,*,#215,.T.);
#75=ORIENTED_EDGE('',*,*,#216,.T.);
#76=ORIENTED_EDGE('',*,*,#217,.F.);
#77=ORIENTED_EDGE('',*,*,#218,.F.);
#78=ORIENTED_EDGE('',*,*,#200,.T.);
#79=ORIENTED_EDGE('',*,*,#219,.F.);
#80=ORIENTED_EDGE('',*,*,#220,.F.);
#81=ORIENTED_EDGE('',*,*,#221,.T.);
#82=ORIENTED_EDGE('',*,*,#222,.F.);
#83=ORIENTED_EDGE('',*,*,#223,.F.);
#84=ORIENTED_EDGE('',*,*,#224,.F.);
#85=ORIENTED_EDGE('',*,*,#225,.F.);
#86=ORIENTED_EDGE('',*,*,#201,.F.);
#87=ORIENTED_EDGE('',*,*,#219,.T.);
#88=ORIENTED_EDGE('',*,*,#199,.F.);
#89=ORIENTED_EDGE('',*,*,#226,.T.);
#90=ORIENTED_EDGE('',*,*,#227,.T.);
#91=ORIENTED_EDGE('',*,*,#228,.F.);
#92=ORIENTED_EDGE('',*,*,#205,.F.);
#93=ORIENTED_EDGE('',*,*,#229,.T.);
#94=ORIENTED_EDGE('',*,*,#230,.T.);
#95=ORIENTED_EDGE('',*,*,#231,.T.);
#96=ORIENTED_EDGE('',*,*,#232,.T.);
#97=ORIENTED_EDGE('',*,*,#233,.F.);
#98=ORIENTED_EDGE('',*,*,#202,.F.);
#99=ORIENTED_EDGE('',*,*,#225,.T.);
#100=ORIENTED_EDGE('',*,*,#234,.T.);
#101=ORIENTED_EDGE('',*,*,#212,.T.);
#102=ORIENTED_EDGE('',*,*,#229,.F.);
#103=ORIENTED_EDGE('',*,*,#204,.T.);
#104=ORIENTED_EDGE('',*,*,#214,.F.);
#105=ORIENTED_EDGE('',*,*,#235,.F.);
#106=ORIENTED_EDGE('',*,*,#236,.T.);
#107=ORIENTED_EDGE('',*,*,#237,.F.);
#108=ORIENTED_EDGE('',*,*,#220,.T.);
#109=ORIENTED_EDGE('',*,*,#235,.T.);
#110=ORIENTED_EDGE('',*,*,#213,.T.);
#111=ORIENTED_EDGE('',*,*,#234,.F.);
#112=ORIENTED_EDGE('',*,*,#224,.T.);
#113=ORIENTED_EDGE('',*,*,#238,.T.);
#114=ORIENTED_EDGE('',*,*,#208,.T.);
#115=ORIENTED_EDGE('',*,*,#239,.F.);
#116=ORIENTED_EDGE('',*,*,#240,.F.);
#117=ORIENTED_EDGE('',*,*,#241,.T.);
#118=ORIENTED_EDGE('',*,*,#211,.T.);
#119=ORIENTED_EDGE('',*,*,#242,.F.);
#120=ORIENTED_EDGE('',*,*,#243,.F.);
#121=ORIENTED_EDGE('',*,*,#239,.T.);
#122=ORIENTED_EDGE('',*,*,#210,.F.);
#123=ORIENTED_EDGE('',*,*,#244,.F.);
#124=ORIENTED_EDGE('',*,*,#245,.T.);
#125=ORIENTED_EDGE('',*,*,#242,.T.);
#126=ORIENTED_EDGE('',*,*,#209,.F.);
#127=ORIENTED_EDGE('',*,*,#241,.F.);
#128=ORIENTED_EDGE('',*,*,#246,.T.);
#129=ORIENTED_EDGE('',*,*,#244,.T.);
#130=ORIENTED_EDGE('',*,*,#216,.F.);
#131=ORIENTED_EDGE('',*,*,#247,.F.);
#132=ORIENTED_EDGE('',*,*,#248,.T.);
#133=ORIENTED_EDGE('',*,*,#249,.T.);
#134=ORIENTED_EDGE('',*,*,#215,.F.);
#135=ORIENTED_EDGE('',*,*,#250,.F.);
#136=ORIENTED_EDGE('',*,*,#251,.T.);
#137=ORIENTED_EDGE('',*,*,#247,.T.);
#138=ORIENTED_EDGE('',*,*,#218,.T.);
#139=ORIENTED_EDGE('',*,*,#252,.F.);
#140=ORIENTED_EDGE('',*,*,#253,.F.);
#141=ORIENTED_EDGE('',*,*,#250,.T.);
#142=ORIENTED_EDGE('',*,*,#217,.T.);
#143=ORIENTED_EDGE('',*,*,#249,.F.);
#144=ORIENTED_EDGE('',*,*,#254,.F.);
#145=ORIENTED_EDGE('',*,*,#252,.T.);
#146=ORIENTED_EDGE('',*,*,#255,.T.);
#147=ORIENTED_EDGE('',*,*,#230,.F.);
#148=ORIENTED_EDGE('',*,*,#240,.T.);
#149=ORIENTED_EDGE('',*,*,#243,.T.);
#150=ORIENTED_EDGE('',*,*,#245,.F.);
#151=ORIENTED_EDGE('',*,*,#246,.F.);
#152=ORIENTED_EDGE('',*,*,#255,.F.);
#153=ORIENTED_EDGE('',*,*,#256,.F.);
#154=ORIENTED_EDGE('',*,*,#251,.F.);
#155=ORIENTED_EDGE('',*,*,#253,.T.);
#156=ORIENTED_EDGE('',*,*,#254,.T.);
#157=ORIENTED_EDGE('',*,*,#248,.F.);
#158=ORIENTED_EDGE('',*,*,#256,.T.);
#159=ORIENTED_EDGE('',*,*,#231,.F.);
#160=ORIENTED_EDGE('',*,*,#233,.T.);
#161=ORIENTED_EDGE('',*,*,#257,.T.);
#162=ORIENTED_EDGE('',*,*,#206,.F.);
#163=ORIENTED_EDGE('',*,*,#228,.T.);
#164=ORIENTED_EDGE('',*,*,#258,.T.);
#165=ORIENTED_EDGE('',*,*,#259,.T.);
#166=ORIENTED_EDGE('',*,*,#227,.F.);
#167=ORIENTED_EDGE('',*,*,#260,.T.);
#168=ORIENTED_EDGE('',*,*,#261,.F.);
#169=ORIENTED_EDGE('',*,*,#258,.F.);
#170=ORIENTED_EDGE('',*,*,#207,.F.);
#171=ORIENTED_EDGE('',*,*,#259,.F.);
#172=ORIENTED_EDGE('',*,*,#261,.T.);
#173=ORIENTED_EDGE('',*,*,#262,.T.);
#174=ORIENTED_EDGE('',*,*,#257,.F.);
#175=ORIENTED_EDGE('',*,*,#226,.F.);
#176=ORIENTED_EDGE('',*,*,#198,.T.);
#177=ORIENTED_EDGE('',*,*,#262,.F.);
#178=ORIENTED_EDGE('',*,*,#260,.F.);
#179=ORIENTED_EDGE('',*,*,#236,.F.);
#180=ORIENTED_EDGE('',*,*,#263,.F.);
#181=ORIENTED_EDGE('',*,*,#264,.F.);
#182=ORIENTED_EDGE('',*,*,#265,.T.);
#183=ORIENTED_EDGE('',*,*,#266,.T.);
#184=ORIENTED_EDGE('',*,*,#232,.F.);
#185=ORIENTED_EDGE('',*,*,#266,.F.);
#186=ORIENTED_EDGE('',*,*,#238,.F.);
#187=ORIENTED_EDGE('',*,*,#223,.T.);
#188=ORIENTED_EDGE('',*,*,#267,.T.);
#189=ORIENTED_EDGE('',*,*,#263,.T.);
#190=ORIENTED_EDGE('',*,*,#221,.F.);
#191=ORIENTED_EDGE('',*,*,#237,.T.);
#192=ORIENTED_EDGE('',*,*,#265,.F.);
#193=ORIENTED_EDGE('',*,*,#268,.F.);
#194=ORIENTED_EDGE('',*,*,#267,.F.);
#195=ORIENTED_EDGE('',*,*,#222,.T.);
#196=ORIENTED_EDGE('',*,*,#268,.T.);
#197=ORIENTED_EDGE('',*,*,#264,.T.);
#198=EDGE_CURVE('',#269,#270,#319,.T.);
#199=EDGE_CURVE('',#269,#271,#35,.T.);
#200=EDGE_CURVE('',#272,#271,#33,.T.);
#201=EDGE_CURVE('',#272,#273,#36,.T.);
#202=EDGE_CURVE('',#273,#274,#320,.T.);
#203=EDGE_CURVE('',#274,#275,#37,.T.);
#204=EDGE_CURVE('',#276,#275,#321,.T.);
#205=EDGE_CURVE('',#276,#277,#38,.T.);
#206=EDGE_CURVE('',#277,#278,#322,.T.);
#207=EDGE_CURVE('',#278,#270,#39,.T.);
#208=EDGE_CURVE('',#279,#280,#323,.T.);
#209=EDGE_CURVE('',#279,#281,#324,.T.);
#210=EDGE_CURVE('',#281,#282,#325,.T.);
#211=EDGE_CURVE('',#280,#282,#326,.T.);
#212=EDGE_CURVE('',#283,#274,#327,.T.);
#213=EDGE_CURVE('',#284,#283,#40,.T.);
#214=EDGE_CURVE('',#284,#275,#328,.T.);
#215=EDGE_CURVE('',#285,#286,#329,.T.);
#216=EDGE_CURVE('',#286,#287,#330,.T.);
#217=EDGE_CURVE('',#288,#287,#331,.T.);
#218=EDGE_CURVE('',#285,#288,#332,.T.);
#219=EDGE_CURVE('',#272,#271,#34,.T.);
#220=EDGE_CURVE('',#289,#290,#41,.T.);
#221=EDGE_CURVE('',#289,#291,#333,.T.);
#222=EDGE_CURVE('',#292,#291,#42,.T.);
#223=EDGE_CURVE('',#293,#292,#334,.T.);
#224=EDGE_CURVE('',#294,#293,#43,.T.);
#225=EDGE_CURVE('',#273,#294,#335,.T.);
#226=EDGE_CURVE('',#269,#295,#336,.T.);
#227=EDGE_CURVE('',#295,#296,#44,.F.);
#228=EDGE_CURVE('',#277,#296,#337,.T.);
#229=EDGE_CURVE('',#276,#290,#338,.T.);
#230=EDGE_CURVE('',#297,#297,#45,.T.);
#231=EDGE_CURVE('',#298,#298,#46,.T.);
#232=EDGE_CURVE('',#299,#299,#47,.T.);
#233=EDGE_CURVE('',#300,#300,#48,.F.);
#234=EDGE_CURVE('',#294,#283,#339,.T.);
#235=EDGE_CURVE('',#290,#284,#340,.T.);
#236=EDGE_CURVE('',#301,#302,#49,.T.);
#237=EDGE_CURVE('',#289,#302,#341,.T.);
#238=EDGE_CURVE('',#293,#301,#342,.T.);
#239=EDGE_CURVE('',#303,#280,#343,.T.);
#240=EDGE_CURVE('',#304,#303,#344,.T.);
#241=EDGE_CURVE('',#304,#279,#345,.T.);
#242=EDGE_CURVE('',#305,#282,#346,.T.);
#243=EDGE_CURVE('',#303,#305,#347,.T.);
#244=EDGE_CURVE('',#306,#281,#348,.T.);
#245=EDGE_CURVE('',#306,#305,#349,.T.);
#246=EDGE_CURVE('',#304,#306,#350,.T.);
#247=EDGE_CURVE('',#307,#286,#351,.T.);
#248=EDGE_CURVE('',#307,#308,#352,.T.);
#249=EDGE_CURVE('',#308,#287,#353,.T.);
#250=EDGE_CURVE('',#309,#285,#354,.T.);
#251=EDGE_CURVE('',#309,#307,#355,.T.);
#252=EDGE_CURVE('',#310,#288,#356,.T.);
#253=EDGE_CURVE('',#309,#310,#357,.T.);
#254=EDGE_CURVE('',#310,#308,#358,.T.);
#255=EDGE_CURVE('',#311,#311,#50,.T.);
#256=EDGE_CURVE('',#312,#312,#51,.T.);
#257=EDGE_CURVE('',#313,#313,#52,.T.);
#258=EDGE_CURVE('',#296,#314,#359,.T.);
#259=EDGE_CURVE('',#314,#278,#360,.T.);
#260=EDGE_CURVE('',#295,#315,#361,.T.);
#261=EDGE_CURVE('',#314,#315,#53,.T.);
#262=EDGE_CURVE('',#315,#270,#362,.T.);
#263=EDGE_CURVE('',#316,#301,#363,.T.);
#264=EDGE_CURVE('',#317,#316,#54,.T.);
#265=EDGE_CURVE('',#317,#302,#364,.T.);
#266=EDGE_CURVE('',#318,#318,#55,.T.);
#267=EDGE_CURVE('',#292,#316,#365,.T.);
#268=EDGE_CURVE('',#291,#317,#366,.T.);
#269=VERTEX_POINT('',#751);
#270=VERTEX_POINT('',#752);
#271=VERTEX_POINT('',#754);
#272=VERTEX_POINT('',#759);
#273=VERTEX_POINT('',#761);
#274=VERTEX_POINT('',#763);
#275=VERTEX_POINT('',#765);
#276=VERTEX_POINT('',#767);
#277=VERTEX_POINT('',#769);
#278=VERTEX_POINT('',#771);
#279=VERTEX_POINT('',#775);
#280=VERTEX_POINT('',#776);
#281=VERTEX_POINT('',#778);
#282=VERTEX_POINT('',#780);
#283=VERTEX_POINT('',#783);
#284=VERTEX_POINT('',#785);
#285=VERTEX_POINT('',#788);
#286=VERTEX_POINT('',#789);
#287=VERTEX_POINT('',#791);
#288=VERTEX_POINT('',#793);
#289=VERTEX_POINT('',#1333);
#290=VERTEX_POINT('',#1334);
#291=VERTEX_POINT('',#1336);
#292=VERTEX_POINT('',#1338);
#293=VERTEX_POINT('',#1340);
#294=VERTEX_POINT('',#1342);
#295=VERTEX_POINT('',#1345);
#296=VERTEX_POINT('',#1347);
#297=VERTEX_POINT('',#1351);
#298=VERTEX_POINT('',#1353);
#299=VERTEX_POINT('',#1355);
#300=VERTEX_POINT('',#1357);
#301=VERTEX_POINT('',#1364);
#302=VERTEX_POINT('',#1365);
#303=VERTEX_POINT('',#1370);
#304=VERTEX_POINT('',#1372);
#305=VERTEX_POINT('',#1376);
#306=VERTEX_POINT('',#1380);
#307=VERTEX_POINT('',#1386);
#308=VERTEX_POINT('',#1388);
#309=VERTEX_POINT('',#1392);
#310=VERTEX_POINT('',#1396);
#311=VERTEX_POINT('',#1402);
#312=VERTEX_POINT('',#1406);
#313=VERTEX_POINT('',#1410);
#314=VERTEX_POINT('',#1413);
#315=VERTEX_POINT('',#1417);
#316=VERTEX_POINT('',#1424);
#317=VERTEX_POINT('',#1426);
#318=VERTEX_POINT('',#1429);
#319=LINE('',#750,#367);
#320=LINE('',#762,#368);
#321=LINE('',#766,#369);
#322=LINE('',#770,#370);
#323=LINE('',#774,#371);
#324=LINE('',#777,#372);
#325=LINE('',#779,#373);
#326=LINE('',#781,#374);
#327=LINE('',#782,#375);
#328=LINE('',#786,#376);
#329=LINE('',#787,#377);
#330=LINE('',#790,#378);
#331=LINE('',#792,#379);
#332=LINE('',#794,#380);
#333=LINE('',#1335,#381);
#334=LINE('',#1339,#382);
#335=LINE('',#1343,#383);
#336=LINE('',#1344,#384);
#337=LINE('',#1348,#385);
#338=LINE('',#1349,#386);
#339=LINE('',#1359,#387);
#340=LINE('',#1361,#388);
#341=LINE('',#1366,#389);
#342=LINE('',#1367,#390);
#343=LINE('',#1369,#391);
#344=LINE('',#1371,#392);
#345=LINE('',#1373,#393);
#346=LINE('',#1375,#394);
#347=LINE('',#1377,#395);
#348=LINE('',#1379,#396);
#349=LINE('',#1381,#397);
#350=LINE('',#1383,#398);
#351=LINE('',#1385,#399);
#352=LINE('',#1387,#400);
#353=LINE('',#1389,#401);
#354=LINE('',#1391,#402);
#355=LINE('',#1393,#403);
#356=LINE('',#1395,#404);
#357=LINE('',#1397,#405);
#358=LINE('',#1399,#406);
#359=LINE('',#1412,#407);
#360=LINE('',#1414,#408);
#361=LINE('',#1416,#409);
#362=LINE('',#1420,#410);
#363=LINE('',#1423,#411);
#364=LINE('',#1427,#412);
#365=LINE('',#1432,#413);
#366=LINE('',#1434,#414);
#367=VECTOR('',#604,1.);
#368=VECTOR('',#609,1.);
#369=VECTOR('',#612,1.);
#370=VECTOR('',#615,1.);
#371=VECTOR('',#620,1.);
#372=VECTOR('',#621,1.);
#373=VECTOR('',#622,1.);
#374=VECTOR('',#623,1.);
#375=VECTOR('',#624,1.);
#376=VECTOR('',#627,1.);
#377=VECTOR('',#628,1.);
#378=VECTOR('',#629,1.);
#379=VECTOR('',#630,1.);
#380=VECTOR('',#631,1.);
#381=VECTOR('',#636,1.);
#382=VECTOR('',#639,1.);
#383=VECTOR('',#642,1.);
#384=VECTOR('',#643,1.);
#385=VECTOR('',#646,1.);
#386=VECTOR('',#647,1.);
#387=VECTOR('',#658,1.);
#388=VECTOR('',#661,1.);
#389=VECTOR('',#666,1.);
#390=VECTOR('',#667,1.);
#391=VECTOR('',#670,1.);
#392=VECTOR('',#671,1.);
#393=VECTOR('',#672,1.);
#394=VECTOR('',#675,1.);
#395=VECTOR('',#676,1.);
#396=VECTOR('',#679,1.);
#397=VECTOR('',#680,1.);
#398=VECTOR('',#683,1.);
#399=VECTOR('',#686,1.);
#400=VECTOR('',#687,1.);
#401=VECTOR('',#688,1.);
#402=VECTOR('',#691,1.);
#403=VECTOR('',#692,1.);
#404=VECTOR('',#695,1.);
#405=VECTOR('',#696,1.);
#406=VECTOR('',#699,1.);
#407=VECTOR('',#718,1.);
#408=VECTOR('',#719,1.);
#409=VECTOR('',#722,1.);
#410=VECTOR('',#727,1.);
#411=VECTOR('',#732,1.);
#412=VECTOR('',#735,1.);
#413=VECTOR('',#742,1.);
#414=VECTOR('',#745,1.);
#415=EDGE_LOOP('',(#56,#57,#58,#59,#60,#61,#62,#63,#64,#65));
#416=EDGE_LOOP('',(#66,#67,#68,#69));
#417=EDGE_LOOP('',(#70,#71,#72,#73));
#418=EDGE_LOOP('',(#74,#75,#76,#77));
#419=EDGE_LOOP('',(#78,#79));
#420=EDGE_LOOP('',(#80,#81,#82,#83,#84,#85,#86,#87,#88,#89,#90,#91,#92,
#93));
#421=EDGE_LOOP('',(#94));
#422=EDGE_LOOP('',(#95));
#423=EDGE_LOOP('',(#96));
#424=EDGE_LOOP('',(#97));
#425=EDGE_LOOP('',(#98,#99,#100,#101));
#426=EDGE_LOOP('',(#102,#103,#104,#105));
#427=EDGE_LOOP('',(#106,#107,#108,#109,#110,#111,#112,#113));
#428=EDGE_LOOP('',(#114,#115,#116,#117));
#429=EDGE_LOOP('',(#118,#119,#120,#121));
#430=EDGE_LOOP('',(#122,#123,#124,#125));
#431=EDGE_LOOP('',(#126,#127,#128,#129));
#432=EDGE_LOOP('',(#130,#131,#132,#133));
#433=EDGE_LOOP('',(#134,#135,#136,#137));
#434=EDGE_LOOP('',(#138,#139,#140,#141));
#435=EDGE_LOOP('',(#142,#143,#144,#145));
#436=EDGE_LOOP('',(#146));
#437=EDGE_LOOP('',(#147));
#438=EDGE_LOOP('',(#148,#149,#150,#151));
#439=EDGE_LOOP('',(#152));
#440=EDGE_LOOP('',(#153));
#441=EDGE_LOOP('',(#154,#155,#156,#157));
#442=EDGE_LOOP('',(#158));
#443=EDGE_LOOP('',(#159));
#444=EDGE_LOOP('',(#160));
#445=EDGE_LOOP('',(#161));
#446=EDGE_LOOP('',(#162,#163,#164,#165));
#447=EDGE_LOOP('',(#166,#167,#168,#169));
#448=EDGE_LOOP('',(#170,#171,#172,#173));
#449=EDGE_LOOP('',(#174));
#450=EDGE_LOOP('',(#175,#176,#177,#178));
#451=EDGE_LOOP('',(#179,#180,#181,#182));
#452=EDGE_LOOP('',(#183));
#453=EDGE_LOOP('',(#184));
#454=EDGE_LOOP('',(#185));
#455=EDGE_LOOP('',(#186,#187,#188,#189));
#456=EDGE_LOOP('',(#190,#191,#192,#193));
#457=EDGE_LOOP('',(#194,#195,#196,#197));
#458=FACE_BOUND('',#415,.T.);
#459=FACE_BOUND('',#416,.T.);
#460=FACE_BOUND('',#417,.T.);
#461=FACE_BOUND('',#418,.T.);
#462=FACE_BOUND('',#419,.T.);
#463=FACE_BOUND('',#420,.T.);
#464=FACE_BOUND('',#421,.T.);
#465=FACE_BOUND('',#422,.T.);
#466=FACE_BOUND('',#423,.T.);
#467=FACE_BOUND('',#424,.T.);
#468=FACE_BOUND('',#425,.T.);
#469=FACE_BOUND('',#426,.T.);
#470=FACE_BOUND('',#427,.T.);
#471=FACE_BOUND('',#428,.T.);
#472=FACE_BOUND('',#429,.T.);
#473=FACE_BOUND('',#430,.T.);
#474=FACE_BOUND('',#431,.T.);
#475=FACE_BOUND('',#432,.T.);
#476=FACE_BOUND('',#433,.T.);
#477=FACE_BOUND('',#434,.T.);
#478=FACE_BOUND('',#435,.T.);
#479=FACE_BOUND('',#436,.T.);
#480=FACE_BOUND('',#437,.T.);
#481=FACE_BOUND('',#438,.T.);
#482=FACE_BOUND('',#439,.T.);
#483=FACE_BOUND('',#440,.T.);
#484=FACE_BOUND('',#441,.T.);
#485=FACE_BOUND('',#442,.T.);
#486=FACE_BOUND('',#443,.T.);
#487=FACE_BOUND('',#444,.T.);
#488=FACE_BOUND('',#445,.T.);
#489=FACE_BOUND('',#446,.T.);
#490=FACE_BOUND('',#447,.T.);
#491=FACE_BOUND('',#448,.T.);
#492=FACE_BOUND('',#449,.T.);
#493=FACE_BOUND('',#450,.T.);
#494=FACE_BOUND('',#451,.T.);
#495=FACE_BOUND('',#452,.T.);
#496=FACE_BOUND('',#453,.T.);
#497=FACE_BOUND('',#454,.T.);
#498=FACE_BOUND('',#455,.T.);
#499=FACE_BOUND('',#456,.T.);
#500=FACE_BOUND('',#457,.T.);
#501=CYLINDRICAL_SURFACE('',#551,0.008);
#502=CYLINDRICAL_SURFACE('',#570,0.008);
#503=CYLINDRICAL_SURFACE('',#580,0.00625);
#504=CYLINDRICAL_SURFACE('',#585,0.00625);
#505=CYLINDRICAL_SURFACE('',#586,0.00135);
#506=CYLINDRICAL_SURFACE('',#589,0.0025);
#507=CYLINDRICAL_SURFACE('',#596,0.00135);
#508=CYLINDRICAL_SURFACE('',#599,0.0025);
#509=ADVANCED_FACE('',(#458),#501,.T.);
#510=ADVANCED_FACE('',(#459,#460,#461),#13,.T.);
#511=ADVANCED_FACE('',(#462),#12,.T.);
#512=ADVANCED_FACE('',(#463,#464,#465,#466,#467),#14,.F.);
#513=ADVANCED_FACE('',(#468),#15,.F.);
#514=ADVANCED_FACE('',(#469),#16,.T.);
#515=ADVANCED_FACE('',(#470),#502,.T.);
#516=ADVANCED_FACE('',(#471),#17,.F.);
#517=ADVANCED_FACE('',(#472),#18,.F.);
#518=ADVANCED_FACE('',(#473),#19,.T.);
#519=ADVANCED_FACE('',(#474),#20,.T.);
#520=ADVANCED_FACE('',(#475),#21,.T.);
#521=ADVANCED_FACE('',(#476),#22,.T.);
#522=ADVANCED_FACE('',(#477),#23,.F.);
#523=ADVANCED_FACE('',(#478),#24,.F.);
#524=ADVANCED_FACE('',(#479,#480),#503,.F.);
#525=ADVANCED_FACE('',(#481,#482),#25,.F.);
#526=ADVANCED_FACE('',(#483,#484),#26,.F.);
#527=ADVANCED_FACE('',(#485,#486),#504,.F.);
#528=ADVANCED_FACE('',(#487,#488),#505,.F.);
#529=ADVANCED_FACE('',(#489),#27,.F.);
#530=ADVANCED_FACE('',(#490),#506,.T.);
#531=ADVANCED_FACE('',(#491,#492),#28,.T.);
#532=ADVANCED_FACE('',(#493),#29,.T.);
#533=ADVANCED_FACE('',(#494,#495),#30,.T.);
#534=ADVANCED_FACE('',(#496,#497),#507,.F.);
#535=ADVANCED_FACE('',(#498),#31,.F.);
#536=ADVANCED_FACE('',(#499),#32,.T.);
#537=ADVANCED_FACE('',(#500),#508,.T.);
#538=CLOSED_SHELL('',(#509,#510,#511,#512,#513,#514,#515,#516,#517,#518,
#519,#520,#521,#522,#523,#524,#525,#526,#527,#528,#529,#530,#531,#532,#533,
#534,#535,#536,#537));
#539=STYLED_ITEM('',(#540),#547);
#540=PRESENTATION_STYLE_ASSIGNMENT((#541));
#541=SURFACE_STYLE_USAGE(.BOTH.,#542);
#542=SURFACE_SIDE_STYLE('',(#543));
#543=SURFACE_STYLE_FILL_AREA(#544);
#544=FILL_AREA_STYLE('',(#545));
#545=FILL_AREA_STYLE_COLOUR('',#546);
#546=COLOUR_RGB('',0.615686274509804,0.811764705882353,0.929411764705882);
#547=MANIFOLD_SOLID_BREP('Part 3',#538);
#548=SHAPE_DEFINITION_REPRESENTATION(#1442,#549);
#549=SHAPE_REPRESENTATION('Part 3',(#550),#1437);
#550=AXIS2_PLACEMENT_3D('',#748,#600,#601);
#551=AXIS2_PLACEMENT_3D('',#749,#602,#603);
#552=AXIS2_PLACEMENT_3D('',#753,#605,#606);
#553=AXIS2_PLACEMENT_3D('',#760,#607,#608);
#554=AXIS2_PLACEMENT_3D('',#764,#610,#611);
#555=AXIS2_PLACEMENT_3D('',#768,#613,#614);
#556=AXIS2_PLACEMENT_3D('',#772,#616,#617);
#557=AXIS2_PLACEMENT_3D('',#773,#618,#619);
#558=AXIS2_PLACEMENT_3D('',#784,#625,#626);
#559=AXIS2_PLACEMENT_3D('',#1331,#632,#633);
#560=AXIS2_PLACEMENT_3D('',#1332,#634,#635);
#561=AXIS2_PLACEMENT_3D('',#1337,#637,#638);
#562=AXIS2_PLACEMENT_3D('',#1341,#640,#641);
#563=AXIS2_PLACEMENT_3D('',#1346,#644,#645);
#564=AXIS2_PLACEMENT_3D('',#1350,#648,#649);
#565=AXIS2_PLACEMENT_3D('',#1352,#650,#651);
#566=AXIS2_PLACEMENT_3D('',#1354,#652,#653);
#567=AXIS2_PLACEMENT_3D('',#1356,#654,#655);
#568=AXIS2_PLACEMENT_3D('',#1358,#656,#657);
#569=AXIS2_PLACEMENT_3D('',#1360,#659,#660);
#570=AXIS2_PLACEMENT_3D('',#1362,#662,#663);
#571=AXIS2_PLACEMENT_3D('',#1363,#664,#665);
#572=AXIS2_PLACEMENT_3D('',#1368,#668,#669);
#573=AXIS2_PLACEMENT_3D('',#1374,#673,#674);
#574=AXIS2_PLACEMENT_3D('',#1378,#677,#678);
#575=AXIS2_PLACEMENT_3D('',#1382,#681,#682);
#576=AXIS2_PLACEMENT_3D('',#1384,#684,#685);
#577=AXIS2_PLACEMENT_3D('',#1390,#689,#690);
#578=AXIS2_PLACEMENT_3D('',#1394,#693,#694);
#579=AXIS2_PLACEMENT_3D('',#1398,#697,#698);
#580=AXIS2_PLACEMENT_3D('',#1400,#700,#701);
#581=AXIS2_PLACEMENT_3D('',#1401,#702,#703);
#582=AXIS2_PLACEMENT_3D('',#1403,#704,#705);
#583=AXIS2_PLACEMENT_3D('',#1404,#706,#707);
#584=AXIS2_PLACEMENT_3D('',#1405,#708,#709);
#585=AXIS2_PLACEMENT_3D('',#1407,#710,#711);
#586=AXIS2_PLACEMENT_3D('',#1408,#712,#713);
#587=AXIS2_PLACEMENT_3D('',#1409,#714,#715);
#588=AXIS2_PLACEMENT_3D('',#1411,#716,#717);
#589=AXIS2_PLACEMENT_3D('',#1415,#720,#721);
#590=AXIS2_PLACEMENT_3D('',#1418,#723,#724);
#591=AXIS2_PLACEMENT_3D('',#1419,#725,#726);
#592=AXIS2_PLACEMENT_3D('',#1421,#728,#729);
#593=AXIS2_PLACEMENT_3D('',#1422,#730,#731);
#594=AXIS2_PLACEMENT_3D('',#1425,#733,#734);
#595=AXIS2_PLACEMENT_3D('',#1428,#736,#737);
#596=AXIS2_PLACEMENT_3D('',#1430,#738,#739);
#597=AXIS2_PLACEMENT_3D('',#1431,#740,#741);
#598=AXIS2_PLACEMENT_3D('',#1433,#743,#744);
#599=AXIS2_PLACEMENT_3D('',#1435,#746,#747);
#600=DIRECTION('',(0.,0.,1.));
#601=DIRECTION('',(1.,0.,0.));
#602=DIRECTION('',(0.,1.,0.));
#603=DIRECTION('',(0.,0.,1.));
#604=DIRECTION('',(0.,1.,0.));
#605=DIRECTION('',(0.,1.,0.));
#606=DIRECTION('',(0.,0.,1.));
#607=DIRECTION('',(0.,1.,0.));
#608=DIRECTION('',(0.,0.,1.));
#609=DIRECTION('',(0.,1.,0.));
#610=DIRECTION('',(0.,-1.,0.));
#611=DIRECTION('',(0.,0.,1.));
#612=DIRECTION('',(0.,1.,0.));
#613=DIRECTION('',(0.,1.,0.));
#614=DIRECTION('',(0.,0.,1.));
#615=DIRECTION('',(0.,1.,0.));
#616=DIRECTION('',(0.,1.,0.));
#617=DIRECTION('',(0.,0.,1.));
#618=DIRECTION('',(0.,1.,0.));
#619=DIRECTION('',(-1.,0.,0.));
#620=DIRECTION('',(0.,0.,1.));
#621=DIRECTION('',(1.,0.,0.));
#622=DIRECTION('',(0.,0.,1.));
#623=DIRECTION('',(1.,0.,0.));
#624=DIRECTION('',(0.906307787036649,0.,-0.422618261740701));
#625=DIRECTION('',(0.,-1.,0.));
#626=DIRECTION('',(0.,0.,1.));
#627=DIRECTION('',(0.90630778703665,0.,-0.4226182617407));
#628=DIRECTION('',(0.,0.,1.));
#629=DIRECTION('',(-1.,0.,0.));
#630=DIRECTION('',(0.,0.,1.));
#631=DIRECTION('',(-1.,0.,0.));
#632=DIRECTION('',(0.,1.,0.));
#633=DIRECTION('',(0.,0.,1.));
#634=DIRECTION('',(0.,1.,0.));
#635=DIRECTION('',(0.,0.,1.));
#636=DIRECTION('',(-0.993396544855167,0.,-0.114731445863004));
#637=DIRECTION('',(0.,1.,0.));
#638=DIRECTION('',(0.,0.,1.));
#639=DIRECTION('',(-0.550653603983957,0.,0.834733854842057));
#640=DIRECTION('',(0.,1.,0.));
#641=DIRECTION('',(0.,0.,1.));
#642=DIRECTION('',(-0.906307787036649,0.,0.422618261740701));
#643=DIRECTION('',(0.993396544855167,0.,0.114731445863006));
#644=DIRECTION('',(0.,1.,0.));
#645=DIRECTION('',(0.,0.,1.));
#646=DIRECTION('',(0.550653603983958,0.,-0.834733854842056));
#647=DIRECTION('',(-0.906307787036649,0.,0.4226182617407));
#648=DIRECTION('',(0.,1.,0.));
#649=DIRECTION('',(0.,0.,1.));
#650=DIRECTION('',(0.,1.,0.));
#651=DIRECTION('',(0.,0.,1.));
#652=DIRECTION('',(0.,1.,0.));
#653=DIRECTION('',(0.,0.,1.));
#654=DIRECTION('',(0.,1.,0.));
#655=DIRECTION('',(0.,0.,1.));
#656=DIRECTION('',(0.422618261740701,0.,0.906307787036649));
#657=DIRECTION('',(0.906307787036649,0.,-0.422618261740701));
#658=DIRECTION('',(0.,1.,0.));
#659=DIRECTION('',(0.4226182617407,0.,0.906307787036649));
#660=DIRECTION('',(0.906307787036649,0.,-0.4226182617407));
#661=DIRECTION('',(0.,1.,0.));
#662=DIRECTION('',(0.,1.,0.));
#663=DIRECTION('',(0.,0.,1.));
#664=DIRECTION('',(0.,1.,0.));
#665=DIRECTION('',(0.,0.,1.));
#666=DIRECTION('',(0.,1.,0.));
#667=DIRECTION('',(0.,1.,0.));
#668=DIRECTION('',(-1.,0.,0.));
#669=DIRECTION('',(0.,0.,1.));
#670=DIRECTION('',(0.,1.,0.));
#671=DIRECTION('',(0.,0.,1.));
#672=DIRECTION('',(0.,1.,0.));
#673=DIRECTION('',(0.,0.,1.));
#674=DIRECTION('',(1.,0.,0.));
#675=DIRECTION('',(0.,1.,0.));
#676=DIRECTION('',(1.,0.,0.));
#677=DIRECTION('',(-1.,0.,0.));
#678=DIRECTION('',(0.,0.,1.));
#679=DIRECTION('',(0.,1.,0.));
#680=DIRECTION('',(0.,0.,1.));
#681=DIRECTION('',(0.,0.,1.));
#682=DIRECTION('',(1.,0.,0.));
#683=DIRECTION('',(1.,0.,0.));
#684=DIRECTION('',(0.,0.,-1.));
#685=DIRECTION('',(-1.,0.,0.));
#686=DIRECTION('',(0.,1.,0.));
#687=DIRECTION('',(-1.,0.,0.));
#688=DIRECTION('',(0.,1.,0.));
#689=DIRECTION('',(-1.,0.,0.));
#690=DIRECTION('',(0.,0.,1.));
#691=DIRECTION('',(0.,1.,0.));
#692=DIRECTION('',(0.,0.,1.));
#693=DIRECTION('',(0.,0.,-1.));
#694=DIRECTION('',(-1.,0.,0.));
#695=DIRECTION('',(0.,1.,0.));
#696=DIRECTION('',(-1.,0.,0.));
#697=DIRECTION('',(-1.,0.,0.));
#698=DIRECTION('',(0.,0.,1.));
#699=DIRECTION('',(0.,0.,1.));
#700=DIRECTION('',(0.,1.,0.));
#701=DIRECTION('',(0.,0.,1.));
#702=DIRECTION('',(0.,1.,0.));
#703=DIRECTION('',(0.,0.,1.));
#704=DIRECTION('',(0.,1.,0.));
#705=DIRECTION('',(-1.,0.,0.));
#706=DIRECTION('',(0.,1.,0.));
#707=DIRECTION('',(-1.,0.,0.));
#708=DIRECTION('',(0.,1.,0.));
#709=DIRECTION('',(0.,0.,1.));
#710=DIRECTION('',(0.,1.,0.));
#711=DIRECTION('',(0.,0.,1.));
#712=DIRECTION('',(0.,1.,0.));
#713=DIRECTION('',(0.,0.,1.));
#714=DIRECTION('',(0.,1.,0.));
#715=DIRECTION('',(0.,0.,1.));
#716=DIRECTION('',(-0.834733854842056,0.,-0.550653603983958));
#717=DIRECTION('',(-0.550653603983958,0.,0.834733854842056));
#718=DIRECTION('',(0.,1.,0.));
#719=DIRECTION('',(-0.550653603983958,0.,0.834733854842056));
#720=DIRECTION('',(0.,1.,0.));
#721=DIRECTION('',(0.,0.,1.));
#722=DIRECTION('',(0.,1.,0.));
#723=DIRECTION('',(0.,1.,0.));
#724=DIRECTION('',(0.,0.,1.));
#725=DIRECTION('',(0.,1.,0.));
#726=DIRECTION('',(-1.,0.,0.));
#727=DIRECTION('',(-0.993396544855167,0.,-0.114731445863006));
#728=DIRECTION('',(0.114731445863006,0.,-0.993396544855167));
#729=DIRECTION('',(-0.993396544855167,0.,-0.114731445863006));
#730=DIRECTION('',(0.,1.,0.));
#731=DIRECTION('',(-1.,0.,0.));
#732=DIRECTION('',(0.550653603983957,0.,-0.834733854842057));
#733=DIRECTION('',(0.,-1.,0.));
#734=DIRECTION('',(0.,0.,1.));
#735=DIRECTION('',(0.993396544855167,0.,0.114731445863004));
#736=DIRECTION('',(0.,-1.,0.));
#737=DIRECTION('',(0.,0.,1.));
#738=DIRECTION('',(0.,1.,0.));
#739=DIRECTION('',(0.,0.,1.));
#740=DIRECTION('',(0.834733854842057,0.,0.550653603983957));
#741=DIRECTION('',(0.550653603983957,0.,-0.834733854842057));
#742=DIRECTION('',(0.,1.,0.));
#743=DIRECTION('',(-0.114731445863004,0.,0.993396544855167));
#744=DIRECTION('',(0.993396544855167,0.,0.114731445863004));
#745=DIRECTION('',(0.,1.,0.));
#746=DIRECTION('',(0.,1.,0.));
#747=DIRECTION('',(0.,0.,1.));
#748=CARTESIAN_POINT('',(0.,0.,0.));
#749=CARTESIAN_POINT('',(-0.0484193808859086,-0.012502,0.068104103319892));
#750=CARTESIAN_POINT('',(-0.0475015293190045,-0.010002,0.0601569309610507));
#751=CARTESIAN_POINT('',(-0.0475015293190045,-0.01,0.0601569309610507));
#752=CARTESIAN_POINT('',(-0.0475015293190045,-0.008,0.0601569309610507));
#753=CARTESIAN_POINT('',(-0.0484193808859086,-0.01,0.068104103319892));
#754=CARTESIAN_POINT('',(-0.0495726886994922,-0.00999999999983443,0.0601876722371928));
#755=CARTESIAN_POINT('',(-0.0517093838188487,-0.00999999999998032,0.060811923899359));
#756=CARTESIAN_POINT('',(-0.0510254272987745,-0.00999999970328413,0.0605033441418846));
#757=CARTESIAN_POINT('',(-0.0503131164094732,-0.00999999913766546,0.0602955416867457));
#758=CARTESIAN_POINT('',(-0.0495726886994922,-0.00999999999983443,0.0601876722371927));
#759=CARTESIAN_POINT('',(-0.0517093838188487,-0.00999999999998032,0.060811923899359));
#760=CARTESIAN_POINT('',(-0.0484193808859086,-0.01,0.068104103319892));
#761=CARTESIAN_POINT('',(-0.0518003269798342,-0.01,0.0608536410235988));
#762=CARTESIAN_POINT('',(-0.0518003269798342,-0.012502,0.0608536410235988));
#763=CARTESIAN_POINT('',(-0.0518003269798342,-0.002,0.0608536410235988));
#764=CARTESIAN_POINT('',(-0.0484193808859086,-0.002,0.068104103319892));
#765=CARTESIAN_POINT('',(-0.045038434791983,-0.002,0.0753545656161852));
#766=CARTESIAN_POINT('',(-0.045038434791983,-0.012502,0.0753545656161852));
#767=CARTESIAN_POINT('',(-0.045038434791983,-0.01,0.0753545656161852));
#768=CARTESIAN_POINT('',(-0.0484193808859086,-0.01,0.068104103319892));
#769=CARTESIAN_POINT('',(-0.0417415100471721,-0.01,0.0725093321517637));
#770=CARTESIAN_POINT('',(-0.0417415100471721,-0.010002,0.0725093321517637));
#771=CARTESIAN_POINT('',(-0.0417415100471721,-0.008,0.0725093321517637));
#772=CARTESIAN_POINT('',(-0.0484193808859086,-0.008,0.068104103319892));
#773=CARTESIAN_POINT('',(-0.0574824587562751,-0.002,0.072330285937299));
#774=CARTESIAN_POINT('',(-0.0515193808859086,-0.002,0.068104103319892));
#775=CARTESIAN_POINT('',(-0.0515193808859086,-0.002,0.065004103319892));
#776=CARTESIAN_POINT('',(-0.0515193808859086,-0.002,0.071204103319892));
#777=CARTESIAN_POINT('',(-0.0484193808859086,-0.002,0.065004103319892));
#778=CARTESIAN_POINT('',(-0.0453193808859086,-0.002,0.065004103319892));
#779=CARTESIAN_POINT('',(-0.0453193808859086,-0.002,0.068104103319892));
#780=CARTESIAN_POINT('',(-0.0453193808859086,-0.002,0.071204103319892));
#781=CARTESIAN_POINT('',(-0.0484193808859086,-0.002,0.071204103319892));
#782=CARTESIAN_POINT('',(-0.0608634048502007,-0.002,0.0650798236410058));
#783=CARTESIAN_POINT('',(-0.0699264827205672,-0.002,0.0693060062584128));
#784=CARTESIAN_POINT('',(-0.0665455366266416,-0.002,0.076556468554706));
#785=CARTESIAN_POINT('',(-0.063164590532716,-0.002,0.0838069308509992));
#786=CARTESIAN_POINT('',(-0.0541015126623495,-0.002,0.0795807482335922));
#787=CARTESIAN_POINT('',(-0.0634455366266415,-0.002,0.0765564685547061));
#788=CARTESIAN_POINT('',(-0.0634455366266415,-0.002,0.073456468554706));
#789=CARTESIAN_POINT('',(-0.0634455366266415,-0.002,0.0796564685547061));
#790=CARTESIAN_POINT('',(-0.0665455366266416,-0.002,0.0796564685547061));
#791=CARTESIAN_POINT('',(-0.0696455366266416,-0.002,0.0796564685547061));
#792=CARTESIAN_POINT('',(-0.0696455366266416,-0.002,0.0765564685547061));
#793=CARTESIAN_POINT('',(-0.0696455366266416,-0.002,0.073456468554706));
#794=CARTESIAN_POINT('',(-0.0665455366266416,-0.002,0.073456468554706));
#795=CARTESIAN_POINT('',(-0.0495596873424961,-0.01,0.0601845149043445));
#796=CARTESIAN_POINT('',(-0.0495678802550274,-0.0100000024029556,0.060157440620108));
#797=CARTESIAN_POINT('',(-0.0495759085280477,-0.00999979279404863,0.0601309104182667));
#798=CARTESIAN_POINT('',(-0.0495840561178319,-0.00999936710600951,0.0601039859070183));
#799=CARTESIAN_POINT('',(-0.0502786323091508,-0.01,0.0604017730016934));
#800=CARTESIAN_POINT('',(-0.0502866379621795,-0.010000002402954,0.0603746423029326));
#801=CARTESIAN_POINT('',(-0.0502944827176022,-0.00999979279418814,0.0603480568154694));
#802=CARTESIAN_POINT('',(-0.0503024440769781,-0.00999936710643549,0.0603210762005126));
#803=CARTESIAN_POINT('',(-0.0509994168827808,-0.01,0.0606123491822924));
#804=CARTESIAN_POINT('',(-0.0510072551731036,-0.0100000024029542,0.0605851695180274));
#805=CARTESIAN_POINT('',(-0.0510149359270702,-0.00999979279417178,0.0605585360482875));
#806=CARTESIAN_POINT('',(-0.0510227308493797,-0.00999936710638553,0.06053150673856));
#807=CARTESIAN_POINT('',(-0.0517220410633862,-0.01,0.0608162434461414));
#808=CARTESIAN_POINT('',(-0.0517297318877996,-0.0100000024029562,0.0607890222653923));
#809=CARTESIAN_POINT('',(-0.0517372681564516,-0.00999979279399954,0.0607623481167208));
#810=CARTESIAN_POINT('',(-0.0517449164350367,-0.0099993671058596,0.0607352775211606));
#811=CARTESIAN_POINT('',(-0.0738368863346965,-0.01,0.0885367383988059));
#812=CARTESIAN_POINT('',(-0.0740199243547311,-0.01,0.088369731908966));
#813=CARTESIAN_POINT('',(-0.0742024204180655,-0.01,0.0882022021996723));
#814=CARTESIAN_POINT('',(-0.0743843494090711,-0.01,0.0880341259373591));
#815=CARTESIAN_POINT('',(-0.0747619142716094,-0.01,0.087685310223462));
#816=CARTESIAN_POINT('',(-0.075137036611039,-0.01,0.0873341403577711));
#817=CARTESIAN_POINT('',(-0.0755094507301564,-0.01,0.0869803647800838));
#818=CARTESIAN_POINT('',(-0.0756620626073232,-0.01,0.0868353908055885));
#819=CARTESIAN_POINT('',(-0.0758142197172652,-0.01,0.0866899792789871));
#820=CARTESIAN_POINT('',(-0.0759659003580915,-0.01,0.0865441091140697));
#821=CARTESIAN_POINT('',(-0.0761846194244742,-0.01,0.0863337685847179));
#822=CARTESIAN_POINT('',(-0.0764023474182673,-0.01,0.086122474471036));
#823=CARTESIAN_POINT('',(-0.0766190207158112,-0.01,0.0859101630820515));
#824=CARTESIAN_POINT('',(-0.0769862363736026,-0.01,0.0855503399416537));
#825=CARTESIAN_POINT('',(-0.0773504224640009,-0.0100000000000004,0.0851875947246816));
#826=CARTESIAN_POINT('',(-0.0777111974020165,-0.009999999999998,0.0848215496545003));
#827=CARTESIAN_POINT('',(-0.0778190092648336,-0.0099999999999972,0.0847121628963504));
#828=CARTESIAN_POINT('',(-0.0779265165225628,-0.0099999999999962,0.0846024814715634));
#829=CARTESIAN_POINT('',(-0.0780337068815446,-0.0099999999999944,0.0844924922155404));
#830=CARTESIAN_POINT('',(-0.0782855148527922,-0.0099999999999902,0.0842341091698892));
#831=CARTESIAN_POINT('',(-0.0785355662868371,-0.0099999999999815,0.0839740344164213));
#832=CARTESIAN_POINT('',(-0.0787836940394744,-0.0099999999999736,0.0837121030426247));
#833=CARTESIAN_POINT('',(-0.0791378088738543,-0.0099999999999623,0.0833382884085701));
#834=CARTESIAN_POINT('',(-0.0794880053163561,-0.0099999999999612,0.082960691951981));
#835=CARTESIAN_POINT('',(-0.0798336141998055,-0.0099999999999803,0.0825787593621634));
#836=CARTESIAN_POINT('',(-0.0798974301405001,-0.0099999999999839,0.0825082363268238));
#837=CARTESIAN_POINT('',(-0.0799610896868178,-0.0099999999999877,0.0824375654715792));
#838=CARTESIAN_POINT('',(-0.0800245886465104,-0.0099999999999912,0.08236674055718));
#839=CARTESIAN_POINT('',(-0.0803053975537909,-0.0100000000000065,0.0820535343736934));
#840=CARTESIAN_POINT('',(-0.0805830565208958,-0.0099999999999992,0.0817373559272532));
#841=CARTESIAN_POINT('',(-0.0808572524047439,-0.0099999999999995,0.08141759715907));
#842=CARTESIAN_POINT('',(-0.0808996001280022,-0.0099999999999995,0.0813682125525822));
#843=CARTESIAN_POINT('',(-0.0809418652422241,-0.0099999999999996,0.0813187425461066));
#844=CARTESIAN_POINT('',(-0.0809840444925769,-0.0099999999999997,0.0812691859677493));
#845=CARTESIAN_POINT('',(-0.0812771429776393,-0.0100000000000003,0.08092482332688));
#846=CARTESIAN_POINT('',(-0.0815661423316326,-0.0100000000000007,0.0805762306680572));
#847=CARTESIAN_POINT('',(-0.0818496792562549,-0.0099999999999992,0.0802233946974935));
#848=CARTESIAN_POINT('',(-0.0818711413125349,-0.0099999999999991,0.080196687116222));
#849=CARTESIAN_POINT('',(-0.0818925720919292,-0.009999999999999,0.0801699552388233));
#850=CARTESIAN_POINT('',(-0.0819139703418264,-0.0099999999999988,0.0801431997600371));
#851=CARTESIAN_POINT('',(-0.0820544310352568,-0.0099999999999978,0.0799675735699778));
#852=CARTESIAN_POINT('',(-0.0821935802909251,-0.0099999999999982,0.0797908119418197));
#853=CARTESIAN_POINT('',(-0.0823310986496489,-0.0099999999999988,0.0796130599448572));
#854=CARTESIAN_POINT('',(-0.0824895271002451,-0.0099999999999996,0.0794082802068609));
#855=CARTESIAN_POINT('',(-0.0826457910029391,-0.01,0.0792021861130837));
#856=CARTESIAN_POINT('',(-0.0827997448856061,-0.0099999999999997,0.0789945090551549));
#857=CARTESIAN_POINT('',(-0.0828014701109228,-0.0099999999999997,0.0789921818016175));
#858=CARTESIAN_POINT('',(-0.0828031950461367,-0.0099999999999997,0.0789898543492778));
#859=CARTESIAN_POINT('',(-0.0828049196908168,-0.0099999999999997,0.07898752669788));
#860=CARTESIAN_POINT('',(-0.0829570960992455,-0.0099999999999994,0.078782143157787));
#861=CARTESIAN_POINT('',(-0.0831069377313169,-0.0099999999999997,0.0785753003413049));
#862=CARTESIAN_POINT('',(-0.0832541664694895,-0.0099999999999989,0.0783668092846065));
#863=CARTESIAN_POINT('',(-0.0833867506284068,-0.0099999999999981,0.0781790564604144));
#864=CARTESIAN_POINT('',(-0.083517215849768,-0.0099999999999991,0.0779899669843259));
#865=CARTESIAN_POINT('',(-0.0836453200123349,-0.0099999999999826,0.0777993412565966));
#866=CARTESIAN_POINT('',(-0.0836611049699847,-0.0099999999999806,0.0777758524098733));
#867=CARTESIAN_POINT('',(-0.0836768538607923,-0.0099999999999785,0.0777523402653443));
#868=CARTESIAN_POINT('',(-0.0836925662016357,-0.0099999999999766,0.0777288044892717));
#869=CARTESIAN_POINT('',(-0.0838357859400728,-0.009999999999959,0.0775142732665437));
#870=CARTESIAN_POINT('',(-0.0839759689701738,-0.0099999999999564,0.0772977786678311));
#871=CARTESIAN_POINT('',(-0.0841126285846336,-0.0099999999999677,0.0770790043048769));
#872=CARTESIAN_POINT('',(-0.0842177639677979,-0.0099999999999764,0.0769106961579046));
#873=CARTESIAN_POINT('',(-0.0843208139835081,-0.0099999999999899,0.076741038707269));
#874=CARTESIAN_POINT('',(-0.0844214695498487,-0.0099999999999962,0.0765698289179035));
#875=CARTESIAN_POINT('',(-0.0844516383339705,-0.0099999999999981,0.0765185134133298));
#876=CARTESIAN_POINT('',(-0.0844815924456696,-0.0099999999999988,0.0764670588087655));
#877=CARTESIAN_POINT('',(-0.0845113226938815,-0.0099999999999992,0.0764154610879519));
#878=CARTESIAN_POINT('',(-0.0845757864748597,-0.0100000000000002,0.0763035822987201));
#879=CARTESIAN_POINT('',(-0.0846391976811592,-0.0100000000000002,0.0761910305990132));
#880=CARTESIAN_POINT('',(-0.0847014335158606,-0.0099999999999991,0.0760777486050912));
#881=CARTESIAN_POINT('',(-0.0847274444783748,-0.0099999999999986,0.0760304033142058));
#882=CARTESIAN_POINT('',(-0.0847532501475877,-0.0099999999999978,0.0759829304681859));
#883=CARTESIAN_POINT('',(-0.0847788402780463,-0.0099999999999961,0.0759353243298308));
#884=CARTESIAN_POINT('',(-0.0848144963187904,-0.0099999999999937,0.0758689922565494));
#885=CARTESIAN_POINT('',(-0.0848497324076868,-0.0099999999999899,0.075802402778125));
#886=CARTESIAN_POINT('',(-0.0848845292533855,-0.0099999999999865,0.0757355228862772));
#887=CARTESIAN_POINT('',(-0.0849442846857549,-0.0099999999999806,0.0756206723366385));
#888=CARTESIAN_POINT('',(-0.0850027452628954,-0.0099999999999771,0.0755049656234092));
#889=CARTESIAN_POINT('',(-0.0850597597957644,-0.0099999999999837,0.0753882389714479));
#890=CARTESIAN_POINT('',(-0.0850766790389874,-0.0099999999999857,0.0753535999677456));
#891=CARTESIAN_POINT('',(-0.0850934708849797,-0.0099999999999883,0.0753188711156321));
#892=CARTESIAN_POINT('',(-0.0851101309362786,-0.0099999999999911,0.0752840441915562));
#893=CARTESIAN_POINT('',(-0.0851495806223619,-0.0099999999999978,0.0752015767851004));
#894=CARTESIAN_POINT('',(-0.0851882436652447,-0.0099999999999987,0.0751186696426329));
#895=CARTESIAN_POINT('',(-0.0852260674715303,-0.009999999999999,0.0750352181215901));
#896=CARTESIAN_POINT('',(-0.085279910919335,-0.0099999999999995,0.0749164221023966));
#897=CARTESIAN_POINT('',(-0.0853320540521444,-0.0100000000000024,0.0747965233304014));
#898=CARTESIAN_POINT('',(-0.0853819547256675,-0.0099999999999854,0.0746759585369784));
#899=CARTESIAN_POINT('',(-0.0853907389151133,-0.0099999999999824,0.074654735096268));
#900=CARTESIAN_POINT('',(-0.0853994535941206,-0.0099999999999786,0.074633491003365));
#901=CARTESIAN_POINT('',(-0.0854080968452485,-0.0099999999999737,0.0746122249567346));
#902=CARTESIAN_POINT('',(-0.0854485476853477,-0.0099999999999506,0.0745126988132666));
#903=CARTESIAN_POINT('',(-0.085487430701313,-0.0099999999999243,0.0744126793270598));
#904=CARTESIAN_POINT('',(-0.0855245246757563,-0.0099999999999212,0.0743120870975581));
#905=CARTESIAN_POINT('',(-0.0855470282938438,-0.0099999999999193,0.074251061307002));
#906=CARTESIAN_POINT('',(-0.0855688734902684,-0.0099999999999254,0.0741898247307373));
#907=CARTESIAN_POINT('',(-0.0855899877514356,-0.0099999999999377,0.0741283624333334));
#908=CARTESIAN_POINT('',(-0.0856111006950454,-0.00999999999995,0.0740669039712567));
#909=CARTESIAN_POINT('',(-0.0856314827900459,-0.0099999999999686,0.0740052198139718));
#910=CARTESIAN_POINT('',(-0.08565105024746,-0.0099999999999831,0.0739432865186879));
#911=CARTESIAN_POINT('',(-0.0856532076002296,-0.0099999999999847,0.0739364582444117));
#912=CARTESIAN_POINT('',(-0.0856553550509466,-0.0099999999999862,0.0739296269418838));
#913=CARTESIAN_POINT('',(-0.0856574924536309,-0.0099999999999876,0.073922792572002));
#914=CARTESIAN_POINT('',(-0.0856747421737378,-0.0099999999999993,0.0738676363918235));
#915=CARTESIAN_POINT('',(-0.0856913424632846,-0.0099999999999991,0.073812280261464));
#916=CARTESIAN_POINT('',(-0.0857072153106548,-0.0099999999999994,0.0737567075145556));
#917=CARTESIAN_POINT('',(-0.0857248689861951,-0.0099999999999997,0.0736948998741292));
#918=CARTESIAN_POINT('',(-0.0857416227916243,-0.0100000000000003,0.0736328242719241));
#919=CARTESIAN_POINT('',(-0.0857573350857006,-0.0099999999999936,0.0735704446129985));
#920=CARTESIAN_POINT('',(-0.085757504409718,-0.0099999999999936,0.0735697723766973));
#921=CARTESIAN_POINT('',(-0.0857576736117528,-0.0099999999999935,0.0735691001039006));
#922=CARTESIAN_POINT('',(-0.085757842691651,-0.0099999999999934,0.0735684277945171));
#923=CARTESIAN_POINT('',(-0.0857737042740649,-0.0099999999999867,0.0735053576672537));
#924=CARTESIAN_POINT('',(-0.0857884913680677,-0.0099999999999914,0.073441965768256));
#925=CARTESIAN_POINT('',(-0.0858020159304293,-0.0099999999999949,0.0733781664332153));
#926=CARTESIAN_POINT('',(-0.0858137535980062,-0.009999999999998,0.0733227964059777));
#927=CARTESIAN_POINT('',(-0.0858245403517317,-0.0099999999999998,0.0732671195208167));
#928=CARTESIAN_POINT('',(-0.0858341751785951,-0.009999999999997,0.0732110334321967));
#929=CARTESIAN_POINT('',(-0.0858356339054449,-0.0099999999999966,0.0732025419165185));
#930=CARTESIAN_POINT('',(-0.0858370657340243,-0.0099999999999962,0.0731940424496302));
#931=CARTESIAN_POINT('',(-0.0858384699766528,-0.0099999999999959,0.0731855347605352));
#932=CARTESIAN_POINT('',(-0.0858438088920664,-0.0099999999999947,0.073153188617839));
#933=CARTESIAN_POINT('',(-0.0858487490313183,-0.0099999999999946,0.0731207236351959));
#934=CARTESIAN_POINT('',(-0.0858532257262881,-0.0099999999999944,0.0730881527101667));
#935=CARTESIAN_POINT('',(-0.0858577046837044,-0.0099999999999942,0.0730555653243385));
#936=CARTESIAN_POINT('',(-0.085861719722683,-0.009999999999994,0.0730228719223352));
#937=CARTESIAN_POINT('',(-0.0858651832591662,-0.0099999999999914,0.072990202309929));
#938=CARTESIAN_POINT('',(-0.0858686485514964,-0.0099999999999889,0.0729575161355952));
#939=CARTESIAN_POINT('',(-0.0858715617814702,-0.0099999999999849,0.0729248537406862));
#940=CARTESIAN_POINT('',(-0.0858738300959899,-0.0099999999999682,0.0728921821571369));
#941=CARTESIAN_POINT('',(-0.0858749534598973,-0.00999999999996,0.0728760018270123));
#942=CARTESIAN_POINT('',(-0.0858759186526849,-0.0099999999999485,0.0728598192414484));
#943=CARTESIAN_POINT('',(-0.0858767063622046,-0.00999999999993,0.072843635077125));
#944=CARTESIAN_POINT('',(-0.0858775103169534,-0.0099999999999112,0.0728271171407063));
#945=CARTESIAN_POINT('',(-0.0858781293116082,-0.0099999999998824,0.0728106083060577));
#946=CARTESIAN_POINT('',(-0.0858785416955359,-0.0099999999998513,0.0727940954718343));
#947=CARTESIAN_POINT('',(-0.085878949998085,-0.0099999999998204,0.072777746065728));
#948=CARTESIAN_POINT('',(-0.0858791557851248,-0.0099999999997877,0.0727613927354433));
#949=CARTESIAN_POINT('',(-0.085879126169794,-0.0099999999997712,0.0727450214784749));
#950=CARTESIAN_POINT('',(-0.0858790966058631,-0.0099999999997547,0.0727286786351529));
#951=CARTESIAN_POINT('',(-0.0858788325027981,-0.0099999999997564,0.0727123179240516));
#952=CARTESIAN_POINT('',(-0.0858782886048188,-0.0099999999997867,0.0726959235297154));
#953=CARTESIAN_POINT('',(-0.0858778827950086,-0.0099999999998093,0.0726836914451948));
#954=CARTESIAN_POINT('',(-0.0858773212026932,-0.009999999999848,0.0726714406051929));
#955=CARTESIAN_POINT('',(-0.0858765765387773,-0.0099999999998912,0.0726591689082484));
#956=CARTESIAN_POINT('',(-0.0858763261716382,-0.0099999999999057,0.0726550429803093));
#957=CARTESIAN_POINT('',(-0.0858760559275246,-0.0099999999999178,0.072650919804818));
#958=CARTESIAN_POINT('',(-0.0858757649512727,-0.0099999999999279,0.0726467991993391));
#959=CARTESIAN_POINT('',(-0.085874606239104,-0.0099999999999681,0.072630390314839));
#960=CARTESIAN_POINT('',(-0.0858731188570153,-0.0099999999999787,0.0726140221720858));
#961=CARTESIAN_POINT('',(-0.0858712065564449,-0.0099999999999799,0.0725976415535923));
#962=CARTESIAN_POINT('',(-0.0858692894158508,-0.009999999999981,0.0725812194758306));
#963=CARTESIAN_POINT('',(-0.085866945356283,-0.0099999999999784,0.0725647850273196));
#964=CARTESIAN_POINT('',(-0.0858640363458155,-0.0099999999999231,0.0725484366697806));
#965=CARTESIAN_POINT('',(-0.0858625811716103,-0.0099999999998954,0.0725402587314561));
#966=CARTESIAN_POINT('',(-0.0858609845742469,-0.009999999999853,0.0725321022953626));
#967=CARTESIAN_POINT('',(-0.0858592349510429,-0.0099999999997752,0.0725240120273209));
#968=CARTESIAN_POINT('',(-0.0858574861379097,-0.0099999999996975,0.0725159255050515));
#969=CARTESIAN_POINT('',(-0.0858555844459271,-0.0099999999995848,0.0725079050893544));
#970=CARTESIAN_POINT('',(-0.0858535147240749,-0.0099999999994022,0.072499942297665));
#971=CARTESIAN_POINT('',(-0.0858514471507675,-0.0099999999992198,0.0724919877720206));
#972=CARTESIAN_POINT('',(-0.0858492118878948,-0.0099999999989679,0.0724840907377497));
#973=CARTESIAN_POINT('',(-0.0858468085747252,-0.0099999999985928,0.0724762516588262));
#974=CARTESIAN_POINT('',(-0.0858467777012137,-0.009999999998588,0.0724761509562226));
#975=CARTESIAN_POINT('',(-0.0858467467999643,-0.0099999999985832,0.072476050263187));
#976=CARTESIAN_POINT('',(-0.0858467158710038,-0.0099999999985783,0.0724759495797014));
#977=CARTESIAN_POINT('',(-0.085844341516066,-0.0099999999982052,0.072468220308255));
#978=CARTESIAN_POINT('',(-0.0858417982143779,-0.009999999997849,0.0724605533204584));
#979=CARTESIAN_POINT('',(-0.0858391003737868,-0.0099999999975692,0.0724529442516804));
#980=CARTESIAN_POINT('',(-0.0858336360224055,-0.0099999999970025,0.0724375324346787));
#981=CARTESIAN_POINT('',(-0.0858275375800985,-0.0099999999967751,0.0724223585104536));
#982=CARTESIAN_POINT('',(-0.0858209656375814,-0.0099999999968793,0.0724073764129479));
#983=CARTESIAN_POINT('',(-0.0858143895824266,-0.0099999999969836,0.0723923849398367));
#984=CARTESIAN_POINT('',(-0.0858073395204361,-0.0099999999973915,0.0723775853975881));
#985=CARTESIAN_POINT('',(-0.0857999307279265,-0.0099999999978522,0.0723629387415763));
#986=CARTESIAN_POINT('',(-0.0857925081812582,-0.0099999999983137,0.0723482648945708));
#987=CARTESIAN_POINT('',(-0.0857847256045518,-0.0099999999988139,0.0723337444644521));
#988=CARTESIAN_POINT('',(-0.0857766704151334,-0.0099999999991788,0.072319373777086));
#989=CARTESIAN_POINT('',(-0.0857745334414629,-0.0099999999992757,0.0723155613551884));
#990=CARTESIAN_POINT('',(-0.0857723772814149,-0.009999999999364,0.0723117594658001));
#991=CARTESIAN_POINT('',(-0.0857702037275482,-0.0099999999994427,0.0723079689499039));
#992=CARTESIAN_POINT('',(-0.0857641723950017,-0.0099999999996613,0.0722974507556034));
#993=CARTESIAN_POINT('',(-0.0857579964296614,-0.0099999999997757,0.0722869955716502));
#994=CARTESIAN_POINT('',(-0.0857517091560041,-0.0099999999998475,0.0722766214924115));
#995=CARTESIAN_POINT('',(-0.0857431723577845,-0.0099999999999449,0.0722625356698429));
#996=CARTESIAN_POINT('',(-0.0857344303652473,-0.0099999999999657,0.0722485994407332));
#997=CARTESIAN_POINT('',(-0.0857255070911954,-0.0099999999999768,0.0722347787231529));
#998=CARTESIAN_POINT('',(-0.0857076963826247,-0.009999999999999,0.0722071927976703));
#999=CARTESIAN_POINT('',(-0.0856891629484429,-0.0100000000000091,0.0721800671785344));
#1000=CARTESIAN_POINT('',(-0.0856700801599635,-0.0099999999998692,0.0721533321028071));
#1001=CARTESIAN_POINT('',(-0.085669862958091,-0.0099999999998676,0.0721530278019699));
#1002=CARTESIAN_POINT('',(-0.0856696456851394,-0.009999999999866,0.0721527235516939));
#1003=CARTESIAN_POINT('',(-0.0856694283412703,-0.0099999999998644,0.0721524193519289));
#1004=CARTESIAN_POINT('',(-0.0856505544185306,-0.0099999999997219,0.0721260029506466));
#1005=CARTESIAN_POINT('',(-0.0856311456891129,-0.0099999999995457,0.0721000064726608));
#1006=CARTESIAN_POINT('',(-0.0856112973028862,-0.009999999999461,0.0720743597797076));
#1007=CARTESIAN_POINT('',(-0.0855911994253212,-0.0099999999993753,0.0720483907115411));
#1008=CARTESIAN_POINT('',(-0.0855706507292894,-0.0099999999993733,0.0720227802653816));
#1009=CARTESIAN_POINT('',(-0.0855497042812059,-0.009999999999428,0.0719974614035409));
#1010=CARTESIAN_POINT('',(-0.0855287398026692,-0.0099999999994826,0.0719721207475253));
#1011=CARTESIAN_POINT('',(-0.085507376893654,-0.0099999999995875,0.0719470722060924));
#1012=CARTESIAN_POINT('',(-0.0854857171754369,-0.0099999999996839,0.0719223333513642));
#1013=CARTESIAN_POINT('',(-0.085469028183486,-0.0099999999997582,0.0719032718592757));
#1014=CARTESIAN_POINT('',(-0.0854521629517119,-0.0099999999998271,0.0718843942130089));
#1015=CARTESIAN_POINT('',(-0.0854351428694064,-0.0099999999998774,0.0718656908719679));
#1016=CARTESIAN_POINT('',(-0.0854079659035913,-0.0099999999999577,0.0718358261479921));
#1017=CARTESIAN_POINT('',(-0.0853803709201733,-0.0099999999999775,0.0718063745953388));
#1018=CARTESIAN_POINT('',(-0.0853524478410837,-0.0099999999999884,0.071777314878544));
#1019=CARTESIAN_POINT('',(-0.085307084599415,-0.0100000000000062,0.0717301050793829));
#1020=CARTESIAN_POINT('',(-0.0852608552808693,-0.01,0.0716839296802548));
#1021=CARTESIAN_POINT('',(-0.0852138917013327,-0.0099999999999996,0.071638608350653));
#1022=CARTESIAN_POINT('',(-0.0852015014105658,-0.0099999999999995,0.0716266513308251));
#1023=CARTESIAN_POINT('',(-0.085189060038427,-0.0099999999999994,0.0716147537339497));
#1024=CARTESIAN_POINT('',(-0.0851765701166048,-0.0099999999999991,0.0716029140693827));
#1025=CARTESIAN_POINT('',(-0.0851417220906493,-0.0099999999999985,0.0715698803207326));
#1026=CARTESIAN_POINT('',(-0.0851064997693202,-0.0099999999999985,0.0715373040453107));
#1027=CARTESIAN_POINT('',(-0.085070945878626,-0.0099999999999988,0.0715051351674424));
#1028=CARTESIAN_POINT('',(-0.0850226330247883,-0.0099999999999991,0.0714614220810762));
#1029=CARTESIAN_POINT('',(-0.0849737079590523,-0.01,0.0714184612299181));
#1030=CARTESIAN_POINT('',(-0.084924236199822,-0.0099999999999983,0.071376147343843));
#1031=CARTESIAN_POINT('',(-0.0849171633416043,-0.009999999999998,0.0713700978295037));
#1032=CARTESIAN_POINT('',(-0.0849100793069711,-0.0099999999999977,0.0713640615405416));
#1033=CARTESIAN_POINT('',(-0.0849029842544635,-0.0099999999999973,0.0713580382347899));
#1034=CARTESIAN_POINT('',(-0.0848604519411591,-0.0099999999999949,0.071321930661648));
#1035=CARTESIAN_POINT('',(-0.0848175234190186,-0.00999999999999,0.0712862924970112));
#1036=CARTESIAN_POINT('',(-0.0847742372112051,-0.0099999999999829,0.071251079227038));
#1037=CARTESIAN_POINT('',(-0.0846732333792569,-0.0099999999999663,0.0711689127499456));
#1038=CARTESIAN_POINT('',(-0.0845702819891369,-0.0099999999999362,0.071089059658507));
#1039=CARTESIAN_POINT('',(-0.0844657079182953,-0.0099999999999425,0.0710111087106697));
#1040=CARTESIAN_POINT('',(-0.0844185980145056,-0.0099999999999453,0.0709759923417326));
#1041=CARTESIAN_POINT('',(-0.0843711588089353,-0.0099999999999562,0.0709412620116771));
#1042=CARTESIAN_POINT('',(-0.0843234137921854,-0.0099999999999704,0.0709068952723447));
#1043=CARTESIAN_POINT('',(-0.0842651803739177,-0.0099999999999877,0.0708649790087792));
#1044=CARTESIAN_POINT('',(-0.0842065123592431,-0.0099999999999932,0.0708236110565422));
#1045=CARTESIAN_POINT('',(-0.0841474443495468,-0.0099999999999962,0.0707827428094927));
#1046=CARTESIAN_POINT('',(-0.0840399319553226,-0.0100000000000016,0.0707083566381854));
#1047=CARTESIAN_POINT('',(-0.0839310945738032,-0.01,0.0706356255578339));
#1048=CARTESIAN_POINT('',(-0.0838214112426435,-0.0099999999999994,0.0705645232874411));
#1049=CARTESIAN_POINT('',(-0.0837852728268707,-0.0099999999999993,0.0705410965426233));
#1050=CARTESIAN_POINT('',(-0.0837490425550197,-0.0099999999999989,0.0705178466766256));
#1051=CARTESIAN_POINT('',(-0.0837127193273085,-0.0099999999999984,0.0704947632822882));
#1052=CARTESIAN_POINT('',(-0.0836388374234337,-0.0099999999999972,0.0704478113666956));
#1053=CARTESIAN_POINT('',(-0.0835646158879485,-0.0099999999999955,0.0704015776032561));
#1054=CARTESIAN_POINT('',(-0.0834900577987213,-0.0099999999999941,0.0703559792596669));
#1055=CARTESIAN_POINT('',(-0.0833788082334916,-0.0099999999999921,0.0702879410903405));
#1056=CARTESIAN_POINT('',(-0.0832668094141637,-0.0099999999999918,0.0702213175528667));
#1057=CARTESIAN_POINT('',(-0.083154145908034,-0.0099999999999947,0.070155950261028));
#1058=CARTESIAN_POINT('',(-0.0831306262347138,-0.0099999999999954,0.0701423041621031));
#1059=CARTESIAN_POINT('',(-0.0831070775897856,-0.0099999999999961,0.0701287128194219));
#1060=CARTESIAN_POINT('',(-0.083083500342494,-0.0099999999999968,0.0701151749239699));
#1061=CARTESIAN_POINT('',(-0.0829941370721072,-0.0099999999999995,0.0700638631403344));
#1062=CARTESIAN_POINT('',(-0.0829043582874721,-0.0099999999999996,0.0700133127622147));
#1063=CARTESIAN_POINT('',(-0.0828141986304737,-0.0099999999999997,0.0699634601776072));
#1064=CARTESIAN_POINT('',(-0.0827002670698789,-0.01,0.0699004632347048));
#1065=CARTESIAN_POINT('',(-0.0825857273072227,-0.0100000000000004,0.0698385805734764));
#1066=CARTESIAN_POINT('',(-0.0824706456743864,-0.0099999999999963,0.0697777067765419));
#1067=CARTESIAN_POINT('',(-0.0824605376634709,-0.009999999999996,0.0697723600240784));
#1068=CARTESIAN_POINT('',(-0.0824504254723771,-0.0099999999999956,0.069767021054359));
#1069=CARTESIAN_POINT('',(-0.0824403091366002,-0.0099999999999951,0.0697616898131627));
#1070=CARTESIAN_POINT('',(-0.0822200816344482,-0.0099999999999851,0.0696456313945888));
#1071=CARTESIAN_POINT('',(-0.0819978731019122,-0.0099999999999665,0.0695332416944569));
#1072=CARTESIAN_POINT('',(-0.0817740353563295,-0.0099999999999632,0.0694239547785017));
#1073=CARTESIAN_POINT('',(-0.0815579018377762,-0.00999999999996,0.0693184293872602));
#1074=CARTESIAN_POINT('',(-0.0813402493729311,-0.009999999999972,0.0692157967705589));
#1075=CARTESIAN_POINT('',(-0.0811212973168581,-0.0099999999999859,0.069115677918459));
#1076=CARTESIAN_POINT('',(-0.0811030308748979,-0.009999999999987,0.069107325335552));
#1077=CARTESIAN_POINT('',(-0.0810847549838677,-0.0099999999999881,0.0690989900001908));
#1078=CARTESIAN_POINT('',(-0.0810664697370142,-0.009999999999989,0.0690906716793933));
#1079=CARTESIAN_POINT('',(-0.0808289956166871,-0.0100000000000012,0.0689826400006408));
#1080=CARTESIAN_POINT('',(-0.0805899434942123,-0.0099999999999996,0.0688774778831937));
#1081=CARTESIAN_POINT('',(-0.0803499608238942,-0.0099999999999997,0.0687749804467304));
#1082=CARTESIAN_POINT('',(-0.0801575411643246,-0.0099999999999998,0.0686927973382382));
#1083=CARTESIAN_POINT('',(-0.0799645232906985,-0.0099999999999997,0.0686123274246364));
#1084=CARTESIAN_POINT('',(-0.0797709157680858,-0.0099999999999977,0.0685333697980818));
#1085=CARTESIAN_POINT('',(-0.0797231505428668,-0.0099999999999972,0.0685138900342574));
#1086=CARTESIAN_POINT('',(-0.0796753559930998,-0.0099999999999967,0.0684945052563327));
#1087=CARTESIAN_POINT('',(-0.0796275320372648,-0.0099999999999964,0.0684752122432615));
#1088=CARTESIAN_POINT('',(-0.0793858141325733,-0.0099999999999948,0.0683776990490196));
#1089=CARTESIAN_POINT('',(-0.0791433451972473,-0.009999999999997,0.0682825296688977));
#1090=CARTESIAN_POINT('',(-0.0789001821663672,-0.0099999999999984,0.068189389544754));
#1091=CARTESIAN_POINT('',(-0.0787345175136057,-0.0099999999999993,0.0681259340668855));
#1092=CARTESIAN_POINT('',(-0.0785685306391733,-0.0099999999999998,0.0680634206054223));
#1093=CARTESIAN_POINT('',(-0.0784022246424993,-0.01,0.0680017713264336));
#1094=CARTESIAN_POINT('',(-0.0780802833960797,-0.01,0.06788242839163));
#1095=CARTESIAN_POINT('',(-0.0777571535529217,-0.0099999999999993,0.0677663270785344));
#1096=CARTESIAN_POINT('',(-0.0774330465499354,-0.0099999999999989,0.0676529889677529));
#1097=CARTESIAN_POINT('',(-0.0772953612338545,-0.0099999999999988,0.0676048413082973));
#1098=CARTESIAN_POINT('',(-0.0771574995936014,-0.0099999999999989,0.0675571922742729));
#1099=CARTESIAN_POINT('',(-0.0770194747386462,-0.0099999999999993,0.0675100158963724));
#1100=CARTESIAN_POINT('',(-0.0766647822871262,-0.0100000000000004,0.0673887833463597));
#1101=CARTESIAN_POINT('',(-0.0763090118826326,-0.0100000000000003,0.067270663383551));
#1102=CARTESIAN_POINT('',(-0.0759522955357936,-0.0099999999999996,0.0671551755768479));
#1103=CARTESIAN_POINT('',(-0.0758434392492808,-0.0099999999999994,0.067119933082674));
#1104=CARTESIAN_POINT('',(-0.0757344948669864,-0.0099999999999991,0.0670849357216768));
#1105=CARTESIAN_POINT('',(-0.0756254647142941,-0.0099999999999983,0.0670501726775542));
#1106=CARTESIAN_POINT('',(-0.0752381847441978,-0.0099999999999954,0.0669266927928087));
#1107=CARTESIAN_POINT('',(-0.0748498698611571,-0.0099999999999896,0.0668061892246796));
#1108=CARTESIAN_POINT('',(-0.0744606661440273,-0.0099999999999866,0.066688190564759));
#1109=CARTESIAN_POINT('',(-0.0739618698668953,-0.0099999999999826,0.0665369656671425));
#1110=CARTESIAN_POINT('',(-0.0734616137299542,-0.0099999999999848,0.0663898549488712));
#1111=CARTESIAN_POINT('',(-0.0729604294521169,-0.0099999999999915,0.0662461451993514));
#1112=CARTESIAN_POINT('',(-0.0729109283956461,-0.0099999999999922,0.0662319512496587));
#1113=CARTESIAN_POINT('',(-0.072861418284791,-0.0099999999999929,0.066217790477614));
#1114=CARTESIAN_POINT('',(-0.0728118992654124,-0.0099999999999935,0.0662036622046521));
#1115=CARTESIAN_POINT('',(-0.0723600586370342,-0.0099999999999997,0.0660747475408903));
#1116=CARTESIAN_POINT('',(-0.0719074664471565,-0.0099999999999996,0.0659485299748443));
#1117=CARTESIAN_POINT('',(-0.0714542528808471,-0.01,0.0658244998480304));
#1118=CARTESIAN_POINT('',(-0.0709625097348865,-0.01,0.0656899254017048));
#1119=CARTESIAN_POINT('',(-0.0704700350737871,-0.01,0.0655579261199354));
#1120=CARTESIAN_POINT('',(-0.0699769862185184,-0.01,0.0654280014450878));
#1121=CARTESIAN_POINT('',(-0.0694616072267954,-0.01,0.0652921924938909));
#1122=CARTESIAN_POINT('',(-0.0689455929500212,-0.01,0.0651586465149634));
#1123=CARTESIAN_POINT('',(-0.0684291061047089,-0.0099999999999996,0.0650267879662384));
#1124=CARTESIAN_POINT('',(-0.0679960904622766,-0.0099999999999993,0.0649162395278715));
#1125=CARTESIAN_POINT('',(-0.0675627426568804,-0.0099999999999991,0.0648068771739173));
#1126=CARTESIAN_POINT('',(-0.067129136607718,-0.0099999999999995,0.0646984311606742));
#1127=CARTESIAN_POINT('',(-0.0665507653927716,-0.01,0.0645537789987482));
#1128=CARTESIAN_POINT('',(-0.0659719378982776,-0.01,0.0644107534805648));
#1129=CARTESIAN_POINT('',(-0.0653928334579642,-0.01,0.064268713349726));
#1130=CARTESIAN_POINT('',(-0.0650199354207888,-0.01,0.0641772505974091));
#1131=CARTESIAN_POINT('',(-0.0646469225529178,-0.01,0.0640861964214708));
#1132=CARTESIAN_POINT('',(-0.0642738377838226,-0.01,0.0639953986617576));
#1133=CARTESIAN_POINT('',(-0.063633155497438,-0.01,0.0638394756085792));
#1134=CARTESIAN_POINT('',(-0.0629922623590463,-0.0099999999999993,0.0636843047164644));
#1135=CARTESIAN_POINT('',(-0.0623513732208033,-0.0099999999999987,0.063529119309089));
#1136=CARTESIAN_POINT('',(-0.0620394756388945,-0.0099999999999984,0.0634535961797056));
#1137=CARTESIAN_POINT('',(-0.061727579005045,-0.0099999999999985,0.0633780696128169));
#1138=CARTESIAN_POINT('',(-0.0614157070775422,-0.0099999999999991,0.0633024548764692));
#1139=CARTESIAN_POINT('',(-0.0607135681503476,-0.0100000000000004,0.0631322181697405));
#1140=CARTESIAN_POINT('',(-0.0600115565473482,-0.0100000000000009,0.0629615266648458));
#1141=CARTESIAN_POINT('',(-0.0593099472159727,-0.009999999999999,0.0627894039460337));
#1142=CARTESIAN_POINT('',(-0.0590595667869347,-0.0099999999999983,0.0627279792211104));
#1143=CARTESIAN_POINT('',(-0.0588092375892431,-0.0099999999999971,0.0626663722266113));
#1144=CARTESIAN_POINT('',(-0.0585589724493032,-0.0099999999999939,0.062604536881407));
#1145=CARTESIAN_POINT('',(-0.0577964576068359,-0.0099999999999842,0.0624161352185997));
#1146=CARTESIAN_POINT('',(-0.0570345412187475,-0.0099999999998818,0.0622256028210856));
#1147=CARTESIAN_POINT('',(-0.0562735746976131,-0.0099999999998814,0.0620316815777141));
#1148=CARTESIAN_POINT('',(-0.0560849219762039,-0.0099999999998813,0.0619836061771741));
#1149=CARTESIAN_POINT('',(-0.0558963276271367,-0.0099999999998905,0.061935322495468));
#1150=CARTESIAN_POINT('',(-0.0557077978211599,-0.0099999999999087,0.0618868093088656));
#1151=CARTESIAN_POINT('',(-0.0548862722923657,-0.0099999999999877,0.0616754113229052));
#1152=CARTESIAN_POINT('',(-0.0540659611336833,-0.0099999999999908,0.0614596011932399));
#1153=CARTESIAN_POINT('',(-0.0532474165436537,-0.0099999999999936,0.0612375765777916));
#1154=CARTESIAN_POINT('',(-0.0522410081451727,-0.0099999999999969,0.0609645951906096));
#1155=CARTESIAN_POINT('',(-0.0512372703227719,-0.0100000000000078,0.060682219079153));
#1156=CARTESIAN_POINT('',(-0.0502372679746989,-0.0099999999999233,0.0603864345696701));
#1157=CARTESIAN_POINT('',(-0.0501715280207928,-0.0099999999999177,0.0603669897553084));
#1158=CARTESIAN_POINT('',(-0.0501058042101239,-0.0099999999999116,0.0603474869960222));
#1159=CARTESIAN_POINT('',(-0.050040097059715,-0.009999999999905,0.0603279249477805));
#1160=CARTESIAN_POINT('',(-0.0491063096562277,-0.0099999999998105,0.0600499218062528));
#1161=CARTESIAN_POINT('',(-0.0481758601132969,-0.0100000000000012,0.0597600309150697));
#1162=CARTESIAN_POINT('',(-0.0472499006925785,-0.0099999999999984,0.0594541291131617));
#1163=CARTESIAN_POINT('',(-0.0472446628734702,-0.0099999999999983,0.0594523987367894));
#1164=CARTESIAN_POINT('',(-0.0472394251981185,-0.0099999999999983,0.0594506678479913));
#1165=CARTESIAN_POINT('',(-0.04723418766653,-0.0099999999999983,0.0594489364456604));
#1166=CARTESIAN_POINT('',(-0.0465979112210903,-0.009999999999996,0.0592385987126892));
#1167=CARTESIAN_POINT('',(-0.0459637589699152,-0.0099999999999196,0.0590206854076555));
#1168=CARTESIAN_POINT('',(-0.04533221739325,-0.0099999999999061,0.0587934897735324));
#1169=CARTESIAN_POINT('',(-0.0450395419959897,-0.0099999999998999,0.058688200470453));
#1170=CARTESIAN_POINT('',(-0.0447474270579445,-0.0099999999999309,0.0585809182229179));
#1171=CARTESIAN_POINT('',(-0.044455919706952,-0.0099999999999695,0.0584714769162292));
#1172=CARTESIAN_POINT('',(-0.0444018642624849,-0.0099999999999767,0.0584511827505556));
#1173=CARTESIAN_POINT('',(-0.0443478312924589,-0.0099999999999818,0.0584308142543508));
#1174=CARTESIAN_POINT('',(-0.0442938193469131,-0.0099999999999856,0.0584103697308902));
#1175=CARTESIAN_POINT('',(-0.0438879374258671,-0.0100000000000144,0.0582567358935375));
#1176=CARTESIAN_POINT('',(-0.0434832413519199,-0.01,0.0580988134583322));
#1177=CARTESIAN_POINT('',(-0.043079900106319,-0.01,0.0579360381436412));
#1178=CARTESIAN_POINT('',(-0.0426999028390396,-0.01,0.0577826836939346));
#1179=CARTESIAN_POINT('',(-0.0423211020106822,-0.01,0.0576250099214305));
#1180=CARTESIAN_POINT('',(-0.0419447079900168,-0.01,0.0574629584771379));
#1181=CARTESIAN_POINT('',(-0.0418684204674383,-0.01,0.057430113897956));
#1182=CARTESIAN_POINT('',(-0.0417922317477108,-0.01,0.0573970896441088));
#1183=CARTESIAN_POINT('',(-0.0417161517891708,-0.01,0.0573638854752925));
#1184=CARTESIAN_POINT('',(-0.0416050718020794,-0.01,0.0573154059714352));
#1185=CARTESIAN_POINT('',(-0.0414942162756745,-0.0100000000000003,0.0572665381108811));
#1186=CARTESIAN_POINT('',(-0.0413836002973005,-0.009999999999999,0.057217274639413));
#1187=CARTESIAN_POINT('',(-0.0408134667593197,-0.0099999999999925,0.0569633623412602));
#1188=CARTESIAN_POINT('',(-0.0402496958412692,-0.0099999999997952,0.0566989439668096));
#1189=CARTESIAN_POINT('',(-0.0396930548621667,-0.0099999999997556,0.0564221323607407));
#1190=CARTESIAN_POINT('',(-0.0394798443152824,-0.0099999999997404,0.0563161050358947));
#1191=CARTESIAN_POINT('',(-0.0392676799638655,-0.0099999999997746,0.0562082589917703));
#1192=CARTESIAN_POINT('',(-0.0390566055541509,-0.0099999999998483,0.0560984861389723));
#1193=CARTESIAN_POINT('',(-0.038893725878988,-0.0099999999999052,0.0560137777812438));
#1194=CARTESIAN_POINT('',(-0.0387315034126903,-0.0099999999999362,0.0559279184214259));
#1195=CARTESIAN_POINT('',(-0.0385699684085405,-0.0099999999999563,0.0558408621882574));
#1196=CARTESIAN_POINT('',(-0.0381113011222239,-0.0100000000000135,0.0555936721353368));
#1197=CARTESIAN_POINT('',(-0.0376581768515317,-0.0099999999999995,0.055336831834363));
#1198=CARTESIAN_POINT('',(-0.0372113737774803,-0.01,0.0550689532047604));
#1199=CARTESIAN_POINT('',(-0.0369759474382097,-0.01,0.0549278044777287));
#1200=CARTESIAN_POINT('',(-0.0367422760022356,-0.01,0.0547835912381837));
#1201=CARTESIAN_POINT('',(-0.0365105248843673,-0.01,0.0546361280006984));
#1202=CARTESIAN_POINT('',(-0.0363024475039953,-0.01,0.0545037283625032));
#1203=CARTESIAN_POINT('',(-0.0360958741927094,-0.0099999999999991,0.0543686709586571));
#1204=CARTESIAN_POINT('',(-0.0358909266554237,-0.0099999999999776,0.0542308271545652));
#1205=CARTESIAN_POINT('',(-0.0356888503659996,-0.0099999999999563,0.0540949144970145));
#1206=CARTESIAN_POINT('',(-0.0354883546342959,-0.0099999999999133,0.0539562929789899));
#1207=CARTESIAN_POINT('',(-0.0352894676193063,-0.0099999999999025,0.0538147125736853));
#1208=CARTESIAN_POINT('',(-0.0350619892891138,-0.00999999999989,0.0536527790548563));
#1209=CARTESIAN_POINT('',(-0.0348368244038151,-0.0099999999999563,0.0534871326119767));
#1210=CARTESIAN_POINT('',(-0.0346139096771699,-0.0099999999999816,0.0533173123633055));
#1211=CARTESIAN_POINT('',(-0.0344442611604789,-0.0100000000000008,0.0531880712237688));
#1212=CARTESIAN_POINT('',(-0.0342759161423759,-0.01,0.0530564125354163));
#1213=CARTESIAN_POINT('',(-0.0341092330301305,-0.01,0.0529224546742615));
#1214=CARTESIAN_POINT('',(-0.0338652505417582,-0.01,0.052726373788434));
#1215=CARTESIAN_POINT('',(-0.0336244362206841,-0.0099999999999625,0.0525250325373249));
#1216=CARTESIAN_POINT('',(-0.0333883133473658,-0.0099999999999085,0.052319152179761));
#1217=CARTESIAN_POINT('',(-0.0332511597886864,-0.0099999999998771,0.0521995651897111));
#1218=CARTESIAN_POINT('',(-0.0331155887005932,-0.0099999999998768,0.0520784476036498));
#1219=CARTESIAN_POINT('',(-0.0329816903050324,-0.009999999999929,0.0519558142939057));
#1220=CARTESIAN_POINT('',(-0.0327417781776333,-0.0100000000000225,0.0517360863568569));
#1221=CARTESIAN_POINT('',(-0.0325074998656038,-0.0099999999999994,0.051511663128235));
#1222=CARTESIAN_POINT('',(-0.0322788615237552,-0.01,0.0512821568371223));
#1223=CARTESIAN_POINT('',(-0.0322656329173726,-0.01,0.0512688780127443));
#1224=CARTESIAN_POINT('',(-0.0322524232016048,-0.01,0.0512555821621859));
#1225=CARTESIAN_POINT('',(-0.0322392323815318,-0.01,0.0512422692065126));
#1226=CARTESIAN_POINT('',(-0.0321341077145267,-0.01,0.051136171175893));
#1227=CARTESIAN_POINT('',(-0.0320301830283946,-0.01,0.0510289868872419));
#1228=CARTESIAN_POINT('',(-0.0319274666031427,-0.01,0.0509206726581196));
#1229=CARTESIAN_POINT('',(-0.0316699811610657,-0.01,0.0506491548643454));
#1230=CARTESIAN_POINT('',(-0.0314200767352727,-0.010000000000005,0.0503705243460862));
#1231=CARTESIAN_POINT('',(-0.0311782141569838,-0.0099999999999949,0.0500843647270389));
#1232=CARTESIAN_POINT('',(-0.0311022395638167,-0.0099999999999918,0.0499944754155473));
#1233=CARTESIAN_POINT('',(-0.0310270585592277,-0.0099999999999865,0.0499038431415155));
#1234=CARTESIAN_POINT('',(-0.0309526844277447,-0.0099999999999741,0.0498124459212579));
#1235=CARTESIAN_POINT('',(-0.0307231797137232,-0.0099999999999358,0.0495304111266414));
#1236=CARTESIAN_POINT('',(-0.0305014835158343,-0.0099999999999886,0.0492413101190716));
#1237=CARTESIAN_POINT('',(-0.030288103470457,-0.0099999999999973,0.0489446934383844));
#1238=CARTESIAN_POINT('',(-0.0302627836300237,-0.0099999999999983,0.0489094966747341));
#1239=CARTESIAN_POINT('',(-0.0302375808493873,-0.009999999999999,0.0488741941372629));
#1240=CARTESIAN_POINT('',(-0.0302124959480276,-0.0099999999999994,0.0488387851162198));
#1241=CARTESIAN_POINT('',(-0.030162383842644,-0.01,0.0487680485177935));
#1242=CARTESIAN_POINT('',(-0.030112742186286,-0.01,0.048696886969662));
#1243=CARTESIAN_POINT('',(-0.0300636197686556,-0.01,0.0486253630178362));
#1244=CARTESIAN_POINT('',(-0.0299631742112058,-0.01,0.0484791107859893));
#1245=CARTESIAN_POINT('',(-0.0298647405280714,-0.0099999999999963,0.0483311047662945));
#1246=CARTESIAN_POINT('',(-0.0297687948833445,-0.0099999999999943,0.0481819676719844));
#1247=CARTESIAN_POINT('',(-0.0297305649554445,-0.0099999999999935,0.0481225433971369));
#1248=CARTESIAN_POINT('',(-0.0296927299301761,-0.0099999999999942,0.0480629396729778));
#1249=CARTESIAN_POINT('',(-0.0296552916136848,-0.0099999999999963,0.0480031607950144));
#1250=CARTESIAN_POINT('',(-0.0295529187254774,-0.0100000000000021,0.0478396989472487));
#1251=CARTESIAN_POINT('',(-0.0294536195175731,-0.01,0.0476750668363966));
#1252=CARTESIAN_POINT('',(-0.029357281757205,-0.01,0.0475091095113749));
#1253=CARTESIAN_POINT('',(-0.0293299684473774,-0.0099999999999998,0.047462057931401));
#1254=CARTESIAN_POINT('',(-0.0293028932749598,-0.0099999999999997,0.0474148997881231));
#1255=CARTESIAN_POINT('',(-0.0292760552990566,-0.0099999999999995,0.0473676325106732));
#1256=CARTESIAN_POINT('',(-0.0290567503055886,-0.0099999999999976,0.0469813906416968));
#1257=CARTESIAN_POINT('',(-0.0288532412332877,-0.0099999999999974,0.0465878092358844));
#1258=CARTESIAN_POINT('',(-0.0286658805843228,-0.0099999999999989,0.0461869062026537));
#1259=CARTESIAN_POINT('',(-0.0286552003161891,-0.009999999999999,0.0461640532080992));
#1260=CARTESIAN_POINT('',(-0.0286445725085976,-0.009999999999999,0.0461411764286286));
#1261=CARTESIAN_POINT('',(-0.0286339972222206,-0.0099999999999991,0.0461182758698283));
#1262=CARTESIAN_POINT('',(-0.0286245293480068,-0.0099999999999992,0.0460977733886265));
#1263=CARTESIAN_POINT('',(-0.0286151035712031,-0.0099999999999993,0.0460772518475426));
#1264=CARTESIAN_POINT('',(-0.028605719959721,-0.0099999999999993,0.0460567112824012));
#1265=CARTESIAN_POINT('',(-0.0284174386647575,-0.0100000000000006,0.0456445667459955));
#1266=CARTESIAN_POINT('',(-0.0282461269420789,-0.0100000000000004,0.0452247504372764));
#1267=CARTESIAN_POINT('',(-0.0280922156430623,-0.0099999999999996,0.0447972400487961));
#1268=CARTESIAN_POINT('',(-0.0280795848520419,-0.0099999999999996,0.0447621562413664));
#1269=CARTESIAN_POINT('',(-0.0280670712748668,-0.0099999999999995,0.0447270206047542));
#1270=CARTESIAN_POINT('',(-0.0280546751641221,-0.0099999999999994,0.0446918331204155));
#1271=CARTESIAN_POINT('',(-0.0280516863965676,-0.0099999999999994,0.0446833492327119));
#1272=CARTESIAN_POINT('',(-0.0280487044569145,-0.0099999999999993,0.0446748623022048));
#1273=CARTESIAN_POINT('',(-0.0280457293511532,-0.0099999999999993,0.0446663723386536));
#1274=CARTESIAN_POINT('',(-0.0279673541526303,-0.0099999999999985,0.0444427155572918));
#1275=CARTESIAN_POINT('',(-0.0278937238877744,-0.0099999999999914,0.0442169530708916));
#1276=CARTESIAN_POINT('',(-0.0278248431421005,-0.0099999999999971,0.0439887271336194));
#1277=CARTESIAN_POINT('',(-0.0278176346756463,-0.0099999999999977,0.043964842969813));
#1278=CARTESIAN_POINT('',(-0.0278104791792099,-0.0099999999999981,0.0439409342850167));
#1279=CARTESIAN_POINT('',(-0.027803376291815,-0.0099999999999984,0.0439169995359785));
#1280=CARTESIAN_POINT('',(-0.0277517741544042,-0.010000000000001,0.043743114728281));
#1281=CARTESIAN_POINT('',(-0.0277029447250945,-0.0100000000000002,0.0435678558460955));
#1282=CARTESIAN_POINT('',(-0.0276570582674253,-0.0099999999999997,0.0433918316920572));
#1283=CARTESIAN_POINT('',(-0.0276466157437377,-0.0099999999999996,0.0433517733286206));
#1284=CARTESIAN_POINT('',(-0.0276363258421202,-0.0099999999999994,0.0433116752823777));
#1285=CARTESIAN_POINT('',(-0.0276261909519111,-0.009999999999999,0.0432715447001618));
#1286=CARTESIAN_POINT('',(-0.0276161400393461,-0.0099999999999987,0.0432317466397282));
#1287=CARTESIAN_POINT('',(-0.0276062396011095,-0.0099999999999984,0.043191909497705));
#1288=CARTESIAN_POINT('',(-0.0275964936245936,-0.0099999999999981,0.0431520458888272));
#1289=CARTESIAN_POINT('',(-0.0275472845931798,-0.0099999999999964,0.0429507679996051));
#1290=CARTESIAN_POINT('',(-0.0275020157433439,-0.0099999999999971,0.0427488147123103));
#1291=CARTESIAN_POINT('',(-0.027460704023328,-0.0099999999999989,0.0425466960406124));
#1292=CARTESIAN_POINT('',(-0.0274495955173865,-0.0099999999999994,0.0424923473844786));
#1293=CARTESIAN_POINT('',(-0.0274387728069009,-0.0099999999999996,0.0424379837904581));
#1294=CARTESIAN_POINT('',(-0.0274282350090777,-0.0099999999999998,0.0423836101815661));
#1295=CARTESIAN_POINT('',(-0.0273918219662322,-0.0100000000000002,0.042195723814466));
#1296=CARTESIAN_POINT('',(-0.0273588102134815,-0.01,0.042007718057483));
#1297=CARTESIAN_POINT('',(-0.027329114139397,-0.01,0.0418194341399979));
#1298=CARTESIAN_POINT('',(-0.0273184940028686,-0.01,0.0417520986092437));
#1299=CARTESIAN_POINT('',(-0.0273082987685799,-0.0099999999999998,0.041684732670788));
#1300=CARTESIAN_POINT('',(-0.0272985251838345,-0.0099999999999998,0.0416173329846941));
#1301=CARTESIAN_POINT('',(-0.0272616527431461,-0.0099999999999996,0.0413630566886716));
#1302=CARTESIAN_POINT('',(-0.0272307824667415,-0.0099999999999994,0.041108299914858));
#1303=CARTESIAN_POINT('',(-0.027205812793158,-0.0099999999999994,0.0408531282406521));
#1304=CARTESIAN_POINT('',(-0.0271896755792347,-0.0099999999999995,0.0406882177991897));
#1305=CARTESIAN_POINT('',(-0.0271760026281432,-0.0099999999999996,0.040523134125669));
#1306=CARTESIAN_POINT('',(-0.0271647681879068,-0.0099999999999998,0.0403578774470118));
#1307=CARTESIAN_POINT('',(-0.0271587220973798,-0.01,0.0402689404979212));
#1308=CARTESIAN_POINT('',(-0.0271533825164454,-0.01,0.0401799552091916));
#1309=CARTESIAN_POINT('',(-0.0271487451086085,-0.01,0.0400909207832442));
#1310=CARTESIAN_POINT('',(-0.027135565953469,-0.01,0.0398378918167217));
#1311=CARTESIAN_POINT('',(-0.0271280583041891,-0.01,0.0395844659995534));
#1312=CARTESIAN_POINT('',(-0.0271261454646931,-0.01,0.0393306437867476));
#1313=CARTESIAN_POINT('',(-0.0271250325508446,-0.01,0.0391829668612768));
#1314=CARTESIAN_POINT('',(-0.0271258134052957,-0.01,0.0390351557512768));
#1315=CARTESIAN_POINT('',(-0.0271284756988469,-0.01,0.0388872097585416));
#1316=CARTESIAN_POINT('',(-0.0271303637822263,-0.0099999999999998,0.0387822873055619));
#1317=CARTESIAN_POINT('',(-0.0271331978861831,-0.0099999999999998,0.0386772971358491));
#1318=CARTESIAN_POINT('',(-0.0271369734769903,-0.0099999999999998,0.0385722395611327));
#1319=CARTESIAN_POINT('',(-0.0271460230752569,-0.0099999999999998,0.0383204302696601));
#1320=CARTESIAN_POINT('',(-0.0271604818733593,-0.01,0.0380682337468288));
#1321=CARTESIAN_POINT('',(-0.0271802989131471,-0.01,0.0378156561380666));
#1322=CARTESIAN_POINT('',(-0.0271852365119185,-0.01,0.0377527240904923));
#1323=CARTESIAN_POINT('',(-0.0271905067251179,-0.01,0.0376897683842499));
#1324=CARTESIAN_POINT('',(-0.027196108901692,-0.01,0.0376267891228005));
#1325=CARTESIAN_POINT('',(-0.027201703626278,-0.01,0.0375638936360601));
#1326=CARTESIAN_POINT('',(-0.0272076294316929,-0.01,0.0375009746567393));
#1327=CARTESIAN_POINT('',(-0.027213885614275,-0.01,0.0374380322843631));
#1328=CARTESIAN_POINT('',(-0.0272148916355855,-0.01,0.0374279108777208));
#1329=CARTESIAN_POINT('',(-0.0272159061997585,-0.01,0.037417788866179));
#1330=CARTESIAN_POINT('',(-0.0272169293046863,-0.01,0.0374076662501974));
#1331=CARTESIAN_POINT('',(-0.0759603241143077,-0.01,0.0587869564681942));
#1332=CARTESIAN_POINT('',(-0.0665455366266416,-0.01,0.076556468554706));
#1333=CARTESIAN_POINT('',(-0.0674633881935456,-0.01,0.0845036409135474));
#1334=CARTESIAN_POINT('',(-0.063164590532716,-0.01,0.0838069308509992));
#1335=CARTESIAN_POINT('',(-0.0719059925993647,-0.01,0.0839905462893343));
#1336=CARTESIAN_POINT('',(-0.0763485970051839,-0.01,0.0834774516651213));
#1337=CARTESIAN_POINT('',(-0.0760617683905264,-0.01,0.0809939603029834));
#1338=CARTESIAN_POINT('',(-0.0781486030276315,-0.01,0.0796173262930235));
#1339=CARTESIAN_POINT('',(-0.0756860052465048,-0.01,0.075884283007929));
#1340=CARTESIAN_POINT('',(-0.073223407465378,-0.01,0.0721512397228344));
#1341=CARTESIAN_POINT('',(-0.0665455366266416,-0.01,0.076556468554706));
#1342=CARTESIAN_POINT('',(-0.0699264827205672,-0.01,0.0693060062584128));
#1343=CARTESIAN_POINT('',(-0.0608634048502007,-0.01,0.0650798236410058));
#1344=CARTESIAN_POINT('',(-0.0430589249131853,-0.01,0.0606700255852637));
#1345=CARTESIAN_POINT('',(-0.0386163205073662,-0.01,0.0611831202094767));
#1346=CARTESIAN_POINT('',(-0.0389031491220238,-0.01,0.0636666115716147));
#1347=CARTESIAN_POINT('',(-0.0368163144849186,-0.01,0.0650432455815746));
#1348=CARTESIAN_POINT('',(-0.0392789122660454,-0.01,0.0687762888666691));
#1349=CARTESIAN_POINT('',(-0.0541015126623495,-0.01,0.0795807482335922));
#1350=CARTESIAN_POINT('',(-0.0484193808859086,-0.01,0.068104103319892));
#1351=CARTESIAN_POINT('',(-0.0484193808859086,-0.01,0.074354103319892));
#1352=CARTESIAN_POINT('',(-0.0665455366266416,-0.01,0.076556468554706));
#1353=CARTESIAN_POINT('',(-0.0665455366266416,-0.01,0.082806468554706));
#1354=CARTESIAN_POINT('',(-0.0760617683905264,-0.01,0.0809939603029834));
#1355=CARTESIAN_POINT('',(-0.0760617683905264,-0.01,0.0823439603029834));
#1356=CARTESIAN_POINT('',(-0.0389031491220238,-0.01,0.0636666115716147));
#1357=CARTESIAN_POINT('',(-0.0389031491220238,-0.01,0.0650166115716147));
#1358=CARTESIAN_POINT('',(-0.0608634048502007,-0.012502,0.0650798236410058));
#1359=CARTESIAN_POINT('',(-0.0699264827205672,-0.012502,0.0693060062584128));
#1360=CARTESIAN_POINT('',(-0.0541015126623495,-0.012502,0.0795807482335922));
#1361=CARTESIAN_POINT('',(-0.063164590532716,-0.012502,0.0838069308509992));
#1362=CARTESIAN_POINT('',(-0.0665455366266416,-0.012502,0.076556468554706));
#1363=CARTESIAN_POINT('',(-0.0665455366266416,-0.008,0.076556468554706));
#1364=CARTESIAN_POINT('',(-0.073223407465378,-0.008,0.0721512397228344));
#1365=CARTESIAN_POINT('',(-0.0674633881935455,-0.008,0.0845036409135474));
#1366=CARTESIAN_POINT('',(-0.0674633881935456,-0.010002,0.0845036409135474));
#1367=CARTESIAN_POINT('',(-0.073223407465378,-0.010002,0.0721512397228344));
#1368=CARTESIAN_POINT('',(-0.0515193808859086,-0.0055,0.068104103319892));
#1369=CARTESIAN_POINT('',(-0.0515193808859086,-0.0055,0.071204103319892));
#1370=CARTESIAN_POINT('',(-0.0515193808859086,-0.0055,0.071204103319892));
#1371=CARTESIAN_POINT('',(-0.0515193808859086,-0.0055,0.068104103319892));
#1372=CARTESIAN_POINT('',(-0.0515193808859086,-0.0055,0.065004103319892));
#1373=CARTESIAN_POINT('',(-0.0515193808859086,-0.0055,0.065004103319892));
#1374=CARTESIAN_POINT('',(-0.0484193808859086,-0.0055,0.071204103319892));
#1375=CARTESIAN_POINT('',(-0.0453193808859086,-0.0055,0.071204103319892));
#1376=CARTESIAN_POINT('',(-0.0453193808859086,-0.0055,0.071204103319892));
#1377=CARTESIAN_POINT('',(-0.0484193808859086,-0.0055,0.071204103319892));
#1378=CARTESIAN_POINT('',(-0.0453193808859086,-0.0055,0.068104103319892));
#1379=CARTESIAN_POINT('',(-0.0453193808859086,-0.0055,0.065004103319892));
#1380=CARTESIAN_POINT('',(-0.0453193808859086,-0.0055,0.065004103319892));
#1381=CARTESIAN_POINT('',(-0.0453193808859086,-0.0055,0.068104103319892));
#1382=CARTESIAN_POINT('',(-0.0484193808859086,-0.0055,0.065004103319892));
#1383=CARTESIAN_POINT('',(-0.0484193808859086,-0.0055,0.065004103319892));
#1384=CARTESIAN_POINT('',(-0.0665455366266416,-0.0055,0.0796564685547061));
#1385=CARTESIAN_POINT('',(-0.0634455366266415,-0.0055,0.0796564685547061));
#1386=CARTESIAN_POINT('',(-0.0634455366266415,-0.0055,0.0796564685547061));
#1387=CARTESIAN_POINT('',(-0.0665455366266416,-0.0055,0.0796564685547061));
#1388=CARTESIAN_POINT('',(-0.0696455366266416,-0.0055,0.0796564685547061));
#1389=CARTESIAN_POINT('',(-0.0696455366266416,-0.0055,0.0796564685547061));
#1390=CARTESIAN_POINT('',(-0.0634455366266415,-0.0055,0.0765564685547061));
#1391=CARTESIAN_POINT('',(-0.0634455366266415,-0.0055,0.073456468554706));
#1392=CARTESIAN_POINT('',(-0.0634455366266415,-0.0055,0.073456468554706));
#1393=CARTESIAN_POINT('',(-0.0634455366266415,-0.0055,0.0765564685547061));
#1394=CARTESIAN_POINT('',(-0.0665455366266416,-0.0055,0.073456468554706));
#1395=CARTESIAN_POINT('',(-0.0696455366266416,-0.0055,0.073456468554706));
#1396=CARTESIAN_POINT('',(-0.0696455366266416,-0.0055,0.073456468554706));
#1397=CARTESIAN_POINT('',(-0.0665455366266416,-0.0055,0.073456468554706));
#1398=CARTESIAN_POINT('',(-0.0696455366266416,-0.0055,0.0765564685547061));
#1399=CARTESIAN_POINT('',(-0.0696455366266416,-0.0055,0.0765564685547061));
#1400=CARTESIAN_POINT('',(-0.0484193808859086,-0.0305,0.068104103319892));
#1401=CARTESIAN_POINT('',(-0.0484193808859086,-0.0055,0.068104103319892));
#1402=CARTESIAN_POINT('',(-0.0484193808859086,-0.0055,0.074354103319892));
#1403=CARTESIAN_POINT('',(-0.0574824587562751,-0.0055,0.072330285937299));
#1404=CARTESIAN_POINT('',(-0.0574824587562751,-0.0055,0.072330285937299));
#1405=CARTESIAN_POINT('',(-0.0665455366266416,-0.0055,0.076556468554706));
#1406=CARTESIAN_POINT('',(-0.0665455366266416,-0.0055,0.082806468554706));
#1407=CARTESIAN_POINT('',(-0.0665455366266416,-0.0305,0.076556468554706));
#1408=CARTESIAN_POINT('',(-0.0389031491220238,-0.010002,0.0636666115716147));
#1409=CARTESIAN_POINT('',(-0.0389031491220238,-0.008,0.0636666115716147));
#1410=CARTESIAN_POINT('',(-0.0389031491220238,-0.008,0.0650166115716147));
#1411=CARTESIAN_POINT('',(-0.0392789122660454,-0.010002,0.0687762888666691));
#1412=CARTESIAN_POINT('',(-0.0368163144849186,-0.010002,0.0650432455815746));
#1413=CARTESIAN_POINT('',(-0.0368163144849186,-0.008,0.0650432455815746));
#1414=CARTESIAN_POINT('',(-0.0392789122660454,-0.008,0.0687762888666691));
#1415=CARTESIAN_POINT('',(-0.0389031491220238,-0.010002,0.0636666115716147));
#1416=CARTESIAN_POINT('',(-0.0386163205073662,-0.010002,0.0611831202094767));
#1417=CARTESIAN_POINT('',(-0.0386163205073662,-0.008,0.0611831202094767));
#1418=CARTESIAN_POINT('',(-0.0389031491220238,-0.008,0.0636666115716147));
#1419=CARTESIAN_POINT('',(-0.0574824587562751,-0.008,0.072330285937299));
#1420=CARTESIAN_POINT('',(-0.0430589249131853,-0.008,0.0606700255852637));
#1421=CARTESIAN_POINT('',(-0.0430589249131853,-0.010002,0.0606700255852637));
#1422=CARTESIAN_POINT('',(-0.0574824587562751,-0.008,0.072330285937299));
#1423=CARTESIAN_POINT('',(-0.0756860052465048,-0.008,0.075884283007929));
#1424=CARTESIAN_POINT('',(-0.0781486030276315,-0.008,0.0796173262930235));
#1425=CARTESIAN_POINT('',(-0.0760617683905264,-0.008,0.0809939603029834));
#1426=CARTESIAN_POINT('',(-0.0763485970051839,-0.008,0.0834774516651213));
#1427=CARTESIAN_POINT('',(-0.0719059925993647,-0.008,0.0839905462893343));
#1428=CARTESIAN_POINT('',(-0.0760617683905264,-0.008,0.0809939603029834));
#1429=CARTESIAN_POINT('',(-0.0760617683905264,-0.008,0.0823439603029834));
#1430=CARTESIAN_POINT('',(-0.0760617683905264,-0.010002,0.0809939603029834));
#1431=CARTESIAN_POINT('',(-0.0756860052465048,-0.010002,0.075884283007929));
#1432=CARTESIAN_POINT('',(-0.0781486030276315,-0.010002,0.0796173262930235));
#1433=CARTESIAN_POINT('',(-0.0719059925993647,-0.010002,0.0839905462893343));
#1434=CARTESIAN_POINT('',(-0.0763485970051839,-0.010002,0.0834774516651213));
#1435=CARTESIAN_POINT('',(-0.0760617683905264,-0.010002,0.0809939603029834));
#1436=MECHANICAL_DESIGN_GEOMETRIC_PRESENTATION_REPRESENTATION('',(#539),
#1437);
#1437=(
GEOMETRIC_REPRESENTATION_CONTEXT(3)
GLOBAL_UNCERTAINTY_ASSIGNED_CONTEXT((#1438))
GLOBAL_UNIT_ASSIGNED_CONTEXT((#1441,#1440,#1439))
REPRESENTATION_CONTEXT('Part 3','TOP_LEVEL_ASSEMBLY_PART')
);
#1438=UNCERTAINTY_MEASURE_WITH_UNIT(LENGTH_MEASURE(2.E-5),#1441,
'DISTANCE_ACCURACY_VALUE','Maximum Tolerance applied to model');
#1439=(
NAMED_UNIT(*)
SI_UNIT($,.STERADIAN.)
SOLID_ANGLE_UNIT()
);
#1440=(
NAMED_UNIT(*)
PLANE_ANGLE_UNIT()
SI_UNIT($,.RADIAN.)
);
#1441=(
LENGTH_UNIT()
NAMED_UNIT(*)
SI_UNIT($,.METRE.)
);
#1442=PRODUCT_DEFINITION_SHAPE('','',#1443);
#1443=PRODUCT_DEFINITION('','',#1445,#1444);
#1444=PRODUCT_DEFINITION_CONTEXT('',#1451,'design');
#1445=PRODUCT_DEFINITION_FORMATION_WITH_SPECIFIED_SOURCE('','',#1447,
 .NOT_KNOWN.);
#1446=PRODUCT_RELATED_PRODUCT_CATEGORY('','',(#1447));
#1447=PRODUCT('Part 3','Part 3','Part 3',(#1449));
#1448=PRODUCT_CATEGORY('','');
#1449=PRODUCT_CONTEXT('',#1451,'mechanical');
#1450=APPLICATION_PROTOCOL_DEFINITION('international standard',
'ap242_managed_model_based_3d_engineering',2011,#1451);
#1451=APPLICATION_CONTEXT('managed model based 3d engineering');
ENDSEC;
END-ISO-10303-21;
